<svg xmlns="http://www.w3.org/2000/svg" viewBox="0 -0.5 30 45" shape-rendering="crispEdges">
<metadata>Made with Pixels to Svg https://codepen.io/shshaw/pen/XbxvNj</metadata>
<path stroke="#443c2a" d="M10 37h1M12 40h1M12 41h1M15 41h1M12 42h1M14 42h1" />
<path stroke="#352f21" d="M11 37h1M13 39h3M15 40h1" />
<path stroke="#595c47" d="M10 38h1M12 38h1M11 39h1" />
<path stroke="#f6f8df" d="M11 38h1" />
<path stroke="#1a1a1a" d="M13 38h2" />
<path stroke="#0f0f0f" d="M15 38h1" />
<path stroke="#eadbb5" d="M12 39h1M13 40h1" />
<path stroke="#7f7764" d="M14 40h1" />
<path stroke="#ddd8c4" d="M13 41h1" />
<path stroke="#bebdab" d="M14 41h1M13 42h1" />
</svg>