<svg xmlns="http://www.w3.org/2000/svg" viewBox="0 -0.5 30 45" shape-rendering="crispEdges">
<metadata>Made with Pixels to Svg https://codepen.io/shshaw/pen/XbxvNj</metadata>
<path stroke="#1a1a1a" d="M20 37h1M18 38h2" />
<path stroke="#595c47" d="M21 37h1M22 38h1M21 39h1" />
<path stroke="#6d715f" d="M22 37h1" />
<path stroke="#0f0f0f" d="M17 38h1M17 39h1" />
<path stroke="#443c2a" d="M20 38h1M19 39h1M21 40h1M18 41h1M21 41h1M18 42h1M21 42h1" />
<path stroke="#f6f8df" d="M21 38h1" />
<path stroke="#352f21" d="M18 39h1M18 40h1" />
<path stroke="#eadbb5" d="M20 39h1" />
<path stroke="#ddd8c4" d="M19 40h1" />
<path stroke="#bebdab" d="M20 40h1M20 41h1M20 42h1" />
<path stroke="#7f7764" d="M19 41h1M19 42h1" />
</svg>