<svg xmlns="http://www.w3.org/2000/svg" viewBox="0 -0.5 30 45" shape-rendering="crispEdges">
<metadata>Made with Pixels to Svg https://codepen.io/shshaw/pen/XbxvNj</metadata>
<path stroke="#443c2a" d="M10 26h1M9 27h1M8 28h2M7 29h1M11 29h1M7 30h1M10 30h1M7 31h1M8 32h2" />
<path stroke="#f6f8df" d="M11 26h1M10 27h1M8 29h1" />
<path stroke="#d7ca9e" d="M12 26h1" />
<path stroke="#352f21" d="M13 26h1M13 27h1M12 28h1M12 29h1M11 30h1M10 31h1" />
<path stroke="#595c47" d="M8 27h1M7 28h1" />
<path stroke="#a6a494" d="M11 27h1M11 28h1M9 31h1" />
<path stroke="#554527" d="M12 27h1M10 28h1M10 29h1" />
<path stroke="#d8dac5" d="M9 29h1M8 30h1" />
<path stroke="#bebdab" d="M9 30h1M8 31h1" />
</svg>