<svg xmlns="http://www.w3.org/2000/svg" viewBox="0 -0.5 30 45" shape-rendering="crispEdges">
<metadata>Made with Pixels to Svg https://codepen.io/shshaw/pen/XbxvNj</metadata>
<path stroke="#1a1a1a" d="M10 17h1M9 18h1" />
<path stroke="#242424" d="M10 18h1" />
<path stroke="#0f0f0f" d="M11 18h1" />
<path stroke="#6d715f" d="M9 19h1" />
<path stroke="#595c47" d="M10 19h1M9 20h1" />
<path stroke="#bebdab" d="M11 19h1M11 20h1M10 21h1M11 23h1M12 25h1" />
<path stroke="#665e4c" d="M12 19h1M13 20h1M13 21h1M10 22h1M13 22h1M10 23h1M13 23h1M10 24h1M13 24h1M10 25h1M13 25h1" />
<path stroke="#2c2c2c" d="M8 20h1M9 21h1" />
<path stroke="#f6f8df" d="M10 20h1M11 24h1M11 26h1M10 27h1" />
<path stroke="#d8dac5" d="M12 20h1" />
<path stroke="#443c2a" d="M11 21h1M10 26h1" />
<path stroke="#a6a494" d="M12 21h1M12 22h1M11 27h1M11 28h1" />
<path stroke="#eadbb5" d="M11 22h1M11 25h1" />
<path stroke="#d7ca9e" d="M12 23h1M12 26h1" />
<path stroke="#7f7764" d="M12 24h1" />
<path stroke="#352f21" d="M13 26h1M13 27h1" />
<path stroke="#554527" d="M12 27h1" />
</svg>