<svg xmlns="http://www.w3.org/2000/svg" viewBox="0 -0.5 30 45" shape-rendering="crispEdges">
<metadata>Made with Pixels to Svg https://codepen.io/shshaw/pen/XbxvNj</metadata>
<path stroke="#242424" d="M20 16h1M22 17h1M24 18h1" />
<path stroke="#1a1a1a" d="M22 16h1M21 17h1M24 19h1M23 21h2M23 22h2M19 27h1" />
<path stroke="#161616" d="M19 17h1M21 18h1M23 18h1" />
<path stroke="#0f0f0f" d="M20 17h1M22 18h1M19 26h1" />
<path stroke="#2c2c2c" d="M23 17h1M25 19h1M24 20h2" />
<path stroke="#443c2a" d="M18 18h1M19 19h1M21 19h1M18 20h2M21 20h1M22 21h1M18 22h1M22 22h1M22 24h1M22 25h2M24 26h1M20 27h1M23 27h1" />
<path stroke="#595c47" d="M19 18h1M18 19h1M22 19h1M23 20h1M18 21h1M23 23h1M19 24h1M24 25h1" />
<path stroke="#6d715f" d="M20 18h1M23 19h1" />
<path stroke="#f6f8df" d="M20 19h1M22 20h1M22 23h1M23 26h1" />
<path stroke="#d8dac5" d="M20 20h1M21 21h1M20 23h1" />
<path stroke="#eadbb5" d="M19 21h1M21 22h1M21 23h1M22 26h1" />
<path stroke="#a6a798" d="M20 21h1" />
<path stroke="#a6a494" d="M19 22h1M20 24h1" />
<path stroke="#d7ca9e" d="M20 22h1M20 25h1M21 26h1" />
<path stroke="#7f7764" d="M18 23h1M20 26h1M21 27h1" />
<path stroke="#ddd8c4" d="M19 23h1" />
<path stroke="#352f21" d="M18 24h1M19 25h1" />
<path stroke="#bebdab" d="M21 24h1M21 25h1M22 27h1" />
</svg>