<svg xmlns="http://www.w3.org/2000/svg" viewBox="0 -0.5 30 45" shape-rendering="crispEdges">
<metadata>Made with Pixels to Svg https://codepen.io/shshaw/pen/XbxvNj</metadata>
<path stroke="#0f0f0f" d="M19 26h1M19 28h1M19 29h1" />
<path stroke="#7f7764" d="M20 26h1M21 27h1M20 28h1" />
<path stroke="#d7ca9e" d="M21 26h1M22 28h1M22 29h1M21 31h1" />
<path stroke="#eadbb5" d="M22 26h1M23 29h1M20 30h1M21 32h1" />
<path stroke="#f6f8df" d="M23 26h1M24 29h1" />
<path stroke="#443c2a" d="M24 26h1M20 27h1M23 27h1M24 28h1M20 29h1M25 29h1M19 30h1M24 30h1M19 31h1M24 31h1M20 32h1M22 32h2M20 33h2" />
<path stroke="#1a1a1a" d="M19 27h1" />
<path stroke="#bebdab" d="M22 27h1M23 28h1M22 30h1" />
<path stroke="#a6a494" d="M21 28h1" />
<path stroke="#595c47" d="M25 28h1M20 31h1" />
<path stroke="#6d715f" d="M21 29h1" />
<path stroke="#d8dac5" d="M21 30h1M22 31h1" />
<path stroke="#ddd8c4" d="M23 30h1" />
<path stroke="#a6a798" d="M23 31h1" />
</svg>