<?xml version="1.0" encoding="UTF-8" ?>
<svg version="1.1" width="30" height="45" xmlns="http://www.w3.org/2000/svg" shape-rendering="crispEdges">
<rect x="9" y="26" width="1" height="1" fill="#23231C" />
<rect x="10" y="26" width="1" height="1" fill="#656048" />
<rect x="11" y="26" width="1" height="1" fill="#656048" />
<rect x="12" y="26" width="1" height="1" fill="#78715B" />
<rect x="13" y="26" width="1" height="1" fill="#520B26" />
<rect x="8" y="27" width="1" height="1" fill="#23231C" />
<rect x="9" y="27" width="1" height="1" fill="#656048" />
<rect x="10" y="27" width="1" height="1" fill="#656048" />
<rect x="11" y="27" width="1" height="1" fill="#656048" />
<rect x="12" y="27" width="1" height="1" fill="#78715B" />
<rect x="13" y="27" width="1" height="1" fill="#520B26" />
<rect x="8" y="28" width="1" height="1" fill="#393831" />
<rect x="9" y="28" width="1" height="1" fill="#393831" />
<rect x="10" y="28" width="1" height="1" fill="#393831" />
<rect x="11" y="28" width="1" height="1" fill="#78715B" />
<rect x="12" y="28" width="1" height="1" fill="#393831" />
<rect x="7" y="29" width="1" height="1" fill="#393831" />
<rect x="8" y="29" width="1" height="1" fill="#B1A583" />
<rect x="9" y="29" width="1" height="1" fill="#B1A583" />
<rect x="10" y="29" width="1" height="1" fill="#B1A583" />
<rect x="11" y="29" width="1" height="1" fill="#78715B" />
<rect x="12" y="29" width="1" height="1" fill="#393831" />
<rect x="7" y="30" width="1" height="1" fill="#393831" />
<rect x="8" y="30" width="1" height="1" fill="#B8B295" />
<rect x="9" y="30" width="1" height="1" fill="#B1A583" />
<rect x="10" y="30" width="1" height="1" fill="#B8B295" />
<rect x="11" y="30" width="1" height="1" fill="#78715B" />
<rect x="12" y="30" width="1" height="1" fill="#393831" />
<rect x="7" y="31" width="1" height="1" fill="#393831" />
<rect x="8" y="31" width="1" height="1" fill="#C4914C" />
<rect x="9" y="31" width="1" height="1" fill="#78715B" />
<rect x="10" y="31" width="1" height="1" fill="#C4914C" />
<rect x="11" y="31" width="1" height="1" fill="#393831" />
<rect x="8" y="32" width="1" height="1" fill="#393831" />
<rect x="9" y="32" width="1" height="1" fill="#393831" />
<rect x="10" y="32" width="1" height="1" fill="#393831" />
</svg>