<?xml version="1.0" encoding="UTF-8" ?>
<svg version="1.1" width="30" height="45" xmlns="http://www.w3.org/2000/svg" shape-rendering="crispEdges">
<rect x="20" y="26" width="1" height="1" fill="#520B26" />
<rect x="21" y="26" width="1" height="1" fill="#656048" />
<rect x="22" y="26" width="1" height="1" fill="#656048" />
<rect x="23" y="26" width="1" height="1" fill="#23231C" />
<rect x="20" y="27" width="1" height="1" fill="#520B26" />
<rect x="21" y="27" width="1" height="1" fill="#23231C" />
<rect x="22" y="27" width="1" height="1" fill="#23231C" />
<rect x="23" y="27" width="1" height="1" fill="#23231C" />
<rect x="19" y="28" width="1" height="1" fill="#393831" />
<rect x="20" y="28" width="1" height="1" fill="#393831" />
<rect x="21" y="28" width="1" height="1" fill="#B1A583" />
<rect x="22" y="28" width="1" height="1" fill="#B1A583" />
<rect x="23" y="28" width="1" height="1" fill="#78715B" />
<rect x="24" y="28" width="1" height="1" fill="#393831" />
<rect x="19" y="29" width="1" height="1" fill="#393831" />
<rect x="20" y="29" width="1" height="1" fill="#78715B" />
<rect x="21" y="29" width="1" height="1" fill="#B1A583" />
<rect x="22" y="29" width="1" height="1" fill="#B1A583" />
<rect x="23" y="29" width="1" height="1" fill="#B1A583" />
<rect x="24" y="29" width="1" height="1" fill="#393831" />
<rect x="19" y="30" width="1" height="1" fill="#393831" />
<rect x="20" y="30" width="1" height="1" fill="#A19678" />
<rect x="21" y="30" width="1" height="1" fill="#B8B295" />
<rect x="22" y="30" width="1" height="1" fill="#B1A583" />
<rect x="23" y="30" width="1" height="1" fill="#B8B295" />
<rect x="24" y="30" width="1" height="1" fill="#393831" />
<rect x="19" y="31" width="1" height="1" fill="#393831" />
<rect x="20" y="31" width="1" height="1" fill="#78715B" />
<rect x="21" y="31" width="1" height="1" fill="#C4914C" />
<rect x="22" y="31" width="1" height="1" fill="#78715B" />
<rect x="23" y="31" width="1" height="1" fill="#C4914C" />
<rect x="24" y="31" width="1" height="1" fill="#393831" />
<rect x="19" y="32" width="1" height="1" fill="#1D120C" />
<rect x="20" y="32" width="1" height="1" fill="#393831" />
<rect x="21" y="32" width="1" height="1" fill="#78715B" />
<rect x="22" y="32" width="1" height="1" fill="#393831" />
<rect x="23" y="32" width="1" height="1" fill="#393831" />
<rect x="20" y="33" width="1" height="1" fill="#1D120C" />
<rect x="21" y="33" width="1" height="1" fill="#1D120C" />
<rect x="22" y="33" width="1" height="1" fill="#393831" />
</svg>