<?xml version="1.0" encoding="UTF-8" ?>
<svg version="1.1" width="30" height="45" xmlns="http://www.w3.org/2000/svg" shape-rendering="crispEdges">
<rect x="19" y="17" width="1" height="1" fill="#393831" />
<rect x="20" y="17" width="1" height="1" fill="#393831" />
<rect x="21" y="17" width="1" height="1" fill="#393831" />
<rect x="22" y="17" width="1" height="1" fill="#393831" />
<rect x="18" y="18" width="1" height="1" fill="#393831" />
<rect x="19" y="18" width="1" height="1" fill="#B1A583" />
<rect x="20" y="18" width="1" height="1" fill="#B1A583" />
<rect x="21" y="18" width="1" height="1" fill="#78715B" />
<rect x="22" y="18" width="1" height="1" fill="#78715B" />
<rect x="23" y="18" width="1" height="1" fill="#393831" />
<rect x="17" y="19" width="1" height="1" fill="#393831" />
<rect x="18" y="19" width="1" height="1" fill="#B1A583" />
<rect x="19" y="19" width="1" height="1" fill="#B1A583" />
<rect x="20" y="19" width="1" height="1" fill="#78715B" />
<rect x="21" y="19" width="1" height="1" fill="#78715B" />
<rect x="22" y="19" width="1" height="1" fill="#393831" />
<rect x="23" y="19" width="1" height="1" fill="#393831" />
<rect x="24" y="19" width="1" height="1" fill="#393831" />
<rect x="17" y="20" width="1" height="1" fill="#B1A583" />
<rect x="18" y="20" width="1" height="1" fill="#393831" />
<rect x="19" y="20" width="1" height="1" fill="#78715B" />
<rect x="20" y="20" width="1" height="1" fill="#78715B" />
<rect x="21" y="20" width="1" height="1" fill="#393831" />
<rect x="22" y="20" width="1" height="1" fill="#78715B" />
<rect x="23" y="20" width="1" height="1" fill="#78715B" />
<rect x="24" y="20" width="1" height="1" fill="#393831" />
<rect x="17" y="21" width="1" height="1" fill="#B1A583" />
<rect x="18" y="21" width="1" height="1" fill="#78715B" />
<rect x="19" y="21" width="1" height="1" fill="#393831" />
<rect x="20" y="21" width="1" height="1" fill="#23231C" />
<rect x="21" y="21" width="1" height="1" fill="#78715B" />
<rect x="22" y="21" width="1" height="1" fill="#78715B" />
<rect x="23" y="21" width="1" height="1" fill="#78715B" />
<rect x="24" y="21" width="1" height="1" fill="#B1A583" />
<rect x="25" y="21" width="1" height="1" fill="#393831" />
<rect x="17" y="22" width="1" height="1" fill="#393831" />
<rect x="18" y="22" width="1" height="1" fill="#393831" />
<rect x="19" y="22" width="1" height="1" fill="#520B26" />
<rect x="20" y="22" width="1" height="1" fill="#23231C" />
<rect x="21" y="22" width="1" height="1" fill="#23231C" />
<rect x="22" y="22" width="1" height="1" fill="#B1A583" />
<rect x="23" y="22" width="1" height="1" fill="#B1A583" />
<rect x="24" y="22" width="1" height="1" fill="#393831" />
<rect x="25" y="22" width="1" height="1" fill="#393831" />
<rect x="19" y="23" width="1" height="1" fill="#520B26" />
<rect x="20" y="23" width="1" height="1" fill="#656048" />
<rect x="21" y="23" width="1" height="1" fill="#656048" />
<rect x="22" y="23" width="1" height="1" fill="#23231C" />
<rect x="23" y="23" width="1" height="1" fill="#23231C" />
<rect x="20" y="24" width="1" height="1" fill="#520B26" />
<rect x="21" y="24" width="1" height="1" fill="#656048" />
<rect x="22" y="24" width="1" height="1" fill="#656048" />
<rect x="23" y="24" width="1" height="1" fill="#23231C" />
<rect x="20" y="25" width="1" height="1" fill="#520B26" />
<rect x="21" y="25" width="1" height="1" fill="#E5B75E" />
<rect x="22" y="25" width="1" height="1" fill="#23231C" />
<rect x="23" y="25" width="1" height="1" fill="#E5B75E" />
</svg>