<?xml version="1.0" encoding="UTF-8" ?>
<svg version="1.1" width="30" height="45" xmlns="http://www.w3.org/2000/svg" shape-rendering="crispEdges">
<rect x="13" y="25" width="1" height="1" fill="#131313" />
<rect x="8" y="26" width="1" height="1" fill="#131313" />
<rect x="9" y="26" width="1" height="1" fill="#112163" />
<rect x="10" y="26" width="1" height="1" fill="#0A1541" />
<rect x="11" y="26" width="1" height="1" fill="#0A1541" />
<rect x="12" y="26" width="1" height="1" fill="#0A1541" />
<rect x="13" y="26" width="1" height="1" fill="#131313" />
<rect x="7" y="27" width="1" height="1" fill="#131313" />
<rect x="8" y="27" width="1" height="1" fill="#112163" />
<rect x="9" y="27" width="1" height="1" fill="#112163" />
<rect x="10" y="27" width="1" height="1" fill="#0A1541" />
<rect x="11" y="27" width="1" height="1" fill="#0A1541" />
<rect x="12" y="27" width="1" height="1" fill="#0A1541" />
<rect x="13" y="27" width="1" height="1" fill="#131313" />
<rect x="6" y="28" width="1" height="1" fill="#131313" />
<rect x="7" y="28" width="1" height="1" fill="#112163" />
<rect x="8" y="28" width="1" height="1" fill="#112163" />
<rect x="9" y="28" width="1" height="1" fill="#0A1541" />
<rect x="10" y="28" width="1" height="1" fill="#0A1541" />
<rect x="11" y="28" width="1" height="1" fill="#0A1541" />
<rect x="12" y="28" width="1" height="1" fill="#0A1541" />
<rect x="13" y="28" width="1" height="1" fill="#131313" />
<rect x="6" y="29" width="1" height="1" fill="#131313" />
<rect x="9" y="29" width="1" height="1" fill="#011025" />
<rect x="10" y="29" width="1" height="1" fill="#0A1541" />
<rect x="11" y="29" width="1" height="1" fill="#0A1541" />
<rect x="12" y="29" width="1" height="1" fill="#131313" />
<rect x="6" y="30" width="1" height="1" fill="#131313" />
<rect x="10" y="30" width="1" height="1" fill="#0A1541" />
<rect x="11" y="30" width="1" height="1" fill="#0A1541" />
<rect x="12" y="30" width="1" height="1" fill="#131313" />
<rect x="6" y="31" width="1" height="1" fill="#131313" />
<rect x="10" y="31" width="1" height="1" fill="#0A1541" />
<rect x="11" y="31" width="1" height="1" fill="#131313" />
<rect x="7" y="32" width="1" height="1" fill="#131313" />
<rect x="10" y="32" width="1" height="1" fill="#0A1541" />
<rect x="11" y="32" width="1" height="1" fill="#131313" />
<rect x="8" y="33" width="1" height="1" fill="#131313" />
<rect x="9" y="33" width="1" height="1" fill="#131313" />
<rect x="10" y="33" width="1" height="1" fill="#131313" />
</svg>