<?xml version="1.0" encoding="UTF-8" ?>
<svg version="1.1" width="30" height="45" xmlns="http://www.w3.org/2000/svg" shape-rendering="crispEdges">
<rect x="18" y="18" width="1" height="1" fill="#131313" />
<rect x="19" y="18" width="1" height="1" fill="#131313" />
<rect x="11" y="19" width="1" height="1" fill="#131313" />
<rect x="12" y="19" width="1" height="1" fill="#131313" />
<rect x="17" y="19" width="1" height="1" fill="#131313" />
<rect x="18" y="19" width="1" height="1" fill="#CCE2D8" />
<rect x="19" y="19" width="1" height="1" fill="#011025" />
<rect x="10" y="20" width="1" height="1" fill="#131313" />
<rect x="11" y="20" width="1" height="1" fill="#112163" />
<rect x="12" y="20" width="1" height="1" fill="#ACC6C0" />
<rect x="16" y="20" width="1" height="1" fill="#DDF6F0" />
<rect x="17" y="20" width="1" height="1" fill="#DDF6F0" />
<rect x="18" y="20" width="1" height="1" fill="#011025" />
<rect x="19" y="20" width="1" height="1" fill="#112163" />
<rect x="20" y="20" width="1" height="1" fill="#011025" />
<rect x="10" y="21" width="1" height="1" fill="#112163" />
<rect x="11" y="21" width="1" height="1" fill="#112163" />
<rect x="12" y="21" width="1" height="1" fill="#DDF6F0" />
<rect x="13" y="21" width="1" height="1" fill="#DDF6F0" />
<rect x="15" y="21" width="1" height="1" fill="#DDF6F0" />
<rect x="16" y="21" width="1" height="1" fill="#DDF6F0" />
<rect x="17" y="21" width="1" height="1" fill="#3F82B6" />
<rect x="18" y="21" width="1" height="1" fill="#011025" />
<rect x="19" y="21" width="1" height="1" fill="#0A1541" />
<rect x="20" y="21" width="1" height="1" fill="#0A1541" />
<rect x="21" y="21" width="1" height="1" fill="#011025" />
<rect x="10" y="22" width="1" height="1" fill="#112163" />
<rect x="11" y="22" width="1" height="1" fill="#3F82B6" />
<rect x="12" y="22" width="1" height="1" fill="#3F82B6" />
<rect x="13" y="22" width="1" height="1" fill="#ACC6C0" />
<rect x="14" y="22" width="1" height="1" fill="#DDF6F0" />
<rect x="15" y="22" width="1" height="1" fill="#DDF6F0" />
<rect x="16" y="22" width="1" height="1" fill="#3F82B6" />
<rect x="17" y="22" width="1" height="1" fill="#3F82B6" />
<rect x="18" y="22" width="1" height="1" fill="#011025" />
<rect x="19" y="22" width="1" height="1" fill="#0A1541" />
<rect x="20" y="22" width="1" height="1" fill="#0A1541" />
<rect x="21" y="22" width="1" height="1" fill="#0A1541" />
<rect x="22" y="22" width="1" height="1" fill="#011025" />
<rect x="10" y="23" width="1" height="1" fill="#0E4875" />
<rect x="11" y="23" width="1" height="1" fill="#3F82B6" />
<rect x="12" y="23" width="1" height="1" fill="#3F82B6" />
<rect x="13" y="23" width="1" height="1" fill="#DDF6F0" />
<rect x="14" y="23" width="1" height="1" fill="#DDF6F0" />
<rect x="15" y="23" width="1" height="1" fill="#3F82B6" />
<rect x="16" y="23" width="1" height="1" fill="#3F82B6" />
<rect x="17" y="23" width="1" height="1" fill="#3F82B6" />
<rect x="18" y="23" width="1" height="1" fill="#011025" />
<rect x="19" y="23" width="1" height="1" fill="#0A1541" />
<rect x="20" y="23" width="1" height="1" fill="#0A1541" />
<rect x="21" y="23" width="1" height="1" fill="#0A1541" />
<rect x="22" y="23" width="1" height="1" fill="#011025" />
<rect x="10" y="24" width="1" height="1" fill="#0E4875" />
<rect x="11" y="24" width="1" height="1" fill="#3F82B6" />
<rect x="12" y="24" width="1" height="1" fill="#ACC6C0" />
<rect x="13" y="24" width="1" height="1" fill="#DDF6F0" />
<rect x="14" y="24" width="1" height="1" fill="#3F82B6" />
<rect x="15" y="24" width="1" height="1" fill="#3F82B6" />
<rect x="16" y="24" width="1" height="1" fill="#3F82B6" />
<rect x="17" y="24" width="1" height="1" fill="#3F82B6" />
<rect x="18" y="24" width="1" height="1" fill="#011025" />
<rect x="19" y="24" width="1" height="1" fill="#0A1541" />
<rect x="20" y="24" width="1" height="1" fill="#0A1541" />
<rect x="21" y="24" width="1" height="1" fill="#0A1541" />
<rect x="22" y="24" width="1" height="1" fill="#011025" />
<rect x="10" y="25" width="1" height="1" fill="#0E4875" />
<rect x="11" y="25" width="1" height="1" fill="#3F82B6" />
<rect x="12" y="25" width="1" height="1" fill="#DDF6F0" />
<rect x="13" y="25" width="1" height="1" fill="#3F82B6" />
<rect x="14" y="25" width="1" height="1" fill="#3F82B6" />
<rect x="15" y="25" width="1" height="1" fill="#3F82B6" />
<rect x="16" y="25" width="1" height="1" fill="#3F82B6" />
<rect x="17" y="25" width="1" height="1" fill="#0E4875" />
<rect x="18" y="25" width="1" height="1" fill="#011025" />
<rect x="19" y="25" width="1" height="1" fill="#0A1541" />
<rect x="20" y="25" width="1" height="1" fill="#0A1541" />
<rect x="21" y="25" width="1" height="1" fill="#0A1541" />
<rect x="22" y="25" width="1" height="1" fill="#0A1541" />
<rect x="23" y="25" width="1" height="1" fill="#011025" />
<rect x="10" y="26" width="1" height="1" fill="#011025" />
<rect x="11" y="26" width="1" height="1" fill="#0E4875" />
<rect x="12" y="26" width="1" height="1" fill="#DDF6F0" />
<rect x="13" y="26" width="1" height="1" fill="#3F82B6" />
<rect x="14" y="26" width="1" height="1" fill="#3F82B6" />
<rect x="15" y="26" width="1" height="1" fill="#3F82B6" />
<rect x="16" y="26" width="1" height="1" fill="#0E4875" />
<rect x="17" y="26" width="1" height="1" fill="#0E4875" />
<rect x="18" y="26" width="1" height="1" fill="#011025" />
<rect x="19" y="26" width="1" height="1" fill="#0A1541" />
<rect x="20" y="26" width="1" height="1" fill="#0A1541" />
<rect x="21" y="26" width="1" height="1" fill="#0A1541" />
<rect x="22" y="26" width="1" height="1" fill="#0A1541" />
<rect x="23" y="26" width="1" height="1" fill="#011025" />
<rect x="10" y="27" width="1" height="1" fill="#011025" />
<rect x="11" y="27" width="1" height="1" fill="#8A0909" />
<rect x="12" y="27" width="1" height="1" fill="#B61010" />
<rect x="13" y="27" width="1" height="1" fill="#B61010" />
<rect x="14" y="27" width="1" height="1" fill="#B61010" />
<rect x="15" y="27" width="1" height="1" fill="#8A0909" />
<rect x="16" y="27" width="1" height="1" fill="#8A0909" />
<rect x="17" y="27" width="1" height="1" fill="#8A0909" />
<rect x="18" y="27" width="1" height="1" fill="#011025" />
<rect x="19" y="27" width="1" height="1" fill="#0A1541" />
<rect x="20" y="27" width="1" height="1" fill="#0A1541" />
<rect x="21" y="27" width="1" height="1" fill="#0A1541" />
<rect x="22" y="27" width="1" height="1" fill="#0A1541" />
<rect x="23" y="27" width="1" height="1" fill="#011025" />
<rect x="10" y="28" width="1" height="1" fill="#011025" />
<rect x="11" y="28" width="1" height="1" fill="#011025" />
<rect x="12" y="28" width="1" height="1" fill="#0E4875" />
<rect x="13" y="28" width="1" height="1" fill="#B61010" />
<rect x="14" y="28" width="1" height="1" fill="#8A0909" />
<rect x="15" y="28" width="1" height="1" fill="#0E4875" />
<rect x="16" y="28" width="1" height="1" fill="#0E4875" />
<rect x="17" y="28" width="1" height="1" fill="#0E4875" />
<rect x="18" y="28" width="1" height="1" fill="#011025" />
<rect x="19" y="28" width="1" height="1" fill="#0A1541" />
<rect x="20" y="28" width="1" height="1" fill="#0A1541" />
<rect x="21" y="28" width="1" height="1" fill="#0A1541" />
<rect x="22" y="28" width="1" height="1" fill="#0A1541" />
<rect x="23" y="28" width="1" height="1" fill="#011025" />
<rect x="24" y="28" width="1" height="1" fill="#011025" />
<rect x="10" y="29" width="1" height="1" fill="#0A1541" />
<rect x="11" y="29" width="1" height="1" fill="#011025" />
<rect x="12" y="29" width="1" height="1" fill="#0E4875" />
<rect x="13" y="29" width="1" height="1" fill="#B61010" />
<rect x="14" y="29" width="1" height="1" fill="#8A0909" />
<rect x="15" y="29" width="1" height="1" fill="#0E4875" />
<rect x="16" y="29" width="1" height="1" fill="#3F82B6" />
<rect x="17" y="29" width="1" height="1" fill="#3F82B6" />
<rect x="18" y="29" width="1" height="1" fill="#011025" />
<rect x="19" y="29" width="1" height="1" fill="#0A1541" />
<rect x="20" y="29" width="1" height="1" fill="#0A1541" />
<rect x="21" y="29" width="1" height="1" fill="#0A1541" />
<rect x="22" y="29" width="1" height="1" fill="#0A1541" />
<rect x="23" y="29" width="1" height="1" fill="#0A1541" />
<rect x="24" y="29" width="1" height="1" fill="#011025" />
<rect x="10" y="30" width="1" height="1" fill="#0A1541" />
<rect x="11" y="30" width="1" height="1" fill="#3F82B6" />
<rect x="12" y="30" width="1" height="1" fill="#42B8F2" />
<rect x="13" y="30" width="1" height="1" fill="#B61010" />
<rect x="14" y="30" width="1" height="1" fill="#8A0909" />
<rect x="15" y="30" width="1" height="1" fill="#3F82B6" />
<rect x="16" y="30" width="1" height="1" fill="#42B8F2" />
<rect x="17" y="30" width="1" height="1" fill="#3F82B6" />
<rect x="18" y="30" width="1" height="1" fill="#011025" />
<rect x="19" y="30" width="1" height="1" fill="#0A1541" />
<rect x="20" y="30" width="1" height="1" fill="#0A1541" />
<rect x="21" y="30" width="1" height="1" fill="#0A1541" />
<rect x="22" y="30" width="1" height="1" fill="#0A1541" />
<rect x="23" y="30" width="1" height="1" fill="#0A1541" />
<rect x="24" y="30" width="1" height="1" fill="#011025" />
<rect x="10" y="31" width="1" height="1" fill="#0A1541" />
<rect x="11" y="31" width="1" height="1" fill="#3F82B6" />
<rect x="12" y="31" width="1" height="1" fill="#42B8F2" />
<rect x="13" y="31" width="1" height="1" fill="#B61010" />
<rect x="14" y="31" width="1" height="1" fill="#8A0909" />
<rect x="15" y="31" width="1" height="1" fill="#3F82B6" />
<rect x="16" y="31" width="1" height="1" fill="#42B8F2" />
<rect x="17" y="31" width="1" height="1" fill="#3F82B6" />
<rect x="18" y="31" width="1" height="1" fill="#42B8F2" />
<rect x="19" y="31" width="1" height="1" fill="#011025" />
<rect x="20" y="31" width="1" height="1" fill="#0A1541" />
<rect x="21" y="31" width="1" height="1" fill="#0A1541" />
<rect x="22" y="31" width="1" height="1" fill="#0A1541" />
<rect x="23" y="31" width="1" height="1" fill="#0A1541" />
<rect x="24" y="31" width="1" height="1" fill="#011025" />
<rect x="10" y="32" width="1" height="1" fill="#0A1541" />
<rect x="11" y="32" width="1" height="1" fill="#3F82B6" />
<rect x="12" y="32" width="1" height="1" fill="#42B8F2" />
<rect x="13" y="32" width="1" height="1" fill="#B61010" />
<rect x="14" y="32" width="1" height="1" fill="#8A0909" />
<rect x="15" y="32" width="1" height="1" fill="#3F82B6" />
<rect x="16" y="32" width="1" height="1" fill="#42B8F2" />
<rect x="17" y="32" width="1" height="1" fill="#3F82B6" />
<rect x="18" y="32" width="1" height="1" fill="#42B8F2" />
<rect x="19" y="32" width="1" height="1" fill="#011025" />
<rect x="20" y="32" width="1" height="1" fill="#0A1541" />
<rect x="21" y="32" width="1" height="1" fill="#0A1541" />
<rect x="22" y="32" width="1" height="1" fill="#0A1541" />
<rect x="23" y="32" width="1" height="1" fill="#0A1541" />
<rect x="24" y="32" width="1" height="1" fill="#011025" />
<rect x="9" y="33" width="1" height="1" fill="#131313" />
<rect x="10" y="33" width="1" height="1" fill="#0A1541" />
<rect x="11" y="33" width="1" height="1" fill="#3F82B6" />
<rect x="12" y="33" width="1" height="1" fill="#42B8F2" />
<rect x="13" y="33" width="1" height="1" fill="#B61010" />
<rect x="14" y="33" width="1" height="1" fill="#8A0909" />
<rect x="15" y="33" width="1" height="1" fill="#3F82B6" />
<rect x="16" y="33" width="1" height="1" fill="#42B8F2" />
<rect x="17" y="33" width="1" height="1" fill="#3F82B6" />
<rect x="18" y="33" width="1" height="1" fill="#42B8F2" />
<rect x="19" y="33" width="1" height="1" fill="#011025" />
<rect x="20" y="33" width="1" height="1" fill="#0A1541" />
<rect x="21" y="33" width="1" height="1" fill="#0A1541" />
<rect x="22" y="33" width="1" height="1" fill="#0A1541" />
<rect x="23" y="33" width="1" height="1" fill="#0A1541" />
<rect x="24" y="33" width="1" height="1" fill="#011025" />
<rect x="9" y="34" width="1" height="1" fill="#131313" />
<rect x="10" y="34" width="1" height="1" fill="#0A1541" />
<rect x="11" y="34" width="1" height="1" fill="#3F82B6" />
<rect x="12" y="34" width="1" height="1" fill="#42B8F2" />
<rect x="13" y="34" width="1" height="1" fill="#B61010" />
<rect x="14" y="34" width="1" height="1" fill="#8A0909" />
<rect x="15" y="34" width="1" height="1" fill="#3F82B6" />
<rect x="16" y="34" width="1" height="1" fill="#42B8F2" />
<rect x="17" y="34" width="1" height="1" fill="#3F82B6" />
<rect x="18" y="34" width="1" height="1" fill="#42B8F2" />
<rect x="19" y="34" width="1" height="1" fill="#011025" />
<rect x="20" y="34" width="1" height="1" fill="#0A1541" />
<rect x="21" y="34" width="1" height="1" fill="#0A1541" />
<rect x="22" y="34" width="1" height="1" fill="#0A1541" />
<rect x="23" y="34" width="1" height="1" fill="#0A1541" />
<rect x="24" y="34" width="1" height="1" fill="#011025" />
<rect x="9" y="35" width="1" height="1" fill="#131313" />
<rect x="10" y="35" width="1" height="1" fill="#0A1541" />
<rect x="12" y="35" width="1" height="1" fill="#42B8F2" />
<rect x="13" y="35" width="1" height="1" fill="#B61010" />
<rect x="14" y="35" width="1" height="1" fill="#8A0909" />
<rect x="15" y="35" width="1" height="1" fill="#3F82B6" />
<rect x="16" y="35" width="1" height="1" fill="#42B8F2" />
<rect x="17" y="35" width="1" height="1" fill="#3F82B6" />
<rect x="18" y="35" width="1" height="1" fill="#42B8F2" />
<rect x="20" y="35" width="1" height="1" fill="#011025" />
<rect x="21" y="35" width="1" height="1" fill="#0A1541" />
<rect x="22" y="35" width="1" height="1" fill="#0A1541" />
<rect x="23" y="35" width="1" height="1" fill="#0A1541" />
<rect x="24" y="35" width="1" height="1" fill="#011025" />
<rect x="9" y="36" width="1" height="1" fill="#131313" />
<rect x="12" y="36" width="1" height="1" fill="#42B8F2" />
<rect x="13" y="36" width="1" height="1" fill="#B61010" />
<rect x="14" y="36" width="1" height="1" fill="#8A0909" />
<rect x="15" y="36" width="1" height="1" fill="#3F82B6" />
<rect x="16" y="36" width="1" height="1" fill="#42B8F2" />
<rect x="17" y="36" width="1" height="1" fill="#3F82B6" />
<rect x="18" y="36" width="1" height="1" fill="#42B8F2" />
<rect x="21" y="36" width="1" height="1" fill="#011025" />
<rect x="22" y="36" width="1" height="1" fill="#011025" />
<rect x="23" y="36" width="1" height="1" fill="#011025" />
<rect x="9" y="37" width="1" height="1" fill="#131313" />
<rect x="12" y="37" width="1" height="1" fill="#3F82B6" />
<rect x="13" y="37" width="1" height="1" fill="#B61010" />
<rect x="14" y="37" width="1" height="1" fill="#8A0909" />
<rect x="15" y="37" width="1" height="1" fill="#3F82B6" />
<rect x="16" y="37" width="1" height="1" fill="#42B8F2" />
<rect x="17" y="37" width="1" height="1" fill="#3F82B6" />
<rect x="18" y="37" width="1" height="1" fill="#42B8F2" />
<rect x="12" y="38" width="1" height="1" fill="#3F82B6" />
<rect x="13" y="38" width="1" height="1" fill="#B61010" />
<rect x="14" y="38" width="1" height="1" fill="#8A0909" />
<rect x="15" y="38" width="1" height="1" fill="#42B8F2" />
<rect x="16" y="38" width="1" height="1" fill="#3F82B6" />
<rect x="17" y="38" width="1" height="1" fill="#42B8F2" />
<rect x="18" y="38" width="1" height="1" fill="#3F82B6" />
<rect x="12" y="39" width="1" height="1" fill="#3F82B6" />
<rect x="13" y="39" width="1" height="1" fill="#B61010" />
<rect x="14" y="39" width="1" height="1" fill="#8A0909" />
<rect x="15" y="39" width="1" height="1" fill="#42B8F2" />
<rect x="16" y="39" width="1" height="1" fill="#3F82B6" />
<rect x="17" y="39" width="1" height="1" fill="#42B8F2" />
<rect x="18" y="39" width="1" height="1" fill="#3F82B6" />
<rect x="12" y="40" width="1" height="1" fill="#3F82B6" />
<rect x="13" y="40" width="1" height="1" fill="#42B8F2" />
<rect x="14" y="40" width="1" height="1" fill="#8A0909" />
<rect x="15" y="40" width="1" height="1" fill="#42B8F2" />
<rect x="16" y="40" width="1" height="1" fill="#3F82B6" />
<rect x="17" y="40" width="1" height="1" fill="#42B8F2" />
<rect x="18" y="40" width="1" height="1" fill="#3F82B6" />
<rect x="12" y="41" width="1" height="1" fill="#011025" />
<rect x="13" y="41" width="1" height="1" fill="#011025" />
<rect x="14" y="41" width="1" height="1" fill="#8A0909" />
<rect x="15" y="41" width="1" height="1" fill="#011025" />
<rect x="16" y="41" width="1" height="1" fill="#011025" />
<rect x="17" y="41" width="1" height="1" fill="#011025" />
<rect x="18" y="41" width="1" height="1" fill="#011025" />
</svg>