<?xml version="1.0" encoding="UTF-8" ?>
<svg version="1.1" width="30" height="45" xmlns="http://www.w3.org/2000/svg" shape-rendering="crispEdges">
<rect x="22" y="24" width="1" height="1" fill="#112163" />
<rect x="23" y="24" width="1" height="1" fill="#131313" />
<rect x="19" y="25" width="1" height="1" fill="#0A1541" />
<rect x="20" y="25" width="1" height="1" fill="#112163" />
<rect x="21" y="25" width="1" height="1" fill="#112163" />
<rect x="22" y="25" width="1" height="1" fill="#112163" />
<rect x="23" y="25" width="1" height="1" fill="#112163" />
<rect x="24" y="25" width="1" height="1" fill="#131313" />
<rect x="19" y="26" width="1" height="1" fill="#0A1541" />
<rect x="20" y="26" width="1" height="1" fill="#112163" />
<rect x="21" y="26" width="1" height="1" fill="#112163" />
<rect x="22" y="26" width="1" height="1" fill="#112163" />
<rect x="23" y="26" width="1" height="1" fill="#112163" />
<rect x="24" y="26" width="1" height="1" fill="#131313" />
<rect x="19" y="27" width="1" height="1" fill="#011025" />
<rect x="20" y="27" width="1" height="1" fill="#0A1541" />
<rect x="21" y="27" width="1" height="1" fill="#112163" />
<rect x="22" y="27" width="1" height="1" fill="#112163" />
<rect x="23" y="27" width="1" height="1" fill="#0A1541" />
<rect x="24" y="27" width="1" height="1" fill="#131313" />
<rect x="19" y="28" width="1" height="1" fill="#011025" />
<rect x="20" y="28" width="1" height="1" fill="#0A1541" />
<rect x="21" y="28" width="1" height="1" fill="#0A1541" />
<rect x="22" y="28" width="1" height="1" fill="#0A1541" />
<rect x="23" y="28" width="1" height="1" fill="#0A1541" />
<rect x="24" y="28" width="1" height="1" fill="#0A1541" />
<rect x="25" y="28" width="1" height="1" fill="#131313" />
<rect x="19" y="29" width="1" height="1" fill="#011025" />
<rect x="20" y="29" width="1" height="1" fill="#0A1541" />
<rect x="21" y="29" width="1" height="1" fill="#0A1541" />
<rect x="25" y="29" width="1" height="1" fill="#131313" />
<rect x="19" y="30" width="1" height="1" fill="#011025" />
<rect x="20" y="30" width="1" height="1" fill="#0A1541" />
<rect x="25" y="30" width="1" height="1" fill="#131313" />
<rect x="25" y="31" width="1" height="1" fill="#131313" />
<rect x="24" y="32" width="1" height="1" fill="#0A1541" />
</svg>