<?xml version="1.0" encoding="UTF-8" ?>
<svg version="1.1" width="30" height="45" xmlns="http://www.w3.org/2000/svg" shape-rendering="crispEdges">
<rect x="16" y="38" width="1" height="1" fill="#3F82B6" />
<rect x="17" y="38" width="1" height="1" fill="#42B8F2" />
<rect x="18" y="38" width="1" height="1" fill="#3F82B6" />
<rect x="19" y="38" width="1" height="1" fill="#42B8F2" />
<rect x="20" y="38" width="1" height="1" fill="#3F82B6" />
<rect x="21" y="38" width="1" height="1" fill="#42B8F2" />
<rect x="22" y="38" width="1" height="1" fill="#194877" />
<rect x="23" y="38" width="1" height="1" fill="#011025" />
<rect x="16" y="39" width="1" height="1" fill="#3F82B6" />
<rect x="17" y="39" width="1" height="1" fill="#42B8F2" />
<rect x="18" y="39" width="1" height="1" fill="#3F82B6" />
<rect x="19" y="39" width="1" height="1" fill="#42B8F2" />
<rect x="20" y="39" width="1" height="1" fill="#3F82B6" />
<rect x="21" y="39" width="1" height="1" fill="#42B8F2" />
<rect x="22" y="39" width="1" height="1" fill="#194877" />
<rect x="23" y="39" width="1" height="1" fill="#011025" />
<rect x="16" y="40" width="1" height="1" fill="#3F82B6" />
<rect x="17" y="40" width="1" height="1" fill="#42B8F2" />
<rect x="18" y="40" width="1" height="1" fill="#3F82B6" />
<rect x="19" y="40" width="1" height="1" fill="#42B8F2" />
<rect x="20" y="40" width="1" height="1" fill="#3F82B6" />
<rect x="21" y="40" width="1" height="1" fill="#42B8F2" />
<rect x="22" y="40" width="1" height="1" fill="#194877" />
<rect x="23" y="40" width="1" height="1" fill="#011025" />
<rect x="16" y="41" width="1" height="1" fill="#011025" />
<rect x="17" y="41" width="1" height="1" fill="#011025" />
<rect x="18" y="41" width="1" height="1" fill="#011025" />
<rect x="19" y="41" width="1" height="1" fill="#011025" />
<rect x="20" y="41" width="1" height="1" fill="#011025" />
<rect x="21" y="41" width="1" height="1" fill="#011025" />
<rect x="22" y="41" width="1" height="1" fill="#011025" />
<rect x="18" y="42" width="1" height="1" fill="#BEA6AD" />
<rect x="19" y="42" width="1" height="1" fill="#BEA6AD" />
<rect x="20" y="42" width="1" height="1" fill="#E6E0E0" />
<rect x="21" y="42" width="1" height="1" fill="#E6E0E0" />
</svg>