<?xml version="1.0" encoding="UTF-8" ?>
<svg version="1.1" width="30" height="45" xmlns="http://www.w3.org/2000/svg" shape-rendering="crispEdges">
<rect x="11" y="19" width="1" height="1" fill="#131313" />
<rect x="12" y="19" width="1" height="1" fill="#131313" />
<rect x="10" y="20" width="1" height="1" fill="#131313" />
<rect x="11" y="20" width="1" height="1" fill="#112163" />
<rect x="12" y="20" width="1" height="1" fill="#112163" />
<rect x="13" y="20" width="1" height="1" fill="#0A1541" />
<rect x="9" y="21" width="1" height="1" fill="#131313" />
<rect x="10" y="21" width="1" height="1" fill="#112163" />
<rect x="11" y="21" width="1" height="1" fill="#112163" />
<rect x="12" y="21" width="1" height="1" fill="#112163" />
<rect x="13" y="21" width="1" height="1" fill="#0A1541" />
<rect x="9" y="22" width="1" height="1" fill="#131313" />
<rect x="10" y="22" width="1" height="1" fill="#112163" />
<rect x="11" y="22" width="1" height="1" fill="#0A1541" />
<rect x="12" y="22" width="1" height="1" fill="#0A1541" />
<rect x="13" y="22" width="1" height="1" fill="#0A1541" />
<rect x="8" y="23" width="1" height="1" fill="#131313" />
<rect x="9" y="23" width="1" height="1" fill="#112163" />
<rect x="10" y="23" width="1" height="1" fill="#112163" />
<rect x="11" y="23" width="1" height="1" fill="#0A1541" />
<rect x="12" y="23" width="1" height="1" fill="#0A1541" />
<rect x="13" y="23" width="1" height="1" fill="#0A1541" />
<rect x="8" y="24" width="1" height="1" fill="#131313" />
<rect x="9" y="24" width="1" height="1" fill="#112163" />
<rect x="10" y="24" width="1" height="1" fill="#112163" />
<rect x="11" y="24" width="1" height="1" fill="#0A1541" />
<rect x="12" y="24" width="1" height="1" fill="#0A1541" />
<rect x="13" y="24" width="1" height="1" fill="#0A1541" />
<rect x="8" y="25" width="1" height="1" fill="#131313" />
<rect x="9" y="25" width="1" height="1" fill="#112163" />
<rect x="10" y="25" width="1" height="1" fill="#0A1541" />
<rect x="11" y="25" width="1" height="1" fill="#0A1541" />
<rect x="12" y="25" width="1" height="1" fill="#0A1541" />
<rect x="13" y="25" width="1" height="1" fill="#0A1541" />
<rect x="8" y="26" width="1" height="1" fill="#131313" />
<rect x="9" y="26" width="1" height="1" fill="#112163" />
<rect x="10" y="26" width="1" height="1" fill="#0A1541" />
<rect x="11" y="26" width="1" height="1" fill="#0A1541" />
<rect x="12" y="26" width="1" height="1" fill="#0A1541" />
<rect x="13" y="26" width="1" height="1" fill="#0A1541" />
<rect x="10" y="27" width="1" height="1" fill="#0A1541" />
<rect x="11" y="27" width="1" height="1" fill="#0A1541" />
<rect x="12" y="27" width="1" height="1" fill="#0A1541" />
</svg>