<svg xmlns="http://www.w3.org/2000/svg" viewBox="0 -0.5 30 45" shape-rendering="crispEdges">
<metadata>Made with Pixels to Svg https://codepen.io/shshaw/pen/XbxvNj</metadata>
<path stroke="#a4b6ca" d="M11 38h1M14 38h1M12 39h1M13 40h1M13 41h1" />
<path stroke="#273e62" d="M12 38h1M14 39h1" />
<path stroke="#213657" d="M13 38h1" />
<path stroke="#132035" d="M15 38h1" />
<path stroke="#d3e5f9" d="M11 39h1M12 40h1" />
<path stroke="#78879a" d="M13 39h1M14 40h1M14 41h1M13 42h1" />
<path stroke="#37373f" d="M15 39h1" />
<path stroke="#676d7d" d="M15 40h1M15 41h1" />
<path stroke="#b4c7d8" d="M12 41h1M12 42h1" />
<path stroke="#1a283f" d="M14 42h1" />
</svg>