<svg xmlns="http://www.w3.org/2000/svg" viewBox="0 -0.5 30 45" shape-rendering="crispEdges">
<metadata>Made with Pixels to Svg https://codepen.io/shshaw/pen/XbxvNj</metadata>
<path stroke="#1e375f" d="M10 32h1M10 33h1M10 34h1M10 35h1M10 36h1M10 37h1" />
<path stroke="#223c65" d="M11 32h1M11 33h1M11 34h1" />
<path stroke="#111823" d="M12 32h1M12 33h1M12 34h1M12 35h1M11 36h1M11 37h1M11 38h1M9 39h2" />
<path stroke="#2b3648" d="M9 33h1M9 34h1M9 36h1M9 38h1" />
<path stroke="#172235" d="M13 34h1" />
<path stroke="#354459" d="M9 35h1M9 37h1" />
<path stroke="#23416e" d="M11 35h1" />
<path stroke="#1a283f" d="M13 35h1M12 36h1" />
<path stroke="#213657" d="M13 36h1" />
<path stroke="#132035" d="M14 36h1M14 37h1" />
<path stroke="#676d7d" d="M12 37h1" />
<path stroke="#1b2f4d" d="M13 37h1" />
<path stroke="rgba(50,98,171,0.3568627450980392)" d="M10 38h1" />
</svg>