<svg xmlns="http://www.w3.org/2000/svg" viewBox="0 -0.5 30 45" shape-rendering="crispEdges">
<metadata>Made with Pixels to Svg https://codepen.io/shshaw/pen/XbxvNj</metadata>
<path stroke="#20395f" d="M18 19h1M18 20h1" />
<path stroke="#1c2331" d="M19 19h1M20 20h1M21 21h1M21 22h1M22 23h1M22 24h1M22 25h1M23 26h1" />
<path stroke="#223c65" d="M19 20h1M18 21h1M20 21h1" />
<path stroke="#30538a" d="M17 21h1M21 23h1" />
<path stroke="#23416e" d="M19 21h1M18 22h1M20 23h1M19 24h1" />
<path stroke="#273e62" d="M17 22h1" />
<path stroke="#2a4a7b" d="M19 22h2M19 23h1M20 24h2M20 25h1M21 26h1" />
<path stroke="#274574" d="M18 23h1" />
<path stroke="#111a29" d="M18 24h1M19 25h1M19 26h1M19 27h1" />
<path stroke="#7b98bf" d="M21 25h1M22 26h1" />
<path stroke="#546a8d" d="M20 26h1M20 27h1" />
<path stroke="#99b6dd" d="M21 27h1" />
<path stroke="#211b22" d="M22 27h2" />
</svg>