<svg xmlns="http://www.w3.org/2000/svg" viewBox="0 -0.5 30 45" shape-rendering="crispEdges">
<metadata>Made with Pixels to Svg https://codepen.io/shshaw/pen/XbxvNj</metadata>
<path stroke="#111823" d="M14 32h1M14 33h1M14 34h1M14 35h1M15 36h1M16 37h2M18 38h2M20 39h3" />
<path stroke="#20395f" d="M15 32h5M15 33h4M20 33h1M15 34h2" />
<path stroke="#2b3648" d="M20 32h1M21 33h1M21 35h1M22 38h1" />
<path stroke="#223c65" d="M19 33h1M17 34h1M15 35h2M18 35h1" />
<path stroke="#23416e" d="M18 34h1M17 36h1M19 36h1" />
<path stroke="#2a4a7b" d="M19 34h1M16 36h1M18 36h1M20 37h1" />
<path stroke="#1e375f" d="M20 34h1M20 35h1M20 36h1M21 37h1M21 38h1" />
<path stroke="#354459" d="M21 34h1M22 36h1M22 37h1" />
<path stroke="#274574" d="M17 35h1M19 35h1M18 37h1" />
<path stroke="rgba(50,98,171,0.3568627450980392)" d="M21 36h1" />
<path stroke="#546a8d" d="M19 37h1" />
<path stroke="#5f7a9f" d="M20 38h1" />
</svg>