<svg xmlns="http://www.w3.org/2000/svg" viewBox="0 -0.5 30 45" shape-rendering="crispEdges">
<metadata>Made with Pixels to Svg https://codepen.io/shshaw/pen/XbxvNj</metadata>
<path stroke="#4e4541" d="M17 13h2M12 14h1M14 14h2" />
<path stroke="#41322b" d="M19 13h1M11 14h1M16 14h1M19 14h1M13 15h1" />
<path stroke="#f6e5dd" d="M20 13h1M13 14h1" />
<path stroke="#dfd4cf" d="M17 14h1M20 14h1" />
<path stroke="#a4958f" d="M18 14h1M12 15h1M14 15h1" />
<path stroke="#c9dff2" d="M15 15h1M17 15h1M14 16h1M16 16h1M15 17h1" />
<path stroke="#edffff" d="M16 15h1M12 16h1M15 16h1" />
<path stroke="#b6cbe2" d="M18 15h1M13 16h1M16 17h1" />
<path stroke="#707789" d="M19 15h1M18 16h1" />
<path stroke="#8395ab" d="M17 16h1M12 17h1M14 17h1" />
<path stroke="#5e5553" d="M13 17h1" />
</svg>