<svg xmlns="http://www.w3.org/2000/svg" viewBox="0 -0.5 30 45" shape-rendering="crispEdges">
<metadata>Made with Pixels to Svg https://codepen.io/shshaw/pen/XbxvNj</metadata>
<path stroke="#1c2331" d="M9 26h1M9 27h1" />
<path stroke="#676d7d" d="M10 26h1" />
<path stroke="#7b98bf" d="M11 26h1M11 28h1" />
<path stroke="#111a29" d="M12 26h1M12 27h1M12 28h1" />
<path stroke="#a4b6ca" d="M10 27h1" />
<path stroke="#2a4a7b" d="M11 27h1" />
<path stroke="#211b22" d="M8 28h2M7 29h1M10 29h2M7 30h1M11 30h1M7 31h1M10 31h1M8 32h2" />
<path stroke="#d3e5f9" d="M10 28h1M8 29h1" />
<path stroke="#c9dff2" d="M9 29h1M8 30h1M10 30h1" />
<path stroke="#b6cbe2" d="M9 30h1" />
<path stroke="#78879a" d="M8 31h1" />
<path stroke="#707789" d="M9 31h1" />
</svg>