<svg xmlns="http://www.w3.org/2000/svg" viewBox="0 -0.5 30 45" shape-rendering="crispEdges">
<metadata>Made with Pixels to Svg https://codepen.io/shshaw/pen/XbxvNj</metadata>
<path stroke="#261912" d="M18 18h1M18 19h1M18 30h2M18 32h1" />
<path stroke="#9a9997" d="M17 19h1M13 31h1M18 31h2" />
<path stroke="#352821" d="M19 19h1M14 20h1M17 20h1M12 26h1M14 26h1M10 30h1M17 30h1M10 32h1M17 32h1M11 33h1M13 33h1M15 33h2" />
<path stroke="#41322b" d="M10 20h1M12 20h1M11 21h1M16 21h1M12 22h1M14 22h1M12 27h1M14 27h1M12 30h1M14 30h1M11 31h1" />
<path stroke="#d7d2d3" d="M11 20h1M15 20h1M11 32h1M15 32h2" />
<path stroke="#564a45" d="M13 20h1" />
<path stroke="#aeaaa8" d="M16 20h1M14 21h1M13 22h1M13 25h1M13 27h1M10 31h1M17 31h1" />
<path stroke="#20395f" d="M18 20h1" />
<path stroke="#223c65" d="M19 20h2M18 21h1M20 21h1" />
<path stroke="#23395c" d="M10 21h1M20 22h1" />
<path stroke="#dfd4cf" d="M12 21h1M13 30h1M13 32h1" />
<path stroke="#ffffff" d="M13 21h1M13 26h1M12 32h1M14 32h1" />
<path stroke="#4e4541" d="M15 21h1M12 31h1M14 31h3M12 33h1M14 33h1" />
<path stroke="#30538a" d="M17 21h1" />
<path stroke="#23416e" d="M19 21h1M18 22h2" />
<path stroke="#1a283f" d="M10 22h1M10 23h1M20 23h1M10 24h1M19 25h1M11 26h1M11 27h1M19 27h1M11 28h1M11 29h1M18 29h1" />
<path stroke="#2a4a7b" d="M11 22h1M15 22h2" />
<path stroke="#273e62" d="M17 22h1M11 23h1M15 23h3M15 25h2M15 26h2M15 27h2M15 28h1M12 29h1M14 29h2" />
<path stroke="#c9dff2" d="M12 23h1M14 23h1" />
<path stroke="#edffff" d="M13 23h1M13 28h1" />
<path stroke="#274574" d="M18 23h2" />
<path stroke="#213657" d="M11 24h2M14 24h4M12 25h1M14 25h1M17 25h2M17 26h1M17 27h2M12 28h1M16 28h2M13 29h1M16 29h1M15 30h1" />
<path stroke="#1b2f4d" d="M13 24h1M11 25h1M18 26h1M18 28h1M17 29h1M11 30h1M16 30h1" />
<path stroke="#111a29" d="M18 24h1M20 24h1" />
<path stroke="#1c2331" d="M19 24h1M10 25h1M19 26h1M19 28h1M19 29h1" />
<path stroke="#2f4c79" d="M14 28h1" />
</svg>