<svg xmlns="http://www.w3.org/2000/svg" viewBox="0 -0.5 30 45" shape-rendering="crispEdges">
<metadata>Made with Pixels to Svg https://codepen.io/shshaw/pen/XbxvNj</metadata>
<path stroke="#111a29" d="M19 26h1M19 27h1M19 28h1M19 29h1" />
<path stroke="#546a8d" d="M20 26h1M20 27h1" />
<path stroke="#2a4a7b" d="M21 26h1" />
<path stroke="#7b98bf" d="M22 26h1M20 28h1" />
<path stroke="#1c2331" d="M23 26h1" />
<path stroke="#99b6dd" d="M21 27h1" />
<path stroke="#211b22" d="M22 27h2M21 28h1M24 28h1M20 29h1M24 29h1M19 30h1M24 30h1M19 31h1M24 31h1M20 32h1M22 32h2M20 33h2" />
<path stroke="#b6cbe2" d="M22 28h1M22 29h2M22 30h1" />
<path stroke="#a4b6ca" d="M23 28h1M21 29h1" />
<path stroke="#d3e5f9" d="M20 30h1" />
<path stroke="#c9dff2" d="M21 30h1M21 31h1" />
<path stroke="#78879a" d="M23 30h1M23 31h1" />
<path stroke="#707789" d="M22 31h1M21 32h1" />
</svg>