<svg xmlns="http://www.w3.org/2000/svg" viewBox="0 -0.5 30 45" shape-rendering="crispEdges">
<metadata>Made with Pixels to Svg https://codepen.io/shshaw/pen/XbxvNj</metadata>
<path stroke="#1c2331" d="M11 19h2M10 20h1M13 20h1M13 21h1M13 22h1M13 23h1M13 24h1M10 25h1M13 25h1M9 26h1M9 27h1" />
<path stroke="#20395f" d="M11 20h1M12 21h1" />
<path stroke="#23416e" d="M12 20h1M11 21h1M12 23h1" />
<path stroke="#23395c" d="M10 21h1" />
<path stroke="#1a283f" d="M10 22h1M10 23h1M10 24h1" />
<path stroke="#2a4a7b" d="M11 22h1M11 23h1M11 24h1M11 25h1M11 27h1" />
<path stroke="#30538a" d="M12 22h1" />
<path stroke="#546a8d" d="M12 24h1" />
<path stroke="#7b98bf" d="M12 25h1M11 26h1M11 28h1" />
<path stroke="#676d7d" d="M10 26h1" />
<path stroke="#111a29" d="M12 26h1M12 27h1" />
<path stroke="#a4b6ca" d="M10 27h1" />
</svg>