<svg xmlns="http://www.w3.org/2000/svg" viewBox="0 -0.5 30 45" shape-rendering="crispEdges">
<metadata>Made with Pixels to Svg https://codepen.io/shshaw/pen/XbxvNj</metadata>
<path stroke="#78879a" d="M20 37h2M20 38h1M19 39h1M19 40h1M19 41h1M20 42h1" />
<path stroke="#132035" d="M17 38h1" />
<path stroke="#273e62" d="M18 38h2M18 39h1" />
<path stroke="#d3e5f9" d="M21 38h1M21 39h1M21 40h1" />
<path stroke="#37373f" d="M17 39h1" />
<path stroke="#a4b6ca" d="M20 39h1M20 40h1M20 41h1" />
<path stroke="#676d7d" d="M18 40h1M18 41h1M19 42h1" />
<path stroke="#b4c7d8" d="M21 41h1M21 42h1" />
<path stroke="#1a283f" d="M18 42h1" />
</svg>