<?xml version="1.0" encoding="UTF-8" ?>
<svg version="1.1" width="30" height="45" xmlns="http://www.w3.org/2000/svg" shape-rendering="crispEdges">
<rect x="11" y="19" width="1" height="1" fill="#090F15" />
<rect x="12" y="19" width="1" height="1" fill="#090F15" />
<rect x="17" y="19" width="1" height="1" fill="#090F15" />
<rect x="18" y="19" width="1" height="1" fill="#090F15" />
<rect x="11" y="20" width="1" height="1" fill="#327CBB" />
<rect x="12" y="20" width="1" height="1" fill="#172532" />
<rect x="13" y="20" width="1" height="1" fill="#090F15" />
<rect x="14" y="20" width="1" height="1" fill="#090F15" />
<rect x="15" y="20" width="1" height="1" fill="#090F15" />
<rect x="16" y="20" width="1" height="1" fill="#090F15" />
<rect x="17" y="20" width="1" height="1" fill="#090F15" />
<rect x="18" y="20" width="1" height="1" fill="#274782" />
<rect x="19" y="20" width="1" height="1" fill="#172532" />
<rect x="10" y="21" width="1" height="1" fill="#327CBB" />
<rect x="11" y="21" width="1" height="1" fill="#327CBB" />
<rect x="12" y="21" width="1" height="1" fill="#274782" />
<rect x="13" y="21" width="1" height="1" fill="#172532" />
<rect x="14" y="21" width="1" height="1" fill="#090F15" />
<rect x="15" y="21" width="1" height="1" fill="#090F15" />
<rect x="16" y="21" width="1" height="1" fill="#327CBB" />
<rect x="17" y="21" width="1" height="1" fill="#274782" />
<rect x="18" y="21" width="1" height="1" fill="#274782" />
<rect x="19" y="21" width="1" height="1" fill="#172532" />
<rect x="10" y="22" width="1" height="1" fill="#327CBB" />
<rect x="11" y="22" width="1" height="1" fill="#327CBB" />
<rect x="12" y="22" width="1" height="1" fill="#327CBB" />
<rect x="13" y="22" width="1" height="1" fill="#274782" />
<rect x="14" y="22" width="1" height="1" fill="#327CBB" />
<rect x="15" y="22" width="1" height="1" fill="#327CBB" />
<rect x="16" y="22" width="1" height="1" fill="#274782" />
<rect x="17" y="22" width="1" height="1" fill="#274782" />
<rect x="18" y="22" width="1" height="1" fill="#172532" />
<rect x="10" y="23" width="1" height="1" fill="#274782" />
<rect x="11" y="23" width="1" height="1" fill="#327CBB" />
<rect x="12" y="23" width="1" height="1" fill="#327CBB" />
<rect x="13" y="23" width="1" height="1" fill="#327CBB" />
<rect x="14" y="23" width="1" height="1" fill="#274782" />
<rect x="15" y="23" width="1" height="1" fill="#327CBB" />
<rect x="16" y="23" width="1" height="1" fill="#274782" />
<rect x="17" y="23" width="1" height="1" fill="#274782" />
<rect x="18" y="23" width="1" height="1" fill="#252021" />
<rect x="10" y="24" width="1" height="1" fill="#090F15" />
<rect x="11" y="24" width="1" height="1" fill="#274782" />
<rect x="12" y="24" width="1" height="1" fill="#327CBB" />
<rect x="13" y="24" width="1" height="1" fill="#327CBB" />
<rect x="14" y="24" width="1" height="1" fill="#327CBB" />
<rect x="15" y="24" width="1" height="1" fill="#172532" />
<rect x="16" y="24" width="1" height="1" fill="#274782" />
<rect x="17" y="24" width="1" height="1" fill="#252021" />
<rect x="18" y="24" width="1" height="1" fill="#252021" />
<rect x="11" y="25" width="1" height="1" fill="#523D38" />
<rect x="12" y="25" width="1" height="1" fill="#090F15" />
<rect x="13" y="25" width="1" height="1" fill="#090F15" />
<rect x="14" y="25" width="1" height="1" fill="#090F15" />
<rect x="15" y="25" width="1" height="1" fill="#090F15" />
<rect x="16" y="25" width="1" height="1" fill="#523D38" />
<rect x="17" y="25" width="1" height="1" fill="#523D38" />
<rect x="18" y="25" width="1" height="1" fill="#252021" />
<rect x="11" y="26" width="1" height="1" fill="#523D38" />
<rect x="12" y="26" width="1" height="1" fill="#523D38" />
<rect x="13" y="26" width="1" height="1" fill="#523D38" />
<rect x="14" y="26" width="1" height="1" fill="#523D38" />
<rect x="15" y="26" width="1" height="1" fill="#523D38" />
<rect x="16" y="26" width="1" height="1" fill="#523D38" />
<rect x="17" y="26" width="1" height="1" fill="#252021" />
<rect x="18" y="26" width="1" height="1" fill="#090F15" />
<rect x="19" y="26" width="1" height="1" fill="#0C090D" />
<rect x="11" y="27" width="1" height="1" fill="#090F15" />
<rect x="12" y="27" width="1" height="1" fill="#090F15" />
<rect x="13" y="27" width="1" height="1" fill="#252021" />
<rect x="14" y="27" width="1" height="1" fill="#252021" />
<rect x="15" y="27" width="1" height="1" fill="#252021" />
<rect x="16" y="27" width="1" height="1" fill="#090F15" />
<rect x="17" y="27" width="1" height="1" fill="#090F15" />
<rect x="18" y="27" width="1" height="1" fill="#252021" />
<rect x="19" y="27" width="1" height="1" fill="#0C090D" />
<rect x="11" y="28" width="1" height="1" fill="#523D38" />
<rect x="12" y="28" width="1" height="1" fill="#523D38" />
<rect x="13" y="28" width="1" height="1" fill="#523D38" />
<rect x="14" y="28" width="1" height="1" fill="#523D38" />
<rect x="15" y="28" width="1" height="1" fill="#523D38" />
<rect x="16" y="28" width="1" height="1" fill="#252021" />
<rect x="17" y="28" width="1" height="1" fill="#252021" />
<rect x="18" y="28" width="1" height="1" fill="#1A1A1C" />
<rect x="19" y="28" width="1" height="1" fill="#0C090D" />
<rect x="11" y="29" width="1" height="1" fill="#523D38" />
<rect x="12" y="29" width="1" height="1" fill="#523D38" />
<rect x="13" y="29" width="1" height="1" fill="#523D38" />
<rect x="14" y="29" width="1" height="1" fill="#523D38" />
<rect x="15" y="29" width="1" height="1" fill="#523D38" />
<rect x="16" y="29" width="1" height="1" fill="#252021" />
<rect x="17" y="29" width="1" height="1" fill="#1A1A1C" />
<rect x="18" y="29" width="1" height="1" fill="#0C0913" />
<rect x="19" y="29" width="1" height="1" fill="#0C090D" />
<rect x="11" y="30" width="1" height="1" fill="#1D0907" />
<rect x="12" y="30" width="1" height="1" fill="#1D0907" />
<rect x="13" y="30" width="1" height="1" fill="#252021" />
<rect x="14" y="30" width="1" height="1" fill="#252021" />
<rect x="15" y="30" width="1" height="1" fill="#252021" />
<rect x="16" y="30" width="1" height="1" fill="#1A1A1C" />
<rect x="17" y="30" width="1" height="1" fill="#1D0907" />
<rect x="18" y="30" width="1" height="1" fill="#1D0907" />
<rect x="19" y="30" width="1" height="1" fill="#0C090D" />
<rect x="10" y="31" width="1" height="1" fill="#1D0907" />
<rect x="11" y="31" width="1" height="1" fill="#523D38" />
<rect x="12" y="31" width="1" height="1" fill="#523D38" />
<rect x="13" y="31" width="1" height="1" fill="#1D0907" />
<rect x="14" y="31" width="1" height="1" fill="#1D0907" />
<rect x="15" y="31" width="1" height="1" fill="#1D0907" />
<rect x="16" y="31" width="1" height="1" fill="#1D0907" />
<rect x="17" y="31" width="1" height="1" fill="#252021" />
<rect x="18" y="31" width="1" height="1" fill="#252021" />
<rect x="19" y="31" width="1" height="1" fill="#252021" />
<rect x="20" y="31" width="1" height="1" fill="#0C090D" />
<rect x="11" y="32" width="1" height="1" fill="#1D0907" />
<rect x="12" y="32" width="1" height="1" fill="#1D0907" />
<rect x="13" y="32" width="1" height="1" fill="#8A6253" />
<rect x="14" y="32" width="1" height="1" fill="#8A6253" />
<rect x="15" y="32" width="1" height="1" fill="#523D38" />
<rect x="16" y="32" width="1" height="1" fill="#523D38" />
<rect x="17" y="32" width="1" height="1" fill="#1D0907" />
<rect x="18" y="32" width="1" height="1" fill="#1D0907" />
<rect x="19" y="32" width="1" height="1" fill="#252021" />
<rect x="20" y="32" width="1" height="1" fill="#0C090D" />
<rect x="13" y="33" width="1" height="1" fill="#1D0907" />
<rect x="14" y="33" width="1" height="1" fill="#1D0907" />
<rect x="15" y="33" width="1" height="1" fill="#1D0907" />
<rect x="16" y="33" width="1" height="1" fill="#1D0907" />
<rect x="17" y="33" width="1" height="1" fill="#8A6253" />
<rect x="18" y="33" width="1" height="1" fill="#523D38" />
<rect x="19" y="33" width="1" height="1" fill="#252021" />
<rect x="20" y="33" width="1" height="1" fill="#1A1A1C" />
<rect x="21" y="33" width="1" height="1" fill="#0C090D" />
<rect x="16" y="34" width="1" height="1" fill="#1D0907" />
<rect x="17" y="34" width="1" height="1" fill="#252021" />
<rect x="18" y="34" width="1" height="1" fill="#523D38" />
<rect x="19" y="34" width="1" height="1" fill="#523D38" />
<rect x="20" y="34" width="1" height="1" fill="#252021" />
<rect x="21" y="34" width="1" height="1" fill="#1A1A1C" />
<rect x="22" y="34" width="1" height="1" fill="#0C090D" />
<rect x="17" y="35" width="1" height="1" fill="#1D0907" />
<rect x="18" y="35" width="1" height="1" fill="#1D0907" />
<rect x="19" y="35" width="1" height="1" fill="#1D0907" />
<rect x="20" y="35" width="1" height="1" fill="#1D0907" />
<rect x="21" y="35" width="1" height="1" fill="#1D0907" />
<rect x="22" y="35" width="1" height="1" fill="#0C090D" />
</svg>