<?xml version="1.0" encoding="UTF-8" ?>
<svg version="1.1" width="30" height="45" xmlns="http://www.w3.org/2000/svg" shape-rendering="crispEdges">
<rect x="11" y="43" width="1" height="1" fill="#2E1910" />
<rect x="12" y="43" width="1" height="1" fill="#523D38" />
<rect x="13" y="43" width="1" height="1" fill="#1A1A1C" />
<rect x="14" y="43" width="1" height="1" fill="#1D0907" />
<rect x="19" y="43" width="1" height="1" fill="#1D0907" />
<rect x="20" y="43" width="1" height="1" fill="#1A1A1C" />
<rect x="21" y="43" width="1" height="1" fill="#523D38" />
<rect x="22" y="43" width="1" height="1" fill="#1D0907" />
<rect x="10" y="44" width="1" height="1" fill="#2E1910" />
<rect x="11" y="44" width="1" height="1" fill="#523D38" />
<rect x="12" y="44" width="1" height="1" fill="#252021" />
<rect x="13" y="44" width="1" height="1" fill="#1A1A1C" />
<rect x="14" y="44" width="1" height="1" fill="#1D0907" />
<rect x="19" y="44" width="1" height="1" fill="#1D0907" />
<rect x="20" y="44" width="1" height="1" fill="#1A1A1C" />
<rect x="21" y="44" width="1" height="1" fill="#252021" />
<rect x="22" y="44" width="1" height="1" fill="#523D38" />
<rect x="23" y="44" width="1" height="1" fill="#1D0907" />
</svg>