<?xml version="1.0" encoding="UTF-8" ?>
<svg version="1.1" width="30" height="45" xmlns="http://www.w3.org/2000/svg" shape-rendering="crispEdges">
<rect x="10" y="26" width="1" height="1" fill="#050C14" />
<rect x="11" y="26" width="1" height="1" fill="#202E3C" />
<rect x="12" y="26" width="1" height="1" fill="#0E1A29" />
<rect x="13" y="26" width="1" height="1" fill="#0C090D" />
<rect x="9" y="27" width="1" height="1" fill="#050C14" />
<rect x="10" y="27" width="1" height="1" fill="#202E3C" />
<rect x="11" y="27" width="1" height="1" fill="#202E3C" />
<rect x="12" y="27" width="1" height="1" fill="#0E1A29" />
<rect x="13" y="27" width="1" height="1" fill="#0C090D" />
<rect x="8" y="28" width="1" height="1" fill="#0C090D" />
<rect x="9" y="28" width="1" height="1" fill="#202E3C" />
<rect x="10" y="28" width="1" height="1" fill="#0E1A29" />
<rect x="11" y="28" width="1" height="1" fill="#0E1A29" />
<rect x="12" y="28" width="1" height="1" fill="#0C090D" />
<rect x="7" y="29" width="1" height="1" fill="#0C090D" />
<rect x="8" y="29" width="1" height="1" fill="#704D43" />
<rect x="9" y="29" width="1" height="1" fill="#583C3D" />
<rect x="10" y="29" width="1" height="1" fill="#463035" />
<rect x="12" y="29" width="1" height="1" fill="#0C090D" />
<rect x="7" y="30" width="1" height="1" fill="#0C090D" />
<rect x="8" y="30" width="1" height="1" fill="#704D43" />
<rect x="9" y="30" width="1" height="1" fill="#583C3D" />
<rect x="10" y="30" width="1" height="1" fill="#342B2E" />
<rect x="11" y="30" width="1" height="1" fill="#392B2B" />
<rect x="12" y="30" width="1" height="1" fill="#0C090D" />
<rect x="7" y="31" width="1" height="1" fill="#0C090D" />
<rect x="8" y="31" width="1" height="1" fill="#463035" />
<rect x="9" y="31" width="1" height="1" fill="#342B2E" />
<rect x="11" y="31" width="1" height="1" fill="#0C090D" />
<rect x="8" y="32" width="1" height="1" fill="#0C090D" />
<rect x="9" y="32" width="1" height="1" fill="#0C090D" />
<rect x="10" y="32" width="1" height="1" fill="#0C090D" />
</svg>