<svg xmlns="http://www.w3.org/2000/svg" viewBox="0 -0.5 59 45" shape-rendering="crispEdges">
<path stroke="rgba(245,242,198,0.3137254901960784)" d="M1 12h3M50 12h3M6 13h2M46 13h2M9 14h3M42 14h3M19 18h1M34 18h1M12 19h1M20 19h1M33 19h1M41 19h1M11 20h1M21 20h1M32 20h1M42 20h1M10 21h1M22 21h1M31 21h1M43 21h1M9 22h1M23 22h1M30 22h1M44 22h1M8 23h1M17 23h1M24 23h1M29 23h1M36 23h1M45 23h1M17 24h1M36 24h1M17 25h1M36 25h1M16 26h1M37 26h1M16 27h1M37 27h1M15 28h1M38 28h1M15 29h1M38 29h1M15 30h1M38 30h1M15 31h1M38 31h1" />
<path stroke="rgba(32,28,44,0.8352941176470589)" d="M1 13h1M52 13h1M3 14h1M50 14h1M5 15h1M48 15h1M7 16h2M45 16h2M9 17h5M40 17h5M11 18h1M42 18h1M16 19h1M37 19h1M16 20h1M37 20h1M14 21h4M36 21h4M12 22h2M16 22h2M36 22h2M40 22h2M11 23h1M20 23h2M32 23h2M42 23h1M9 24h1M20 24h1M22 24h2M30 24h2M33 24h1M44 24h1M7 25h1M19 25h1M34 25h1M46 25h1M18 26h1M35 26h1M18 27h1M35 27h1M17 29h1M36 29h1M16 31h1M37 31h1" />
<path stroke="rgba(31,28,43,0.5764705882352941)" d="M2 13h1M51 13h1M4 14h1M49 14h1M6 15h1M15 15h1M38 15h1M47 15h1M12 16h3M39 16h3M18 17h1M35 17h1M12 18h2M18 18h1M35 18h1M40 18h2M11 19h1M18 19h1M35 19h1M42 19h1M15 20h1M18 20h1M35 20h1M38 20h1M18 21h2M34 21h2M19 22h2M33 22h2M10 23h1M16 23h1M37 23h1M43 23h1M8 24h1M16 24h1M37 24h1M45 24h1M6 25h1M47 25h1M17 28h1M36 28h1M16 30h1M37 30h1" />
</svg>