<svg xmlns="http://www.w3.org/2000/svg" viewBox="0 -0.5 59 45" shape-rendering="crispEdges">
<path stroke="current" d="M9 0h3M23 0h2M39 0h3M8 1h2M19 1h5M41 1h2M7 2h2M17 2h5M29 2h4M42 2h2M6 3h2M15 3h5M26 3h10M43 3h2M5 4h3M13 4h5M25 4h3M31 4h8M43 4h3M4 5h3M11 5h6M33 5h8M44 5h3M4 6h3M10 6h6M36 6h6M44 6h3M3 7h3M12 7h4M36 7h3M44 7h4M2 8h4M12 8h3M37 8h2M45 8h4M1 9h4M11 9h3M37 9h3M46 9h4M1 10h4M11 10h3M37 10h4M46 10h4M0 11h5M10 11h3M38 11h3M46 11h5M0 12h2M3 12h2M10 12h3M38 12h4M46 12h2M49 12h2M0 13h1M3 13h3M9 13h4M39 13h4M46 13h2M50 13h1M3 14h3M8 14h6M38 14h6M46 14h3M4 15h2M8 15h1M11 15h4M37 15h4M43 15h1M46 15h3M4 16h2M8 16h1M12 16h5M35 16h5M43 16h1M46 16h3M4 17h2M13 17h5M34 17h5M46 17h3M4 18h3M15 18h5M32 18h5M46 18h3M4 19h4M16 19h5M31 19h5M44 19h5M4 20h7M18 20h4M30 20h4M40 20h9M4 21h12M19 21h4M29 21h4M35 21h14M4 22h2M8 22h15M29 22h15M47 22h2M5 23h2M14 23h6M32 23h6M46 23h2M6 24h1M8 24h1M46 24h1M8 25h1M14 25h8M29 25h6M43 25h1M7 26h12M31 26h8M43 26h1M6 27h11M35 27h7M43 27h2M6 28h5M21 28h2M29 28h3M38 28h8M5 29h3M18 29h4M30 29h5M41 29h5M4 30h3M15 30h6M32 30h5M38 30h1M44 30h3M3 31h4M14 31h4M34 31h6M45 31h3M2 32h4M13 32h4M36 32h5M45 32h4M2 33h2M12 33h4M38 33h3M46 33h4M2 34h3M9 34h1M11 34h3M40 34h2M44 34h1M48 34h2M3 35h3M9 35h1M11 35h3M40 35h5M48 35h2M3 36h3M9 36h4M41 36h4M47 36h2M4 37h3M10 37h3M42 37h2M46 37h3M5 38h4M11 38h2M41 38h3M45 38h3M6 39h2M11 39h3M40 39h3M44 39h3M6 40h2M11 40h3M40 40h3M44 40h2M6 41h1M12 41h3M39 41h3M44 41h2M6 42h1M13 42h3M38 42h3M45 42h1M14 43h2M38 43h2M45 43h1M15 44h1M38 44h1" />
</svg>