<svg xmlns="http://www.w3.org/2000/svg" viewBox="0 -0.5 59 45" shape-rendering="crispEdges">
<path stroke="rgba(32,28,44,0.8352941176470589)" d="M9 0h3M23 0h2M39 0h3M8 1h2M22 1h2M41 1h2M8 2h1M42 2h1M19 3h1M26 3h3M7 4h1M17 4h1M25 4h3M31 4h1M13 5h1M33 5h1M38 5h1M13 6h3M36 6h3M3 7h1M15 7h1M36 7h1M44 7h1M2 8h1M5 8h1M12 8h1M45 8h1M48 8h1M1 9h1M3 9h2M39 9h1M46 9h2M49 9h1M2 10h1M11 10h1M40 10h1M48 10h1M2 11h1M10 11h1M40 11h1M48 11h1M10 12h1M41 12h1M3 13h1M10 13h3M39 13h3M3 14h1M10 14h1M13 14h1M38 14h1M41 14h1M48 14h1M48 15h1M15 18h1M32 18h1M36 18h1M4 19h1M6 19h1M16 19h1M31 19h1M35 19h1M46 19h1M48 19h1M4 20h2M47 20h2M6 21h1M32 21h1M46 21h1M8 22h2M42 22h2M14 23h1M37 23h1M7 27h2M16 27h1M8 28h1M43 28h2M43 29h1M6 31h1M15 31h1M38 31h1M5 32h1M36 32h1M45 32h1M2 33h2M15 33h1M38 33h1M46 33h1M48 34h2M13 35h1M40 35h1M10 36h1M43 36h1M10 37h1M43 37h1M5 38h1M6 39h1M46 39h1M6 40h2M45 40h1M6 41h1M14 41h1M39 41h1M44 41h2M6 42h1M13 42h3M38 42h3M45 42h1M14 43h2M38 43h2M45 43h1M15 44h1M38 44h1" />
<path stroke="rgba(31,28,43,0.5764705882352941)" d="M7 2h1M21 2h1M7 3h1M18 3h1M13 4h1M32 4h1M38 4h1M43 4h1M6 5h1M12 5h1M14 5h3M34 5h2M39 5h1M6 6h1M12 6h1M39 6h2M44 6h1M5 7h1M12 7h2M37 7h2M45 7h1M47 7h1M38 8h1M2 9h1M11 9h1M48 9h1M1 10h1M3 10h1M37 10h1M39 10h1M49 10h1M1 11h1M3 11h1M11 11h1M1 12h1M3 12h1M11 12h2M38 12h1M49 12h1M0 13h1M9 13h1M50 13h1M9 14h1M11 14h2M42 14h1M11 15h1M37 15h1M40 15h1M8 16h1M12 16h1M16 16h1M35 16h1M39 16h1M48 16h1M4 17h1M13 17h2M17 17h1M34 17h1M37 17h2M48 17h1M4 18h1M19 18h1M48 18h1M17 19h1M20 19h1M44 19h1M6 20h1M10 20h1M18 20h1M21 20h1M33 20h1M41 20h1M7 21h2M14 21h2M36 21h2M44 21h2M47 21h2M4 22h1M10 22h3M40 22h2M48 22h1M5 23h1M15 23h4M32 23h5M47 23h1M6 24h1M46 24h1M14 25h2M34 25h1M8 26h3M17 26h2M31 26h1M38 26h1M6 27h1M13 27h3M35 27h1M41 27h1M44 27h1M9 28h2M38 28h2M45 28h1M7 29h1M18 29h2M34 29h1M41 29h2M6 30h1M15 30h2M32 30h1M44 30h1M5 31h1M34 31h2M37 31h1M45 31h1M4 32h1M15 32h2M37 32h2M40 32h1M46 32h1M14 33h1M47 33h1M2 34h1M11 34h1M13 34h1M3 35h1M43 35h1M3 36h1M11 36h2M41 36h2M44 36h1M4 37h1M42 37h1M48 37h1M8 38h1M43 38h1M47 38h1M7 39h1M13 39h1M42 39h1M11 40h1M42 40h1M12 41h1M41 41h1" />
<path stroke="rgba(255,244,213,0.45098039215686275)" d="M37 4h1M36 5h2M14 7h1M46 10h2M39 14h2M5 19h1M45 19h1M47 19h1M46 20h1M7 28h1M42 28h1M44 29h1M14 31h1M39 32h1M39 33h1M3 34h1M12 35h1M12 37h1" />
</svg>