<svg xmlns="http://www.w3.org/2000/svg" viewBox="0 -0.5 59 45" shape-rendering="crispEdges">
<metadata>Made with Pixels to Svg https://codepen.io/shshaw/pen/XbxvNj</metadata>
<path stroke="rgba(31,28,43,0.5764705882352941)" d="M0 5h2M2 6h1M7 6h1M3 7h3M7 7h1M11 7h1M5 8h1M8 8h2M11 8h1M2 9h2M6 9h1M12 9h1M4 10h4M13 10h2M6 11h3M15 11h2M8 12h2M17 12h1M3 13h2M12 13h1M17 13h1M4 14h2M9 14h1M11 14h1M14 14h1M16 14h1M5 15h3M10 15h1M16 15h1M10 16h3M16 16h1M13 17h1M17 17h1M12 18h1M17 18h1M5 19h1M11 19h2M18 19h2M6 20h2M10 20h1M13 20h1M20 20h2M8 21h2M14 21h2M22 21h2M5 22h3M13 22h1M15 22h3M24 22h1M7 23h2M12 23h1M19 23h1M24 23h1M9 24h3M16 24h1M21 24h1M24 24h1M15 25h1M20 25h1M23 25h1M13 26h2M18 26h2M22 26h1M10 27h3M18 27h1M21 27h1M16 28h2M20 28h1M13 29h3M17 29h1M19 29h1M27 29h5M17 30h2M32 30h1M33 31h1M33 32h1M33 33h1M33 34h1M43 36h1M33 37h1M40 37h3M34 38h1M35 39h1M38 39h1" />
<path stroke="rgba(40,32,65,0.24705882352941178)" d="M6 5h2M0 6h2M5 6h1M10 6h2M0 7h1M9 7h1M1 8h1M6 8h1M4 9h2M8 9h2M1 10h1M10 10h1M2 11h2M9 11h1M11 11h2M3 12h2M10 12h1M13 12h2M5 13h2M9 13h1M11 13h1M15 13h2M6 14h3M2 15h2M11 15h3M15 15h1M3 16h2M8 16h2M15 16h1M4 17h6M12 17h1M14 17h1M16 17h1M5 18h1M10 18h2M13 18h1M16 18h1M6 19h4M13 19h1M15 19h1M4 20h2M11 20h2M14 20h2M4 21h1M10 21h1M13 21h1M16 21h2M20 21h2M8 22h2M12 22h1M14 22h1M18 22h2M22 22h2M10 23h2M13 23h1M16 23h1M18 23h1M20 23h2M23 23h1M6 24h1M12 24h1M15 24h1M17 24h1M20 24h1M7 25h4M13 25h2M18 25h2M22 25h1M11 26h2M16 26h2M21 26h1M15 27h1M17 27h1M20 27h1M10 28h6M19 28h1M27 28h4M18 29h1M34 33h1M34 34h1M33 35h1M43 35h1M33 36h1M40 36h3M34 37h1M35 38h1M38 38h1M36 39h2" />
<path stroke="rgba(255,246,212,0.4470588235294118)" d="M6 6h1M2 7h1M10 7h1M3 8h1M2 10h1M9 10h1M4 11h1M14 11h1M12 12h1M16 12h1M14 13h1M4 15h1M14 15h1M15 17h1M17 19h1M18 20h2M38 36h1M40 38h1" />
<path stroke="rgba(255,234,184,0.23921568627450981)" d="M1 7h1M6 7h1M2 8h1M4 8h1M7 8h1M10 8h1M7 9h1M10 9h2M3 10h1M8 10h1M11 10h2M5 11h1M10 11h1M13 11h1M5 12h3M11 12h1M15 12h1M7 13h2M10 13h1M13 13h1M10 14h1M12 14h2M15 14h1M8 15h2M5 16h3M13 16h2M10 17h2M6 18h4M14 18h2M10 19h1M14 19h1M16 19h1M8 20h2M16 20h2M5 21h3M11 21h2M18 21h2M10 22h2M20 22h2M9 23h1M14 23h2M17 23h1M22 23h1M7 24h2M13 24h2M18 24h2M22 24h2M11 25h2M16 25h2M21 25h1M15 26h1M20 26h1M13 27h2M16 27h1M19 27h1M18 28h1M32 29h1M34 31h1M43 34h1M41 35h1M39 36h1M38 37h1M39 38h1" />
</svg>