<svg xmlns="http://www.w3.org/2000/svg" viewBox="0 -0.5 59 45" shape-rendering="crispEdges">
<path stroke="rgba(255,244,213,0.45098039215686275)" d="M22 14h8M32 14h3M21 15h8M31 15h2M35 15h1M21 16h8M31 16h1M33 16h2M21 17h8M31 17h1M33 17h2M21 18h8M31 18h1M33 18h2M21 19h8M31 19h2M35 19h1M22 20h8M32 20h3" />
<path stroke="rgba(31,28,43,0.5764705882352941)" d="M35 14h1M36 15h1M36 16h1M36 17h1M36 18h1M36 19h1M35 20h1M31 21h5M34 22h1M34 23h1M34 24h3M34 25h1M34 26h1M35 27h1M35 28h1M35 29h1M34 30h1" />
<path stroke="rgba(40,36,64,0.25098039215686274)" d="M29 17h2M29 18h2M29 19h2M30 20h2M22 21h9M31 22h3M31 23h3M35 23h1M31 24h3M31 25h3M35 25h2M31 26h3M35 26h2M31 27h4M31 28h4M22 29h1M31 29h4M23 30h2M27 30h3M31 30h3" />
<path stroke="rgba(34,29,47,0.6823529411764706)" d="M30 30h1" />
</svg>