<svg xmlns="http://www.w3.org/2000/svg" viewBox="0 -0.5 59 45" shape-rendering="crispEdges">
<metadata>Made with Pixels to Svg https://codepen.io/shshaw/pen/XbxvNj</metadata>
<path stroke="rgba(255,246,212,0.4470588235294118)" d="M27 28h1M29 28h1M31 28h1M33 29h1M34 30h1M35 32h1M35 34h1M36 36h1M37 38h1M38 39h1M43 39h1M40 40h1" />
<path stroke="rgba(31,28,43,0.5764705882352941)" d="M26 29h1M28 29h1M30 29h1M32 30h1M33 31h1M34 33h1M34 35h1M35 37h1M36 39h1M37 40h1M42 40h1M39 41h1M41 41h1" />
<path stroke="rgba(255,234,184,0.23921568627450981)" d="M27 29h1M29 29h1M31 29h1M34 31h1M35 33h1M35 35h1M36 37h1M38 40h1M43 40h1M40 41h1M42 41h1" />
</svg>