<svg xmlns="http://www.w3.org/2000/svg" viewBox="0 -0.5 59 45" shape-rendering="crispEdges">
<metadata>Made with Pixels to Svg https://codepen.io/shshaw/pen/XbxvNj</metadata>
<path stroke="rgba(255,246,212,0.4470588235294118)" d="M20 7h2M28 7h3M18 8h2M31 8h2M13 9h4M34 9h4M11 10h2M38 10h3M9 11h2M15 11h1M35 11h1M41 11h2M8 12h1M13 12h2M36 12h2M43 12h2M7 13h1M12 13h1M38 13h1M45 13h2M6 14h1M11 14h1M39 14h1M47 14h1M5 15h1M10 15h1M40 15h1M48 15h1M5 16h1M9 16h1M41 16h1M49 16h1M4 17h1M42 17h1M50 17h1M4 18h1M8 18h1M13 18h1M18 18h1M32 18h1M37 18h1M43 18h1M51 18h1M4 19h1M13 19h1M21 19h1M29 19h1M37 19h1M43 19h1M52 19h1M3 20h1M7 20h1M16 20h1M34 20h1M38 20h1M44 20h1M53 20h1M7 21h1M12 21h1M39 21h1M45 21h1M2 22h1M6 22h1M12 22h1M16 22h1M35 22h1M39 22h1M45 22h1M54 22h1M6 23h1M11 23h1M16 23h1M35 23h1M40 23h1M46 23h1M46 24h1" />
<path stroke="rgba(40,32,65,0.24705882352941178)" d="M21 8h1M29 8h1M19 9h1M31 9h1M14 10h1M16 10h1M34 10h1M36 10h1M11 11h2M38 11h2M9 12h2M40 12h2M8 13h1M43 13h1M7 14h1M45 14h1M46 15h1M6 16h1M48 16h1M5 18h1M50 18h1M19 19h2M30 19h2M51 19h1M21 20h1M29 20h1M3 23h1M53 23h1M3 24h1M53 24h1" />
<path stroke="rgba(255,234,184,0.23921568627450981)" d="M20 9h1M22 9h1M27 9h1M30 9h1M17 10h3M22 10h1M27 10h1M31 10h3M14 11h1M16 11h1M34 11h1M36 11h1M19 13h1M31 13h1M18 14h1M32 14h1M16 15h1M18 15h1M32 15h1M34 15h1M15 16h1M18 16h1M32 16h1M35 16h1M9 17h1M14 17h1M18 17h1M32 17h1M36 17h1M9 18h1M8 19h1M28 19h1M13 20h1M28 20h1M3 21h1M16 21h1M21 21h1M29 21h1M33 21h1M35 21h1M53 21h1M17 22h1M34 22h1M2 23h1M54 23h1M6 24h1M11 24h1M15 24h1M36 24h1M40 24h1M6 25h1M11 25h1M15 25h1M36 25h1M41 25h1M47 25h1M5 26h1M11 26h1M41 26h1M47 26h1M5 27h1M11 27h1M15 27h1M36 27h1M42 27h1M48 27h1M5 28h1M11 28h1M42 28h1M48 28h1M5 29h1M16 29h1M35 29h1M48 29h1M5 30h1M49 30h1M5 31h1M49 31h1M5 32h1M49 32h1M5 33h1M49 33h1M5 34h1M50 34h1M5 35h1M50 35h1M6 36h1M50 36h1M49 37h1" />
<path stroke="rgba(31,28,43,0.5764705882352941)" d="M21 9h1M28 9h2M20 10h1M28 10h1M30 10h1M17 11h1M19 11h2M30 11h2M33 11h1M15 12h2M18 12h1M32 12h1M34 12h2M14 13h2M18 13h1M32 13h1M35 13h2M13 14h1M17 14h1M33 14h1M37 14h1M12 15h1M17 15h1M33 15h1M38 15h1M11 16h1M17 16h1M33 16h1M39 16h1M10 17h1M16 17h2M33 17h2M40 17h1M10 18h1M15 18h1M17 18h1M33 18h1M35 18h1M41 18h1M14 19h1M18 19h1M32 19h1M36 19h1M9 20h1M18 20h3M30 20h3M20 21h1M28 21h1M30 21h1M43 21h1M8 22h1M13 22h1M20 22h2M28 22h3M38 22h1M7 23h1M17 23h1M34 23h1M44 23h1M12 24h1M39 24h1M45 24h1M7 25h1M16 25h1M35 25h1M12 26h1M40 26h1M46 26h1M12 27h1M16 27h1M35 27h1M41 27h1M6 28h1M17 28h1M34 28h1M12 29h1M41 29h1M47 29h1M17 30h1M34 30h1M6 31h1M48 32h1M5 36h1M6 37h1M50 37h1M49 38h1" />
</svg>