<svg xmlns="http://www.w3.org/2000/svg" viewBox="0 -0.5 59 45" shape-rendering="crispEdges">
<path stroke="current" d="M0 12h4M50 12h5M1 13h7M46 13h7M3 14h9M42 14h9M5 15h11M38 15h11M7 16h8M39 16h8M9 17h5M18 17h1M35 17h1M40 17h5M11 18h5M18 18h2M34 18h2M38 18h5M11 19h6M18 19h3M33 19h3M37 19h6M10 20h7M18 20h4M32 20h4M37 20h7M9 21h14M31 21h14M8 22h6M16 22h8M30 22h8M40 22h6M7 23h5M16 23h9M29 23h9M42 23h5M6 24h4M16 24h5M22 24h4M28 24h4M33 24h5M44 24h4M5 25h3M16 25h4M34 25h4M46 25h3M16 26h3M35 26h3M15 27h4M35 27h4M15 28h3M36 28h3M15 29h3M36 29h3M15 30h2M37 30h2M15 31h2M37 31h2M15 32h1M38 32h1M15 33h1M38 33h1" />
</svg>