<svg xmlns="http://www.w3.org/2000/svg" viewBox="0 -0.5 30 45" shape-rendering="crispEdges">
<metadata>Made with Pixels to Svg https://codepen.io/shshaw/pen/XbxvNj</metadata>
<path stroke="rgba(31,28,43,0.5764705882352941)" d="M13 10h4M12 11h1M11 12h1M16 12h1M10 13h1M15 13h1M10 14h1M12 14h3M11 15h1M10 16h1M10 17h1M20 17h1M10 18h1M20 18h1M20 19h1M17 23h1" />
<path stroke="rgba(32,28,45,0.8313725490196079)" d="M17 10h1M18 11h1M19 12h1M16 13h1M20 13h1M15 14h2M20 14h1M10 15h1M12 15h3M17 15h1M20 15h1M9 16h1M11 16h1M17 16h1M20 16h1M9 17h1M18 17h1M21 17h1M9 18h1M18 18h1M21 18h1M10 19h2M18 19h1M21 19h1M11 20h2M17 20h1M20 20h1M16 21h1M19 21h1M16 22h1M18 22h1M16 23h1M18 23h1M17 24h1M19 24h1M18 25h2" />
<path stroke="rgba(30,26,43,0.23137254901960785)" d="M16 11h2M15 12h1M18 12h1M13 13h2M19 13h1M18 16h1M19 20h1M18 21h1" />
</svg>