<svg xmlns="http://www.w3.org/2000/svg" viewBox="0 -0.5 30 45" shape-rendering="crispEdges">
<path stroke="rgba(32,28,44,0.8352941176470589)" d="M19 6h3M18 7h1M22 7h1M17 8h1M23 8h1M16 9h3M23 9h1M11 10h1M18 10h2M23 10h1M10 11h1M19 11h1M23 11h1M9 12h1M22 12h1M9 13h1M12 13h2M20 13h1M22 13h1M9 14h1M11 14h1M14 14h1M20 14h1M23 14h2M9 15h2M15 15h3M20 15h2M24 15h1M9 16h2M20 16h1M22 16h2M9 17h1M20 17h1M9 18h1M20 18h1M10 19h1M21 19h1M11 20h2M19 20h1M21 20h1M11 21h1M17 21h2M20 21h1M22 21h1M20 22h2M21 23h2" />
<path stroke="rgba(31,28,43,0.5764705882352941)" d="M19 9h2M12 10h2M16 10h2M20 10h2M11 11h1M18 11h1M20 11h2M10 12h1M15 12h1M19 12h3M16 13h2M21 13h1M17 14h2M21 14h2M19 15h1M22 15h2M19 16h1M10 17h1M19 17h1M10 18h1M19 18h1M11 19h1M19 19h2M18 20h1M20 20h1M21 21h1" />
</svg>