<svg xmlns="http://www.w3.org/2000/svg" viewBox="0 -0.5 30 45" shape-rendering="crispEdges">
<path stroke="rgba(31,28,43,0.5764705882352941)" d="M12 7h1M13 8h1M15 8h1M19 8h1M8 9h1M11 9h1M14 9h1M18 9h1M9 10h1M19 10h1M9 11h2M14 11h1M21 11h1M8 12h2M13 12h1M22 12h1M8 13h1M20 13h2M7 14h1M11 14h1M15 14h1M21 14h1M16 15h2M22 15h1M9 16h1M23 16h1M9 17h2M19 17h1M10 18h1M19 18h1M21 18h1M18 19h1M22 19h1M20 20h1" />
<path stroke="rgba(40,36,64,0.25098039215686274)" d="M12 8h1M9 9h2M12 9h1M10 10h2M10 12h1M9 13h2M8 14h3M9 15h2M10 16h1M17 16h2M17 17h2M17 18h2M20 18h1M20 19h2M17 20h1M21 20h2M16 21h1M22 21h1" />
<path stroke="rgba(32,28,44,0.8352941176470589)" d="M17 10h1M13 13h1M16 13h1M22 14h1M8 15h1M8 16h1M19 16h1M20 17h3M9 18h1M10 19h2M16 19h1M19 19h1M11 20h2M18 20h2" />
</svg>