<svg xmlns="http://www.w3.org/2000/svg" viewBox="0 -0.5 30 45" shape-rendering="crispEdges">
<metadata>Made with Pixels to Svg https://codepen.io/shshaw/pen/XbxvNj</metadata>
<path stroke="rgba(31,28,43,0.5764705882352941)" d="M18 5h5M17 6h1M23 6h1M16 7h1M24 7h1M25 8h1M13 9h5M19 9h1M25 9h1M12 10h1M18 10h1M25 10h1M10 11h2M19 11h1M25 11h1M9 12h1M20 12h1M9 13h1M21 13h1M24 13h1M9 14h1M21 14h1M21 15h1M22 17h1M20 18h1M22 18h1M24 18h2M18 19h1M23 19h1" />
<path stroke="rgba(32,28,45,0.8313725490196079)" d="M15 8h3M18 9h1M19 10h1M25 12h1M24 14h1M10 15h1M23 15h1M20 16h1M22 16h1M20 17h1M19 18h1M20 19h1M25 19h1M21 20h1M24 20h1M22 21h2" />
<path stroke="rgba(30,26,43,0.23137254901960785)" d="M20 8h2M20 9h1M20 10h1M20 11h1M19 12h1M21 12h1M24 12h1M20 13h1M16 14h1M20 14h1M23 14h1M17 15h2M20 15h1M22 15h1M19 16h1M21 16h1M19 17h1M18 18h1M22 20h1" />
</svg>