<svg xmlns="http://www.w3.org/2000/svg" viewBox="0 -0.5 30 45" shape-rendering="crispEdges">
<path stroke="current" d="M8 6h4M21 6h5M7 7h6M20 7h7M6 8h8M19 8h9M5 9h12M19 9h10M5 10h24M4 11h17M23 11h7M4 12h16M24 12h6M4 13h5M10 13h11M25 13h5M4 14h5M10 14h2M14 14h7M25 14h5M4 15h4M10 15h1M16 15h5M26 15h4M4 16h4M10 16h1M17 16h3M26 16h4M4 17h4M10 17h1M17 17h3M26 17h4M4 18h4M10 18h1M17 18h2M26 18h4M5 19h3M10 19h2M17 19h2M26 19h3M5 20h3M10 20h2M17 20h1M26 20h3M5 21h4M25 21h4M6 22h3M25 22h3M6 23h3M25 23h3M6 24h3M25 24h3M6 25h3M25 25h3M6 26h3M25 26h3M6 27h3M25 27h3M6 28h2M25 28h3M6 29h2M25 29h3M25 30h2M25 31h2M25 32h2M25 33h2M7 34h2M25 34h2M3 35h1M6 35h3M25 35h3M3 36h5M26 36h4M3 37h5M26 37h4M4 38h3M27 38h3" />
</svg>