<svg xmlns="http://www.w3.org/2000/svg" viewBox="0 -0.5 30 45" shape-rendering="crispEdges">
<path stroke="rgba(32,28,44,0.8352941176470589)" d="M15 5h3M15 6h1M18 6h1M23 6h2M16 7h1M19 7h1M21 7h2M24 7h1M16 8h1M19 8h2M24 8h1M13 9h4M19 9h1M24 9h1M11 10h1M18 10h1M23 10h1M10 11h1M19 11h1M21 11h2M9 12h1M21 12h1M23 12h1M9 13h1M12 13h1M20 13h1M24 13h1M11 14h1M13 14h1M20 14h1M25 14h1M10 15h1M15 15h2M20 15h4M25 15h1M19 16h2M24 16h2M19 17h1M18 18h1M18 19h1M12 20h1M18 20h1M12 21h1M17 21h1M11 22h1M17 22h1M11 23h1" />
<path stroke="rgba(31,28,43,0.5764705882352941)" d="M17 7h2M17 8h2M17 9h2M12 10h1M17 10h1M20 10h1M13 11h1M18 11h1M12 12h1M15 12h1M19 12h1M22 12h1M10 13h2M16 13h2M19 13h1M21 13h1M9 14h2M18 14h2M17 15h1M19 15h1M11 16h1M17 16h1M11 17h1M17 17h2M11 18h1M17 18h1M11 19h1M17 19h1M11 20h1M17 20h1M11 21h1M16 22h1M10 23h1M16 23h1M10 24h1M16 24h1M10 25h2M16 25h1M11 26h1M16 26h2M17 27h1" />
</svg>