<svg xmlns="http://www.w3.org/2000/svg" viewBox="0 -0.5 30 45" shape-rendering="crispEdges">
<path stroke="rgba(32,28,44,0.8352941176470589)" d="M9 6h1M11 6h1M21 6h2M24 6h1M12 7h1M20 7h1M13 8h1M19 8h1M13 9h4M19 9h1M12 10h1M17 10h2M21 10h2M10 11h2M19 11h2M23 11h1M9 12h2M12 12h1M19 12h1M24 12h1M8 13h1M10 13h1M12 13h2M20 13h1M25 13h1M8 14h1M10 14h2M14 14h2M20 14h1M25 14h1M7 15h1M10 15h1M16 15h1M20 15h1M26 15h1M7 16h1M10 16h1M19 16h1M26 16h1M7 17h1M10 17h1M19 17h1M26 17h1M4 18h1M7 18h1M10 18h1M18 18h1M26 18h1M29 18h1M5 19h1M7 19h1M18 19h1M26 19h1M28 19h1M5 20h1M7 20h1M17 20h1M26 20h1M28 20h1M5 21h1M8 21h1M25 21h1M28 21h1M8 22h1M25 22h1M8 23h1M25 23h1M8 24h1M25 24h1M8 25h1M25 25h1M8 26h1M25 26h1M8 27h1M25 27h1M25 28h1M25 29h1M25 30h1M25 31h1M25 32h1M25 33h1M8 34h1M25 34h1M8 35h1M25 35h1M3 36h1M7 36h1M26 36h1M3 37h2M7 37h1M26 37h1M29 37h1M4 38h3M27 38h3" />
<path stroke="rgba(31,28,43,0.5764705882352941)" d="M10 6h1M23 6h1M8 8h1M12 8h1M20 8h1M25 8h1M7 9h1M9 9h4M20 9h5M26 9h1M6 10h1M8 10h4M13 10h4M19 10h2M23 10h3M27 10h1M6 11h1M8 11h2M12 11h3M17 11h2M24 11h2M27 11h1M5 12h1M7 12h2M15 12h1M18 12h1M25 12h2M28 12h1M5 13h1M7 13h1M16 13h1M19 13h1M26 13h1M28 13h1M5 14h1M7 14h1M16 14h1M19 14h1M26 14h1M28 14h1M4 15h2M18 15h2M28 15h2M4 16h2M18 16h1M28 16h2M4 17h2M18 17h1M28 17h2M5 18h1M28 18h1M6 22h1M27 22h1M6 23h1M27 23h1M6 24h1M27 24h1M6 25h1M27 25h1M6 26h1M27 26h1M6 27h1M27 27h1M6 28h1M27 28h1M6 29h1M27 29h1M7 35h1M26 35h1M6 36h1M27 36h1M5 37h2M27 37h2" />
<path stroke="#362f32" d="M10 19h1M10 20h2" />
</svg>