<svg xmlns="http://www.w3.org/2000/svg" viewBox="0 -0.5 30 45" shape-rendering="crispEdges">
<path stroke="rgba(31,28,43,0.5764705882352941)" d="M9 7h3M20 7h2M8 8h1M12 8h1M19 8h1M23 9h1M8 10h1M11 10h1M13 10h4M19 10h1M22 10h2M8 11h3M12 11h3M17 11h2M20 11h4M9 12h1M15 12h1M18 12h1M20 12h3M16 13h1M19 13h1M16 14h1M19 14h1M18 15h2M18 16h1M18 17h1" />
<path stroke="rgba(32,28,44,0.8352941176470589)" d="M22 7h1M23 8h1M7 9h1M12 9h5M18 9h1M24 9h1M7 10h1M12 10h1M17 10h2M24 10h1M7 11h1M11 11h1M19 11h1M24 11h1M8 12h1M10 12h1M12 12h1M19 12h1M23 12h1M9 13h2M12 13h2M20 13h3M10 14h2M14 14h2M20 14h1M10 15h1M16 15h1M20 15h1M10 16h1M19 16h1M10 17h1M19 17h1M10 18h1M18 18h1M18 19h1M17 20h1" />
<path stroke="#362f32" d="M10 19h1M10 20h2" />
</svg>