<svg xmlns="http://www.w3.org/2000/svg" viewBox="0 -0.5 30 45" shape-rendering="crispEdges">
<metadata>Made with Pixels to Svg https://codepen.io/shshaw/pen/XbxvNj</metadata>
<path stroke="rgba(32,28,45,0.8313725490196079)" d="M14 9h3M11 10h3M17 10h2M10 11h1M19 11h1M9 12h1M13 12h1M20 12h1M9 13h1M12 13h3M21 13h1M7 14h2M11 14h1M15 14h1M19 14h4M7 15h1M16 15h2M22 15h1M8 16h1M21 16h1M9 17h2M18 17h4M10 18h1M18 18h1M20 18h1M11 19h1M18 19h1M20 19h1M10 20h1M17 20h1M20 20h1M10 21h1M17 21h1M19 21h1M9 22h1M12 22h1M17 22h1M19 22h1M10 23h2M16 23h1M18 23h2M17 24h2" />
<path stroke="rgba(31,28,43,0.5764705882352941)" d="M13 11h1M10 15h1M21 15h1M9 16h2M17 16h4M19 18h1M10 19h1M19 19h1M11 20h2M18 20h1" />
</svg>