<svg xmlns="http://www.w3.org/2000/svg" viewBox="0 -0.5 30 45" shape-rendering="crispEdges">
<metadata>Made with Pixels to Svg https://codepen.io/shshaw/pen/XbxvNj</metadata>
<path stroke="rgba(32,28,45,0.8313725490196079)" d="M18 6h2M20 7h2M14 8h3M19 8h2M12 9h2M18 9h1M11 10h1M18 10h1M10 11h1M17 11h1M10 12h2M15 12h3M12 13h3" />
<path stroke="rgba(31,28,43,0.5764705882352941)" d="M17 7h1M21 8h1M14 9h1M17 9h1M12 10h1M19 10h1M11 11h1M19 11h1M13 12h2" />
<path stroke="rgba(30,26,43,0.23137254901960785)" d="M18 7h1M15 9h2M13 10h2M17 10h1M12 11h1M15 11h2M18 12h1M17 13h1M19 13h1M18 14h1" />
<path stroke="rgba(32,28,44,0.9725490196078431)" d="M17 8h2M19 9h1" />
</svg>