<svg xmlns="http://www.w3.org/2000/svg" viewBox="0 -0.5 30 45" shape-rendering="crispEdges">
<metadata>Made with Pixels to Svg https://codepen.io/shshaw/pen/XbxvNj</metadata>
<path stroke="rgba(31,28,43,0.5764705882352941)" d="M11 8h8M10 9h1M19 9h1M9 10h1M20 10h1M9 11h1M11 11h2M14 11h2M21 11h1M9 12h1M13 12h1M21 12h1M9 13h1M21 13h1M9 14h1M21 14h1M9 15h1M9 16h1M20 17h1" />
<path stroke="rgba(30,26,43,0.23137254901960785)" d="M18 9h1M19 10h1M20 11h1M11 12h2M14 12h3M10 13h1M17 13h1M10 14h1M17 14h1M10 15h1M18 15h1M20 15h1M10 16h1M18 16h2M21 17h1M20 18h1M22 18h1M21 19h1M23 19h1" />
<path stroke="rgba(32,28,45,0.8313725490196079)" d="M21 15h1M20 16h1M10 17h1M18 17h2M19 18h1M20 19h1M21 20h2" />
</svg>