<svg xmlns="http://www.w3.org/2000/svg" viewBox="0 -0.5 30 45" shape-rendering="crispEdges">
<path stroke="rgba(32,28,44,0.8352941176470589)" d="M23 4h1M21 6h1M19 7h1M16 8h3M20 8h1M19 9h3M20 10h1M10 11h1M21 11h1M10 12h1M12 12h1M21 12h1M10 13h1M21 13h1M17 14h1M21 14h1M21 15h1M19 17h1" />
<path stroke="rgba(31,28,43,0.5764705882352941)" d="M19 5h2M22 5h1M18 6h1M18 7h1M23 7h1M13 8h3M22 8h1M12 9h1M18 9h1M22 9h2M11 10h1M18 10h1M22 10h2M13 11h1M17 11h1M20 11h1M23 11h1M11 12h1M15 12h2M19 12h2M11 13h1M17 13h4M18 14h3M20 15h1M17 16h1M20 16h1M11 18h1M17 18h1M11 19h1M17 19h1M11 20h1M18 20h1" />
</svg>