<svg xmlns="http://www.w3.org/2000/svg" viewBox="0 -0.5 30 45" shape-rendering="crispEdges">
<path stroke="rgba(32,28,44,0.8352941176470589)" d="M10 6h1M14 6h1M9 7h1M15 7h1M16 8h1M18 8h1M19 9h1M9 10h1M20 10h1M9 11h1M12 11h1M15 11h1M17 11h1M10 12h1M13 12h1M15 12h2M11 13h4M20 13h1M18 15h1M17 16h2" />
<path stroke="rgba(31,28,43,0.5764705882352941)" d="M11 6h3M10 7h1M12 7h1M9 8h1M17 8h1M9 9h1M11 9h1M14 9h1M11 10h1M13 10h3M18 10h1M10 11h2M13 11h2M16 11h1M20 11h1M11 12h2M14 12h1M18 12h3M18 13h2M18 14h1" />
</svg>