<svg xmlns="http://www.w3.org/2000/svg" viewBox="0 -0.5 30 45" shape-rendering="crispEdges">
<metadata>Made with Pixels to Svg https://codepen.io/shshaw/pen/XbxvNj</metadata>
<path stroke="rgba(31,28,43,0.5764705882352941)" d="M15 5h2M14 6h1M16 6h1M13 7h2M17 7h2M11 8h3M11 9h1M13 9h1M19 9h2M12 10h1M18 10h1M21 10h2M12 11h1M17 11h1M23 11h1M10 12h1M14 12h1M20 12h2M9 13h1M19 13h2M9 14h1M17 14h5M10 15h1M21 15h2M21 16h1" />
<path stroke="rgba(30,26,43,0.23137254901960785)" d="M15 6h1M15 7h1M20 7h1M14 8h1M19 8h1M18 9h1M19 10h2M18 11h1M21 11h2M21 13h1M22 14h1" />
<path stroke="rgba(32,28,45,0.8313725490196079)" d="M21 7h1M20 8h1M21 9h1M11 12h1M15 12h1M22 12h1M10 13h1M16 13h1M23 13h1M10 14h1M24 14h1M20 15h1M23 15h2M20 16h1M22 16h1M18 17h4M17 18h1" />
</svg>