<svg xmlns="http://www.w3.org/2000/svg" viewBox="0 -0.5 59 45" shape-rendering="crispEdges">
<metadata>Made with Pixels to Svg https://codepen.io/shshaw/pen/XbxvNj</metadata>
<path stroke="rgba(255,246,212,0.4470588235294118)" d="M23 5h1M19 6h1M27 6h1M20 7h1M26 7h1M22 9h3M15 13h1M31 13h1M16 16h1M30 16h1" />
<path stroke="rgba(255,234,184,0.23921568627450981)" d="M22 7h1M24 7h1M20 8h1M26 8h1M19 9h1M27 9h1M18 10h1M28 10h1" />
<path stroke="rgba(31,28,43,0.5764705882352941)" d="M23 7h1M22 8h3M21 9h1M25 9h1M19 11h1M21 11h2M24 11h2M27 11h1M18 12h1M20 12h1M26 12h1M28 12h1M18 13h1M28 13h1M18 14h1M28 14h1M19 16h1M27 16h1M19 17h1M27 17h1" />
<path stroke="rgba(40,32,65,0.24705882352941178)" d="M21 8h1M25 8h1M20 9h1M26 9h1M19 10h1M27 10h1M18 11h1M28 11h1M17 13h1M29 13h1M18 15h1M28 15h1M17 16h1" />
</svg>