<svg xmlns="http://www.w3.org/2000/svg" viewBox="0 -0.5 59 45" shape-rendering="crispEdges">
<metadata>Made with Pixels to Svg https://codepen.io/shshaw/pen/XbxvNj</metadata>
<path stroke="rgba(255,246,212,0.4470588235294118)" d="M21 3h1M25 3h1M20 4h1M26 4h1M19 6h1M27 6h1M18 7h1M27 7h1M18 9h1M27 9h1" />
<path stroke="rgba(40,32,65,0.24705882352941178)" d="M20 5h1M26 5h1M20 6h1M26 6h1M19 7h1M26 7h1M18 8h1M27 8h1M18 10h1M27 10h1M19 11h1M26 11h1M20 12h1M25 12h1" />
<path stroke="rgba(31,28,43,0.5764705882352941)" d="M21 6h1M25 6h1M20 7h1M25 7h1M19 8h1M26 8h1M19 9h1M26 9h1M20 10h1M25 10h1M21 11h1M24 11h1M21 12h1M24 12h1M20 13h2M24 13h2" />
</svg>