<svg xmlns="http://www.w3.org/2000/svg" viewBox="0 -0.5 59 45" shape-rendering="crispEdges">
<path stroke="rgba(31,28,43,0.5764705882352941)" d="M14 6h1M34 6h1M16 7h1M32 7h1M10 8h1M13 8h1M35 8h1M38 8h1M9 9h1M12 9h1M15 9h1M18 9h1M30 9h1M33 9h1M36 9h1M39 9h1M9 10h1M12 10h1M15 10h1M19 10h1M29 10h1M33 10h1M36 10h1M39 10h1M12 11h1M15 11h1M20 11h1M28 11h1M33 11h1M36 11h1M12 12h1M15 12h1M33 12h1M36 12h1" />
<path stroke="rgba(32,28,44,0.8352941176470589)" d="M15 6h4M30 6h4M13 7h3M17 7h1M31 7h1M33 7h3M12 8h1M15 8h1M17 8h1M31 8h1M33 8h1M36 8h1M11 9h1M14 9h1M34 9h1M37 9h1M10 10h1M14 10h1M17 10h1M31 10h1M34 10h1M38 10h1M9 11h1M13 11h1M16 11h1M18 11h1M30 11h1M32 11h1M35 11h1M39 11h1M19 12h1M29 12h1" />
</svg>