<?xml version="1.0" encoding="UTF-8" ?>
<svg version="1.1" width="30" height="45" xmlns="http://www.w3.org/2000/svg" shape-rendering="crispEdges">
<rect x="15" y="32" width="1" height="1" fill="#615A5A" />
<rect x="16" y="32" width="1" height="1" fill="#615A5A" />
<rect x="17" y="32" width="1" height="1" fill="#615A5A" />
<rect x="18" y="32" width="1" height="1" fill="#615A5A" />
<rect x="19" y="32" width="1" height="1" fill="#180A09" />
<rect x="15" y="33" width="1" height="1" fill="#201B1B" />
<rect x="16" y="33" width="1" height="1" fill="#615A5A" />
<rect x="17" y="33" width="1" height="1" fill="#615A5A" />
<rect x="18" y="33" width="1" height="1" fill="#615A5A" />
<rect x="19" y="33" width="1" height="1" fill="#615A5A" />
<rect x="20" y="33" width="1" height="1" fill="#180A09" />
<rect x="15" y="34" width="1" height="1" fill="#201B1B" />
<rect x="16" y="34" width="1" height="1" fill="#615A5A" />
<rect x="17" y="34" width="1" height="1" fill="#615A5A" />
<rect x="18" y="34" width="1" height="1" fill="#615A5A" />
<rect x="19" y="34" width="1" height="1" fill="#615A5A" />
<rect x="20" y="34" width="1" height="1" fill="#180A09" />
<rect x="16" y="35" width="1" height="1" fill="#615A5A" />
<rect x="17" y="35" width="1" height="1" fill="#615A5A" />
<rect x="18" y="35" width="1" height="1" fill="#615A5A" />
<rect x="19" y="35" width="1" height="1" fill="#615A5A" />
<rect x="20" y="35" width="1" height="1" fill="#8C7D7B" />
<rect x="21" y="35" width="1" height="1" fill="#180A09" />
<rect x="16" y="36" width="1" height="1" fill="#615A5A" />
<rect x="17" y="36" width="1" height="1" fill="#615A5A" />
<rect x="18" y="36" width="1" height="1" fill="#615A5A" />
<rect x="19" y="36" width="1" height="1" fill="#8C7D7B" />
<rect x="20" y="36" width="1" height="1" fill="#8C7D7B" />
<rect x="21" y="36" width="1" height="1" fill="#615A5A" />
<rect x="22" y="36" width="1" height="1" fill="#180A09" />
<rect x="16" y="37" width="1" height="1" fill="#615A5A" />
<rect x="17" y="37" width="1" height="1" fill="#8C7D7B" />
<rect x="18" y="37" width="1" height="1" fill="#8C7D7B" />
<rect x="19" y="37" width="1" height="1" fill="#8C7D7B" />
<rect x="20" y="37" width="1" height="1" fill="#B6A5A3" />
<rect x="21" y="37" width="1" height="1" fill="#8C7D7B" />
<rect x="22" y="37" width="1" height="1" fill="#180A09" />
</svg>