<?xml version="1.0" encoding="UTF-8" ?>
<svg version="1.1" width="30" height="45" xmlns="http://www.w3.org/2000/svg" shape-rendering="crispEdges">
<rect x="10" y="32" width="1" height="1" fill="#180A09" />
<rect x="11" y="32" width="1" height="1" fill="#615A5A" />
<rect x="12" y="32" width="1" height="1" fill="#615A5A" />
<rect x="13" y="32" width="1" height="1" fill="#201B1B" />
<rect x="14" y="32" width="1" height="1" fill="#201B1B" />
<rect x="9" y="33" width="1" height="1" fill="#180A09" />
<rect x="10" y="33" width="1" height="1" fill="#615A5A" />
<rect x="11" y="33" width="1" height="1" fill="#615A5A" />
<rect x="12" y="33" width="1" height="1" fill="#615A5A" />
<rect x="13" y="33" width="1" height="1" fill="#201B1B" />
<rect x="14" y="33" width="1" height="1" fill="#201B1B" />
<rect x="9" y="34" width="1" height="1" fill="#180A09" />
<rect x="10" y="34" width="1" height="1" fill="#615A5A" />
<rect x="11" y="34" width="1" height="1" fill="#615A5A" />
<rect x="12" y="34" width="1" height="1" fill="#615A5A" />
<rect x="13" y="34" width="1" height="1" fill="#201B1B" />
<rect x="14" y="34" width="1" height="1" fill="#180A09" />
<rect x="9" y="35" width="1" height="1" fill="#0C0403" />
<rect x="10" y="35" width="1" height="1" fill="#615A5A" />
<rect x="11" y="35" width="1" height="1" fill="#615A5A" />
<rect x="12" y="35" width="1" height="1" fill="#615A5A" />
<rect x="13" y="35" width="1" height="1" fill="#615A5A" />
<rect x="14" y="35" width="1" height="1" fill="#180A09" />
<rect x="15" y="35" width="1" height="1" fill="#180A09" />
<rect x="9" y="36" width="1" height="1" fill="#0C0403" />
<rect x="10" y="36" width="1" height="1" fill="#615A5A" />
<rect x="11" y="36" width="1" height="1" fill="#8C7D7B" />
<rect x="12" y="36" width="1" height="1" fill="#615A5A" />
<rect x="13" y="36" width="1" height="1" fill="#615A5A" />
<rect x="14" y="36" width="1" height="1" fill="#615A5A" />
<rect x="15" y="36" width="1" height="1" fill="#180A09" />
<rect x="9" y="37" width="1" height="1" fill="#0C0403" />
<rect x="10" y="37" width="1" height="1" fill="#615A5A" />
<rect x="11" y="37" width="1" height="1" fill="#615A5A" />
<rect x="12" y="37" width="1" height="1" fill="#615A5A" />
<rect x="13" y="37" width="1" height="1" fill="#615A5A" />
<rect x="14" y="37" width="1" height="1" fill="#8C7D7B" />
<rect x="15" y="37" width="1" height="1" fill="#180A09" />
</svg>