<?xml version="1.0" encoding="UTF-8" ?>
<svg version="1.1" width="30" height="45" xmlns="http://www.w3.org/2000/svg" shape-rendering="crispEdges">
<rect x="9" y="38" width="1" height="1" fill="#0C0403" />
<rect x="10" y="38" width="1" height="1" fill="#615A5A" />
<rect x="11" y="38" width="1" height="1" fill="#615A5A" />
<rect x="12" y="38" width="1" height="1" fill="#615A5A" />
<rect x="13" y="38" width="1" height="1" fill="#615A5A" />
<rect x="14" y="38" width="1" height="1" fill="#615A5A" />
<rect x="15" y="38" width="1" height="1" fill="#615A5A" />
<rect x="10" y="39" width="1" height="1" fill="#0C0403" />
<rect x="11" y="39" width="1" height="1" fill="#615A5A" />
<rect x="12" y="39" width="1" height="1" fill="#8C7D7B" />
<rect x="13" y="39" width="1" height="1" fill="#615A5A" />
<rect x="14" y="39" width="1" height="1" fill="#615A5A" />
<rect x="15" y="39" width="1" height="1" fill="#615A5A" />
<rect x="11" y="40" width="1" height="1" fill="#0C0403" />
<rect x="12" y="40" width="1" height="1" fill="#615A5A" />
<rect x="13" y="40" width="1" height="1" fill="#615A5A" />
<rect x="14" y="40" width="1" height="1" fill="#615A5A" />
<rect x="15" y="40" width="1" height="1" fill="#180A09" />
<rect x="10" y="41" width="1" height="1" fill="#0C0403" />
<rect x="11" y="41" width="1" height="1" fill="#0C0403" />
<rect x="12" y="41" width="1" height="1" fill="#0C0403" />
<rect x="13" y="41" width="1" height="1" fill="#3C231D" />
<rect x="14" y="41" width="1" height="1" fill="#170909" />
<rect x="15" y="41" width="1" height="1" fill="#0C0403" />
<rect x="10" y="42" width="1" height="1" fill="#0C0403" />
<rect x="11" y="42" width="1" height="1" fill="#3C231D" />
<rect x="12" y="42" width="1" height="1" fill="#3C231D" />
<rect x="13" y="42" width="1" height="1" fill="#3C231D" />
<rect x="14" y="42" width="1" height="1" fill="#0C0403" />
<rect x="15" y="42" width="1" height="1" fill="#170909" />
</svg>