<?xml version="1.0" encoding="UTF-8" ?>
<svg version="1.1" width="30" height="45" xmlns="http://www.w3.org/2000/svg" shape-rendering="crispEdges">
<rect x="9" y="24" width="1" height="1" fill="#453B3D" />
<rect x="10" y="24" width="1" height="1" fill="#F3F1F1" />
<rect x="11" y="24" width="1" height="1" fill="#BAA7AD" />
<rect x="12" y="24" width="1" height="1" fill="#BAA7AD" />
<rect x="13" y="24" width="1" height="1" fill="#453B3D" />
<rect x="9" y="25" width="1" height="1" fill="#453B3D" />
<rect x="10" y="25" width="1" height="1" fill="#F3F1F1" />
<rect x="11" y="25" width="1" height="1" fill="#BAA7AD" />
<rect x="12" y="25" width="1" height="1" fill="#BAA7AD" />
<rect x="13" y="25" width="1" height="1" fill="#453B3D" />
<rect x="8" y="26" width="1" height="1" fill="#453B3D" />
<rect x="9" y="26" width="1" height="1" fill="#F3F1F1" />
<rect x="10" y="26" width="1" height="1" fill="#F3F1F1" />
<rect x="11" y="26" width="1" height="1" fill="#BAA7AD" />
<rect x="12" y="26" width="1" height="1" fill="#BAA7AD" />
<rect x="13" y="26" width="1" height="1" fill="#170909" />
<rect x="8" y="27" width="1" height="1" fill="#453B3D" />
<rect x="9" y="27" width="1" height="1" fill="#F3F1F1" />
<rect x="10" y="27" width="1" height="1" fill="#BAA7AD" />
<rect x="11" y="27" width="1" height="1" fill="#BAA7AD" />
<rect x="12" y="27" width="1" height="1" fill="#BAA7AD" />
<rect x="13" y="27" width="1" height="1" fill="#170909" />
<rect x="7" y="28" width="1" height="1" fill="#453B3D" />
<rect x="8" y="28" width="1" height="1" fill="#F3F1F1" />
<rect x="9" y="28" width="1" height="1" fill="#BAA7AD" />
<rect x="10" y="28" width="1" height="1" fill="#BAA7AD" />
<rect x="11" y="28" width="1" height="1" fill="#BAA7AD" />
<rect x="12" y="28" width="1" height="1" fill="#170909" />
<rect x="7" y="29" width="1" height="1" fill="#170909" />
<rect x="8" y="29" width="1" height="1" fill="#38201A" />
<rect x="9" y="29" width="1" height="1" fill="#38201A" />
<rect x="10" y="29" width="1" height="1" fill="#38201A" />
<rect x="11" y="29" width="1" height="1" fill="#38201A" />
<rect x="12" y="29" width="1" height="1" fill="#170909" />
<rect x="7" y="30" width="1" height="1" fill="#170909" />
<rect x="8" y="30" width="1" height="1" fill="#58352B" />
<rect x="9" y="30" width="1" height="1" fill="#58352B" />
<rect x="10" y="30" width="1" height="1" fill="#38201A" />
<rect x="11" y="30" width="1" height="1" fill="#38201A" />
<rect x="12" y="30" width="1" height="1" fill="#170909" />
<rect x="7" y="31" width="1" height="1" fill="#170909" />
<rect x="8" y="31" width="1" height="1" fill="#58352B" />
<rect x="9" y="31" width="1" height="1" fill="#58352B" />
<rect x="10" y="31" width="1" height="1" fill="#38201A" />
<rect x="11" y="31" width="1" height="1" fill="#170909" />
<rect x="8" y="32" width="1" height="1" fill="#170909" />
<rect x="9" y="32" width="1" height="1" fill="#170909" />
<rect x="10" y="32" width="1" height="1" fill="#170909" />
</svg>