<?xml version="1.0" encoding="UTF-8" ?>
<svg version="1.1" width="30" height="45" xmlns="http://www.w3.org/2000/svg" shape-rendering="crispEdges">
<rect x="21" y="26" width="1" height="1" fill="#F3F1F1" />
<rect x="22" y="26" width="1" height="1" fill="#F3F1F1" />
<rect x="23" y="26" width="1" height="1" fill="#392B2B" />
<rect x="20" y="27" width="1" height="1" fill="#BAA7AD" />
<rect x="21" y="27" width="1" height="1" fill="#BAA7AD" />
<rect x="22" y="27" width="1" height="1" fill="#F3F1F1" />
<rect x="23" y="27" width="1" height="1" fill="#392B2B" />
<rect x="20" y="28" width="1" height="1" fill="#453B3D" />
<rect x="21" y="28" width="1" height="1" fill="#453B3D" />
<rect x="22" y="28" width="1" height="1" fill="#453B3D" />
<rect x="23" y="28" width="1" height="1" fill="#453B3D" />
<rect x="24" y="28" width="1" height="1" fill="#170909" />
<rect x="19" y="29" width="1" height="1" fill="#170909" />
<rect x="20" y="29" width="1" height="1" fill="#38201A" />
<rect x="21" y="29" width="1" height="1" fill="#38201A" />
<rect x="22" y="29" width="1" height="1" fill="#38201A" />
<rect x="23" y="29" width="1" height="1" fill="#38201A" />
<rect x="24" y="29" width="1" height="1" fill="#170909" />
<rect x="19" y="30" width="1" height="1" fill="#170909" />
<rect x="20" y="30" width="1" height="1" fill="#38201A" />
<rect x="21" y="30" width="1" height="1" fill="#38201A" />
<rect x="22" y="30" width="1" height="1" fill="#38201A" />
<rect x="23" y="30" width="1" height="1" fill="#58352B" />
<rect x="24" y="30" width="1" height="1" fill="#170909" />
<rect x="19" y="31" width="1" height="1" fill="#170909" />
<rect x="20" y="31" width="1" height="1" fill="#38201A" />
<rect x="21" y="31" width="1" height="1" fill="#38201A" />
<rect x="22" y="31" width="1" height="1" fill="#58352B" />
<rect x="23" y="31" width="1" height="1" fill="#58352B" />
<rect x="24" y="31" width="1" height="1" fill="#170909" />
<rect x="20" y="32" width="1" height="1" fill="#170909" />
<rect x="21" y="32" width="1" height="1" fill="#58352B" />
<rect x="22" y="32" width="1" height="1" fill="#170909" />
<rect x="23" y="32" width="1" height="1" fill="#170909" />
<rect x="20" y="33" width="1" height="1" fill="#170909" />
<rect x="21" y="33" width="1" height="1" fill="#170909" />
</svg>