<svg xmlns="http://www.w3.org/2000/svg" viewBox="0 -0.5 30 45" shape-rendering="crispEdges">
<metadata>Made with Pixels to Svg https://codepen.io/shshaw/pen/XbxvNj</metadata>
<path stroke="#c5b6a4" d="M10 18h1M11 19h1M18 19h1M12 20h1M16 20h2M9 21h1M17 24h1" />
<path stroke="#908270" d="M11 18h1M18 18h1M12 19h1" />
<path stroke="#b29271" d="M10 19h1M9 20h1M17 23h1" />
<path stroke="#837b72" d="M17 19h1M14 20h1M17 21h1" />
<path stroke="#6e5546" d="M10 20h1M18 21h1" />
<path stroke="#a48872" d="M11 20h1M13 20h1M13 21h1M17 22h1" />
<path stroke="#866750" d="M15 20h1M18 20h1M11 21h2M15 21h2" />
<path stroke="#4a4139" d="M10 21h1M11 22h1" />
<path stroke="#9e8d7b" d="M14 21h1" />
<path stroke="#ecbc6e" d="M10 22h1M16 22h1M12 24h1" />
<path stroke="#60554a" d="M12 22h1" />
<path stroke="#746051" d="M13 22h1" />
<path stroke="#51493e" d="M14 22h1M18 22h1" />
<path stroke="#3f3831" d="M15 22h1" />
<path stroke="#dcb454" d="M11 23h1M14 23h2" />
<path stroke="#fff4ae" d="M12 23h1" />
<path stroke="#fcd371" d="M13 23h1M13 30h1M15 30h1" />
<path stroke="#2e2822" d="M18 23h1" />
<path stroke="#c29243" d="M13 24h1" />
<path stroke="#332d2d" d="M17 28h1M15 29h1" />
<path stroke="#272221" d="M18 28h1M12 29h1M16 29h1" />
<path stroke="#1c2e2f" d="M19 28h1M19 29h1M18 30h2M13 31h2M16 31h1" />
<path stroke="#436464" d="M11 29h1M18 29h1M16 30h1" />
<path stroke="#5a4940" d="M13 29h2" />
<path stroke="#4e7b7b" d="M17 29h1M12 30h1M14 30h1" />
<path stroke="#263d3e" d="M11 30h1M17 30h1M12 31h1M15 31h1" />
<path stroke="#192623" d="M10 31h2M17 31h1M20 31h1M10 32h1M20 32h1M12 40h1M16 40h1" />
<path stroke="#324c41" d="M18 31h1M12 32h1M16 32h1M19 32h1M16 36h1M12 38h1M16 38h1M13 39h1M15 39h1" />
<path stroke="#1e2f2a" d="M19 31h1M11 38h1M14 38h1M17 38h1M12 39h1M14 39h1M16 39h1M13 40h1M15 40h1" />
<path stroke="#283a37" d="M11 32h1M17 32h1M11 33h1M13 33h1M15 33h1M17 33h1M11 34h1M13 34h1M15 34h1M17 34h1M11 35h1M17 35h1M11 36h1M13 36h1M15 36h1M17 36h1M11 37h1M17 37h1" />
<path stroke="#28342e" d="M13 32h1M15 32h1M13 35h1M15 35h1M14 37h1" />
<path stroke="#749386" d="M14 32h1" />
<path stroke="#3c594d" d="M18 32h1" />
<path stroke="#3c5447" d="M12 33h1M16 34h1M12 35h1M16 35h1M12 36h1M13 38h1M15 38h1" />
<path stroke="#71ab9b" d="M14 33h1M14 35h1" />
<path stroke="#425e4f" d="M16 33h1M12 34h1M12 37h1M16 37h1" />
<path stroke="#92caba" d="M14 34h1M14 36h1" />
<path stroke="#529372" d="M13 37h1M15 37h1" />
</svg>