<svg xmlns="http://www.w3.org/2000/svg" viewBox="0 -0.5 30 45" shape-rendering="crispEdges">
<metadata>Made with Pixels to Svg https://codepen.io/shshaw/pen/XbxvNj</metadata>
<path stroke="#c5b6a4" d="M19 17h1M19 18h1M18 19h1M21 19h1" />
<path stroke="#b29271" d="M20 17h1M21 18h1M22 20h1" />
<path stroke="#908270" d="M18 18h1" />
<path stroke="#a48872" d="M20 18h1M21 20h1" />
<path stroke="#866750" d="M19 19h1M18 20h1M20 20h1" />
<path stroke="#9e8d7b" d="M20 19h1" />
<path stroke="#6e5546" d="M19 20h1M18 21h1" />
<path stroke="#2e2822" d="M19 21h1M18 23h1" />
<path stroke="#51493e" d="M20 21h1M18 22h1" />
<path stroke="#51473d" d="M21 21h1" />
<path stroke="#715b3f" d="M22 21h1" />
<path stroke="#b79a58" d="M23 23h1M23 25h1" />
<path stroke="#cbb479" d="M25 23h1M24 24h1" />
<path stroke="#273938" d="M22 24h1M23 26h1" />
<path stroke="#bba66d" d="M23 24h1" />
<path stroke="#1e2f2a" d="M19 25h1M19 27h1" />
<path stroke="#344c4d" d="M20 25h1" />
<path stroke="#416463" d="M21 25h1" />
<path stroke="#101a18" d="M22 25h1M20 26h2" />
<path stroke="#0a1110" d="M19 26h1" />
<path stroke="#927c4d" d="M22 26h1" />
<path stroke="#678675" d="M20 27h1" />
<path stroke="#607b6c" d="M21 27h1" />
<path stroke="#394942" d="M22 27h1" />
</svg>