<svg xmlns="http://www.w3.org/2000/svg" viewBox="0 -0.5 30 45" shape-rendering="crispEdges">
<metadata>Made with Pixels to Svg https://codepen.io/shshaw/pen/XbxvNj</metadata>
<path stroke="#0a1110" d="M19 26h1M19 28h1" />
<path stroke="#101a18" d="M20 26h2M23 27h1M20 28h3" />
<path stroke="#927c4d" d="M22 26h1" />
<path stroke="#273938" d="M23 26h1M20 29h1M20 31h1" />
<path stroke="#1e2f2a" d="M19 27h1M19 29h1M19 30h1M19 31h1M20 32h1M22 32h2M20 33h2" />
<path stroke="#678675" d="M20 27h1M20 30h1" />
<path stroke="#607b6c" d="M21 27h1M22 29h1M22 30h1M21 31h1" />
<path stroke="#394942" d="M22 27h1" />
<path stroke="#3d5d59" d="M23 28h1M21 29h1M23 30h1M22 31h1" />
<path stroke="#26302d" d="M24 28h1M24 29h1M24 30h1M24 31h1" />
<path stroke="#cbb479" d="M23 29h1M21 30h1" />
<path stroke="#334948" d="M23 31h1" />
<path stroke="#92a89e" d="M21 32h1" />
</svg>