<svg xmlns="http://www.w3.org/2000/svg" viewBox="0 -0.5 30 45" shape-rendering="crispEdges">
<metadata>Made with Pixels to Svg https://codepen.io/shshaw/pen/XbxvNj</metadata>
<path stroke="#6a5c50" d="M19 38h1M21 38h1M20 39h1M20 42h1M19 43h1" />
<path stroke="#8c8075" d="M22 38h1M19 39h1M22 39h1M19 42h1M22 42h1M18 43h1M21 43h1" />
<path stroke="#605549" d="M17 39h1M21 39h1M21 42h1" />
<path stroke="#55473e" d="M18 39h1M18 42h1" />
<path stroke="#211e26" d="M18 40h2M18 41h1" />
<path stroke="#332e38" d="M20 40h1" />
<path stroke="#4d4554" d="M21 40h1M21 41h1" />
<path stroke="#29262b" d="M19 41h2" />
</svg>