<svg xmlns="http://www.w3.org/2000/svg" viewBox="0 -0.5 30 45" shape-rendering="crispEdges">
<metadata>Made with Pixels to Svg https://codepen.io/shshaw/pen/XbxvNj</metadata>
<path stroke="#192623" d="M19 30h1M20 31h1M20 32h1M21 33h1M21 34h1M19 37h1" />
<path stroke="#324c41" d="M18 31h1M19 32h1M19 34h1" />
<path stroke="#1e2f2a" d="M19 31h1M20 33h1M21 35h1M20 36h1M15 37h4" />
<path stroke="#395549" d="M15 32h3M15 33h4M15 34h3" />
<path stroke="#3c594d" d="M18 32h1M19 33h1" />
<path stroke="#486d5d" d="M18 34h1" />
<path stroke="#233a3b" d="M20 34h1M20 35h1M19 36h1" />
<path stroke="#2b4c4d" d="M15 35h4" />
<path stroke="#274243" d="M19 35h1M15 36h4" />
</svg>