<svg xmlns="http://www.w3.org/2000/svg" viewBox="0 -0.5 30 45" shape-rendering="crispEdges">
<metadata>Made with Pixels to Svg https://codepen.io/shshaw/pen/XbxvNj</metadata>
<path stroke="#8c8075" d="M10 38h1M13 38h1M15 39h1M11 42h1M13 42h1M12 43h1M15 43h1" />
<path stroke="#6a5c50" d="M11 38h2M15 38h1M13 39h2M14 42h1" />
<path stroke="#605549" d="M11 39h1M15 40h1M15 42h1M14 43h1" />
<path stroke="#55473e" d="M12 39h1M12 42h1" />
<path stroke="#4d4554" d="M12 40h1M12 41h1" />
<path stroke="#332e38" d="M13 40h2" />
<path stroke="#29262b" d="M13 41h1" />
<path stroke="#211e26" d="M14 41h2" />
</svg>