<svg xmlns="http://www.w3.org/2000/svg" viewBox="0 -0.5 30 45" shape-rendering="crispEdges">
<metadata>Made with Pixels to Svg https://codepen.io/shshaw/pen/XbxvNj</metadata>
<path stroke="#480f08" d="M9 22h12M9 23h12M9 24h13M9 25h13M9 26h13M9 27h13M9 28h13M9 29h13M9 30h14M9 31h14M9 32h4M15 32h3M9 33h2M12 33h1M14 33h1M16 33h1M9 34h1M12 34h1M9 35h2M15 35h1M9 36h2" />
<path stroke="rgba(72,11,8,0.8862745098039215)" d="M13 32h2M19 32h1M21 32h1M11 33h1M13 33h1M15 33h1M18 33h1M20 33h3M10 34h2M15 34h3M11 35h2M16 35h3M12 36h2M16 36h1" />
<path stroke="rgba(72,11,8,0.984313725490196)" d="M18 32h1M20 32h1M17 33h1M18 34h1" />
<path stroke="rgba(72,11,8,0.9411764705882353)" d="M22 32h1" />
<path stroke="rgba(72,11,8,0.9725490196078431)" d="M19 33h1" />
<path stroke="#480c08" d="M13 34h1" />
<path stroke="rgba(71,11,8,0.7568627450980392)" d="M14 34h1M19 34h1M13 35h2M19 35h1M14 36h2M17 36h4M11 37h5M11 38h2" />
<path stroke="rgba(72,11,8,0.8313725490196079)" d="M20 34h2" />
<path stroke="rgba(72,11,8,0.8745098039215686)" d="M22 34h1" />
<path stroke="rgba(72,12,8,0.7764705882352941)" d="M20 35h1" />
<path stroke="rgba(71,11,7,0.8117647058823529)" d="M21 35h2" />
<path stroke="rgba(72,12,8,0.8666666666666667)" d="M23 35h1" />
<path stroke="rgba(72,12,8,0.7490196078431373)" d="M21 36h1" />
<path stroke="rgba(72,12,8,0.8)" d="M22 36h1" />
<path stroke="rgba(72,13,8,0.792156862745098)" d="M23 36h1M15 38h1" />
<path stroke="rgba(73,15,8,0.6470588235294118)" d="M9 37h1" />
<path stroke="rgba(71,12,7,0.6862745098039216)" d="M10 37h1M21 37h2M9 38h2M13 38h2M16 38h2" />
<path stroke="rgba(72,11,8,0.7098039215686275)" d="M16 37h1" />
<path stroke="rgba(73,11,9,0.7019607843137254)" d="M19 37h1" />
<path stroke="rgba(72,12,9,0.6941176470588235)" d="M20 37h1" />
<path stroke="rgba(72,12,7,0.6823529411764706)" d="M18 38h1" />
<path stroke="rgba(73,12,7,0.6745098039215687)" d="M19 38h2" />
<path stroke="rgba(72,12,8,0.6666666666666666)" d="M21 38h1" />
<path stroke="rgba(71,12,8,0.6588235294117647)" d="M22 38h2" />
<path stroke="rgba(71,11,8,0.6313725490196078)" d="M9 39h1" />
<path stroke="rgba(72,11,8,0.6274509803921569)" d="M10 39h1" />
<path stroke="rgba(73,11,8,0.6196078431372549)" d="M11 39h1" />
<path stroke="rgba(73,11,7,0.5490196078431373)" d="M12 39h2M17 39h1M12 40h1M14 40h1" />
<path stroke="rgba(72,12,8,0.7215686274509804)" d="M15 39h1" />
<path stroke="rgba(72,13,8,0.6274509803921569)" d="M16 39h1" />
<path stroke="rgba(73,13,7,0.5490196078431373)" d="M18 39h1" />
<path stroke="rgba(73,12,8,0.6470588235294118)" d="M20 39h2" />
<path stroke="rgba(72,13,8,0.6392156862745098)" d="M22 39h1" />
<path stroke="rgba(73,14,8,0.592156862745098)" d="M23 39h1" />
<path stroke="rgba(72,12,8,0.6)" d="M10 40h1" />
<path stroke="rgba(73,12,8,0.592156862745098)" d="M11 40h1" />
<path stroke="rgba(71,12,8,0.6039215686274509)" d="M16 40h1" />
<path stroke="rgba(72,13,7,0.5568627450980392)" d="M17 40h1" />
<path stroke="rgba(72,12,8,0.48627450980392156)" d="M18 40h1M19 41h1" />
<path stroke="rgba(73,12,8,0.4823529411764706)" d="M19 40h1" />
<path stroke="rgba(72,12,8,0.5019607843137255)" d="M20 40h1M16 41h1" />
<path stroke="rgba(73,11,7,0.5372549019607843)" d="M21 40h1" />
<path stroke="rgba(73,12,8,0.49411764705882355)" d="M22 40h1M12 42h1" />
<path stroke="rgba(73,11,9,0.4549019607843137)" d="M23 40h1" />
<path stroke="rgba(71,12,7,0.4196078431372549)" d="M24 40h1" />
<path stroke="rgba(72,12,9,0.5686274509803921)" d="M10 41h1" />
<path stroke="rgba(73,12,9,0.5647058823529412)" d="M11 41h1M13 41h1M13 42h1" />
<path stroke="rgba(73,12,8,0.5098039215686274)" d="M15 41h1" />
<path stroke="rgba(72,13,8,0.5294117647058824)" d="M17 41h1" />
<path stroke="rgba(72,13,9,0.4588235294117647)" d="M18 41h1M18 42h1" />
<path stroke="rgba(73,12,7,0.4117647058823529)" d="M21 41h1M11 42h1" />
<path stroke="rgba(72,12,7,0.403921568627451)" d="M22 41h1" />
<path stroke="rgba(72,11,9,0.34901960784313724)" d="M23 41h1" />
<path stroke="rgba(72,11,9,0.4470588235294118)" d="M15 42h1" />
<path stroke="rgba(73,13,9,0.4666666666666667)" d="M17 42h1M13 43h1" />
<path stroke="rgba(73,12,9,0.32941176470588235)" d="M21 42h1M15 43h1M10 44h1M14 44h1" />
<path stroke="rgba(71,14,7,0.29411764705882354)" d="M23 42h1" />
<path stroke="rgba(71,9,9,0.21176470588235294)" d="M24 42h1" />
<path stroke="rgba(73,11,8,0.3686274509803922)" d="M10 43h1" />
<path stroke="rgba(73,12,9,0.3411764705882353)" d="M11 43h1" />
<path stroke="rgba(72,12,8,0.4)" d="M12 43h1" />
<path stroke="rgba(71,11,8,0.36470588235294116)" d="M14 43h1" />
<path stroke="rgba(72,12,9,0.3215686274509804)" d="M16 43h1" />
<path stroke="rgba(73,13,8,0.5215686274509804)" d="M18 43h1" />
<path stroke="rgba(72,13,8,0.4745098039215686)" d="M19 43h1" />
<path stroke="rgba(71,12,8,0.2549019607843137)" d="M22 43h1" />
<path stroke="rgba(73,12,6,0.16470588235294117)" d="M24 43h2" />
<path stroke="rgba(71,12,9,0.33725490196078434)" d="M16 44h1" />
<path stroke="rgba(72,13,9,0.4470588235294118)" d="M19 44h1" />
<path stroke="rgba(73,12,8,0.24705882352941178)" d="M20 44h1" />
<path stroke="rgba(71,14,9,0.21176470588235294)" d="M21 44h1" />
<path stroke="rgba(73,15,7,0.13725490196078433)" d="M22 44h2" />
</svg>