<svg xmlns="http://www.w3.org/2000/svg" viewBox="0 -0.5 30 45" shape-rendering="crispEdges">
<metadata>Made with Pixels to Svg https://codepen.io/shshaw/pen/XbxvNj</metadata>
<path stroke="#1a1a1a" d="M10 18h1M9 19h1" />
<path stroke="#242424" d="M10 19h1" />
<path stroke="#0f0f0f" d="M11 19h1" />
<path stroke="#6d715f" d="M9 20h1" />
<path stroke="#595c47" d="M10 20h1M12 20h1M9 21h1M8 24h1" />
<path stroke="#d8dac5" d="M11 20h1" />
<path stroke="#2c2c2c" d="M8 21h1M9 22h1" />
<path stroke="#f6f8df" d="M10 21h1M9 24h1M9 26h1" />
<path stroke="#eadbb5" d="M12 21h1M11 22h1M10 23h1M10 24h1M10 26h1" />
<path stroke="#443c2a" d="M13 21h1M13 22h1M9 23h1M13 23h1M13 24h1M9 25h1M12 25h1M8 26h1M12 26h1M8 27h1M12 27h1M11 28h1" />
<path stroke="#ddd8c4" d="M12 22h1M11 23h1M12 24h1" />
<path stroke="#a6a494" d="M12 23h1M11 24h1" />
<path stroke="#bebdab" d="M10 25h1M10 27h1" />
<path stroke="#7f7764" d="M11 25h1M9 27h1M11 27h1M10 28h1" />
<path stroke="#d7ca9e" d="M11 26h1" />
</svg>