<svg xmlns="http://www.w3.org/2000/svg" viewBox="0 -0.5 30 45" shape-rendering="crispEdges">
<metadata>Made with Pixels to Svg https://codepen.io/shshaw/pen/XbxvNj</metadata>
<path stroke="#443c2a" d="M11 20h1M11 21h1M10 22h1M12 23h1M14 23h1M16 23h2M10 25h1M16 30h1M18 30h1" />
<path stroke="#bebdab" d="M12 20h1M11 24h1M17 24h1M12 25h1M14 25h3M11 27h1M11 29h1M10 32h1M17 33h1" />
<path stroke="#2f220f" d="M17 20h1" />
<path stroke="#595c47" d="M12 21h1M11 22h1M13 22h1M15 22h1M17 22h1M10 23h1M10 24h1M18 24h1M9 32h1M8 33h1M16 34h1M8 35h1M10 35h1M17 35h1M18 36h2" />
<path stroke="#3b2e2e" d="M13 21h1" />
<path stroke="#727b80" d="M14 21h1" />
<path stroke="#797f84" d="M15 21h1" />
<path stroke="#4d5857" d="M16 21h1" />
<path stroke="#322828" d="M17 21h1M13 31h1M12 32h1M14 32h1M12 34h1M14 34h1M12 35h1M14 35h1M12 36h1M14 37h1" />
<path stroke="#554527" d="M12 22h1M14 22h1M16 22h1" />
<path stroke="#eadbb5" d="M18 22h1M13 24h1M16 24h1M13 28h1M13 30h1M9 31h1M18 33h1M9 34h1M18 34h1M19 35h1" />
<path stroke="#d8dac5" d="M11 23h1M12 24h1M14 24h2M12 27h1M14 27h1M12 29h1M14 29h1" />
<path stroke="#f6f8df" d="M13 23h1M15 23h1M13 27h1M13 29h1M8 32h1M9 35h1M18 35h1" />
<path stroke="#a6a494" d="M18 23h1M15 27h1M15 29h1" />
<path stroke="#7f7764" d="M11 25h1M13 25h1M12 26h4M17 30h1M10 31h1M16 32h1M18 32h1M19 33h1" />
<path stroke="#665e4c" d="M17 25h1M11 26h1M16 26h1M11 28h2M14 28h2M12 30h1M14 30h1" />
<path stroke="#352f21" d="M18 25h1M10 26h1M17 26h1M9 30h1M8 31h1M17 31h1M19 31h1M11 32h1M15 32h1M19 32h1M10 33h1M16 33h1M20 33h1M8 34h1M10 34h1M17 34h1M20 34h1M20 35h1" />
<path stroke="#0f0f0f" d="M10 27h1M16 27h1M16 29h1M11 30h1M15 30h1M11 31h1M15 31h1" />
<path stroke="#1a1a1a" d="M10 28h1M16 28h1M10 29h1M17 29h1M10 30h1" />
<path stroke="#210f0e" d="M12 31h1M14 31h1" />
<path stroke="#ddd8c4" d="M16 31h1M18 31h1M17 32h1M9 33h1M19 34h1" />
<path stroke="#5e7372" d="M13 32h1M13 33h1M13 35h1M12 37h1M14 38h1" />
<path stroke="#978d75" d="M11 33h1M15 33h1" />
<path stroke="#3a3f41" d="M12 33h1M14 33h1" />
<path stroke="#6d715f" d="M11 34h1M15 34h1M9 36h1" />
<path stroke="#8d959c" d="M13 34h1M13 36h1" />
<path stroke="#464b4d" d="M14 36h1" />
</svg>