<svg xmlns="http://www.w3.org/2000/svg" viewBox="0 -0.5 30 45" shape-rendering="crispEdges">
<metadata>Made with Pixels to Svg https://codepen.io/shshaw/pen/XbxvNj</metadata>
<path stroke="#443c2a" d="M19 28h1M22 29h1M22 30h1M22 31h1M22 32h1M18 33h1M21 33h1M18 34h3" />
<path stroke="#d7ca9e" d="M20 28h1M20 30h1" />
<path stroke="#eadbb5" d="M21 28h1M21 30h1M19 32h1" />
<path stroke="#f6f8df" d="M22 28h1" />
<path stroke="#595c47" d="M23 28h1M19 29h1M18 32h1M19 33h1" />
<path stroke="#7f7764" d="M20 29h1" />
<path stroke="#bebdab" d="M21 29h1M20 31h1" />
<path stroke="#6d715f" d="M19 30h1M18 31h1" />
<path stroke="#ddd8c4" d="M19 31h1M21 31h1" />
<path stroke="#d8dac5" d="M20 32h1" />
<path stroke="#a6a798" d="M21 32h1M20 33h1" />
</svg>