<svg xmlns="http://www.w3.org/2000/svg" viewBox="0 -0.5 30 45" shape-rendering="crispEdges">
<metadata>Made with Pixels to Svg https://codepen.io/shshaw/pen/XbxvNj</metadata>
<path stroke="#443c2a" d="M8 26h1M12 26h1M8 27h1M12 27h1M11 28h1M7 29h2M10 29h2M6 30h1M10 30h1M6 31h1M9 31h2M6 32h1M9 33h1" />
<path stroke="#f6f8df" d="M9 26h1M8 28h1" />
<path stroke="#eadbb5" d="M10 26h1M9 28h1M7 30h1" />
<path stroke="#d7ca9e" d="M11 26h1M9 29h1" />
<path stroke="#7f7764" d="M9 27h1M11 27h1M10 28h1M9 30h1" />
<path stroke="#bebdab" d="M10 27h1M8 30h1M7 31h1" />
<path stroke="#595c47" d="M7 28h1M9 32h1M8 33h1" />
<path stroke="#d8dac5" d="M8 31h1" />
<path stroke="#ddd8c4" d="M7 32h1" />
<path stroke="#a6a798" d="M8 32h1" />
<path stroke="#6d715f" d="M7 33h1" />
</svg>