<?xml version="1.0" encoding="UTF-8" ?>
<svg version="1.1" width="30" height="45" xmlns="http://www.w3.org/2000/svg" shape-rendering="crispEdges">
<rect x="11" y="38" width="1" height="1" fill="#393831" />
<rect x="12" y="38" width="1" height="1" fill="#A19678" />
<rect x="13" y="38" width="1" height="1" fill="#78715B" />
<rect x="14" y="38" width="1" height="1" fill="#1D120C" />
<rect x="11" y="39" width="1" height="1" fill="#393831" />
<rect x="12" y="39" width="1" height="1" fill="#78715B" />
<rect x="13" y="39" width="1" height="1" fill="#78715B" />
<rect x="14" y="39" width="1" height="1" fill="#1D120C" />
<rect x="12" y="40" width="1" height="1" fill="#1D120C" />
<rect x="13" y="40" width="1" height="1" fill="#472D1E" />
<rect x="14" y="40" width="1" height="1" fill="#1D120C" />
<rect x="12" y="41" width="1" height="1" fill="#1D120C" />
<rect x="13" y="41" width="1" height="1" fill="#472D1E" />
<rect x="14" y="41" width="1" height="1" fill="#1D120C" />
<rect x="12" y="42" width="1" height="1" fill="#E5B75E" />
<rect x="13" y="42" width="1" height="1" fill="#E5B75E" />
<rect x="14" y="42" width="1" height="1" fill="#78715B" />
</svg>