<?xml version="1.0" encoding="UTF-8" ?>
<svg version="1.1" width="30" height="45" xmlns="http://www.w3.org/2000/svg" shape-rendering="crispEdges">
<rect x="12" y="21" width="1" height="1" fill="#1D120C" />
<rect x="13" y="21" width="1" height="1" fill="#1D120C" />
<rect x="14" y="21" width="1" height="1" fill="#1D120C" />
<rect x="15" y="21" width="1" height="1" fill="#472E1B" />
<rect x="16" y="21" width="1" height="1" fill="#B1A583" />
<rect x="17" y="21" width="1" height="1" fill="#656048" />
<rect x="18" y="21" width="1" height="1" fill="#656048" />
<rect x="19" y="21" width="1" height="1" fill="#656048" />
<rect x="12" y="22" width="1" height="1" fill="#1D120C" />
<rect x="13" y="22" width="1" height="1" fill="#1D120C" />
<rect x="14" y="22" width="1" height="1" fill="#1D120C" />
<rect x="15" y="22" width="1" height="1" fill="#472E1B" />
<rect x="16" y="22" width="1" height="1" fill="#B1A583" />
<rect x="17" y="22" width="1" height="1" fill="#78715B" />
<rect x="18" y="22" width="1" height="1" fill="#393831" />
<rect x="19" y="22" width="1" height="1" fill="#656048" />
<rect x="20" y="22" width="1" height="1" fill="#656048" />
<rect x="10" y="23" width="1" height="1" fill="#85592E" />
<rect x="11" y="23" width="1" height="1" fill="#C4914C" />
<rect x="12" y="23" width="1" height="1" fill="#472E1B" />
<rect x="13" y="23" width="1" height="1" fill="#1D120C" />
<rect x="14" y="23" width="1" height="1" fill="#472E1B" />
<rect x="15" y="23" width="1" height="1" fill="#C4914C" />
<rect x="16" y="23" width="1" height="1" fill="#393831" />
<rect x="17" y="23" width="1" height="1" fill="#393831" />
<rect x="18" y="23" width="1" height="1" fill="#656048" />
<rect x="19" y="23" width="1" height="1" fill="#656048" />
<rect x="20" y="23" width="1" height="1" fill="#656048" />
<rect x="10" y="24" width="1" height="1" fill="#85592E" />
<rect x="11" y="24" width="1" height="1" fill="#F9D27B" />
<rect x="12" y="24" width="1" height="1" fill="#F9D27B" />
<rect x="13" y="24" width="1" height="1" fill="#472E1B" />
<rect x="14" y="24" width="1" height="1" fill="#F9D27B" />
<rect x="15" y="24" width="1" height="1" fill="#F9D27B" />
<rect x="16" y="24" width="1" height="1" fill="#85592E" />
<rect x="17" y="24" width="1" height="1" fill="#C4914C" />
<rect x="10" y="25" width="1" height="1" fill="#23231C" />
<rect x="11" y="25" width="1" height="1" fill="#C4914C" />
<rect x="12" y="25" width="1" height="1" fill="#C4914C" />
<rect x="13" y="25" width="1" height="1" fill="#472E1B" />
<rect x="14" y="25" width="1" height="1" fill="#C4914C" />
<rect x="15" y="25" width="1" height="1" fill="#C4914C" />
<rect x="16" y="25" width="1" height="1" fill="#C4914C" />
<rect x="17" y="25" width="1" height="1" fill="#1D120C" />
<rect x="18" y="25" width="1" height="1" fill="#1D120C" />
<rect x="10" y="26" width="1" height="1" fill="#1D120C" />
<rect x="11" y="26" width="1" height="1" fill="#1D120C" />
<rect x="12" y="26" width="1" height="1" fill="#E8E2D2" />
<rect x="13" y="26" width="1" height="1" fill="#E8E2D2" />
<rect x="14" y="26" width="1" height="1" fill="#E8E2D2" />
<rect x="15" y="26" width="1" height="1" fill="#1D120C" />
<rect x="16" y="26" width="1" height="1" fill="#1D120C" />
<rect x="17" y="26" width="1" height="1" fill="#1D120C" />
<rect x="10" y="27" width="1" height="1" fill="#1D120C" />
<rect x="11" y="27" width="1" height="1" fill="#E8E2D2" />
<rect x="12" y="27" width="1" height="1" fill="#B1A583" />
<rect x="13" y="27" width="1" height="1" fill="#B1A583" />
<rect x="14" y="27" width="1" height="1" fill="#B1A583" />
<rect x="15" y="27" width="1" height="1" fill="#E8E2D2" />
<rect x="16" y="27" width="1" height="1" fill="#1D120C" />
<rect x="17" y="27" width="1" height="1" fill="#1D120C" />
<rect x="10" y="28" width="1" height="1" fill="#1D120C" />
<rect x="11" y="28" width="1" height="1" fill="#B8B295" />
<rect x="12" y="28" width="1" height="1" fill="#B1A583" />
<rect x="13" y="28" width="1" height="1" fill="#E8E2D2" />
<rect x="14" y="28" width="1" height="1" fill="#B1A583" />
<rect x="15" y="28" width="1" height="1" fill="#E8E2D2" />
<rect x="16" y="28" width="1" height="1" fill="#1D120C" />
<rect x="17" y="28" width="1" height="1" fill="#1D120C" />
<rect x="10" y="29" width="1" height="1" fill="#1D120C" />
<rect x="11" y="29" width="1" height="1" fill="#8D8569" />
<rect x="12" y="29" width="1" height="1" fill="#58574C" />
<rect x="13" y="29" width="1" height="1" fill="#393831" />
<rect x="14" y="29" width="1" height="1" fill="#58574C" />
<rect x="15" y="29" width="1" height="1" fill="#E8E2D2" />
<rect x="16" y="29" width="1" height="1" fill="#1D120C" />
<rect x="17" y="29" width="1" height="1" fill="#1D120C" />
<rect x="10" y="30" width="1" height="1" fill="#1D120C" />
<rect x="11" y="30" width="1" height="1" fill="#8D8569" />
<rect x="12" y="30" width="1" height="1" fill="#58574C" />
<rect x="13" y="30" width="1" height="1" fill="#58574C" />
<rect x="14" y="30" width="1" height="1" fill="#58574C" />
<rect x="15" y="30" width="1" height="1" fill="#8D8569" />
<rect x="16" y="30" width="1" height="1" fill="#1D120C" />
<rect x="17" y="30" width="1" height="1" fill="#1D120C" />
<rect x="18" y="30" width="1" height="1" fill="#1D120C" />
<rect x="9" y="31" width="1" height="1" fill="#1D120C" />
<rect x="10" y="31" width="1" height="1" fill="#1D120C" />
<rect x="11" y="31" width="1" height="1" fill="#1D120C" />
<rect x="12" y="31" width="1" height="1" fill="#8D8569" />
<rect x="13" y="31" width="1" height="1" fill="#8D8569" />
<rect x="14" y="31" width="1" height="1" fill="#8D8569" />
<rect x="15" y="31" width="1" height="1" fill="#1D120C" />
<rect x="16" y="31" width="1" height="1" fill="#1D120C" />
<rect x="17" y="31" width="1" height="1" fill="#78715B" />
<rect x="18" y="31" width="1" height="1" fill="#78715B" />
<rect x="19" y="31" width="1" height="1" fill="#1D120C" />
<rect x="9" y="32" width="1" height="1" fill="#ACA686" />
<rect x="10" y="32" width="1" height="1" fill="#78715B" />
<rect x="11" y="32" width="1" height="1" fill="#1D120C" />
<rect x="12" y="32" width="1" height="1" fill="#1D120C" />
<rect x="13" y="32" width="1" height="1" fill="#1D120C" />
<rect x="14" y="32" width="1" height="1" fill="#1D120C" />
<rect x="15" y="32" width="1" height="1" fill="#1D120C" />
<rect x="16" y="32" width="1" height="1" fill="#78715B" />
<rect x="17" y="32" width="1" height="1" fill="#ACA686" />
<rect x="18" y="32" width="1" height="1" fill="#78715B" />
<rect x="19" y="32" width="1" height="1" fill="#1D120C" />
<rect x="9" y="33" width="1" height="1" fill="#ACA686" />
<rect x="10" y="33" width="1" height="1" fill="#78715B" />
<rect x="11" y="33" width="1" height="1" fill="#1D120C" />
<rect x="12" y="33" width="1" height="1" fill="#78715B" />
<rect x="13" y="33" width="1" height="1" fill="#ACA686" />
<rect x="14" y="33" width="1" height="1" fill="#78715B" />
<rect x="15" y="33" width="1" height="1" fill="#1D120C" />
<rect x="16" y="33" width="1" height="1" fill="#78715B" />
<rect x="17" y="33" width="1" height="1" fill="#ACA686" />
<rect x="18" y="33" width="1" height="1" fill="#78715B" />
<rect x="19" y="33" width="1" height="1" fill="#78715B" />
<rect x="8" y="34" width="1" height="1" fill="#1D120C" />
<rect x="9" y="34" width="1" height="1" fill="#78715B" />
<rect x="10" y="34" width="1" height="1" fill="#520B26" />
<rect x="11" y="34" width="1" height="1" fill="#520B26" />
<rect x="12" y="34" width="1" height="1" fill="#78715B" />
<rect x="13" y="34" width="1" height="1" fill="#ACA686" />
<rect x="14" y="34" width="1" height="1" fill="#78715B" />
<rect x="15" y="34" width="1" height="1" fill="#520B26" />
<rect x="16" y="34" width="1" height="1" fill="#520B26" />
<rect x="17" y="34" width="1" height="1" fill="#78715B" />
<rect x="18" y="34" width="1" height="1" fill="#ACA686" />
<rect x="19" y="34" width="1" height="1" fill="#78715B" />
<rect x="8" y="35" width="1" height="1" fill="#ACA686" />
<rect x="9" y="35" width="1" height="1" fill="#78715B" />
<rect x="10" y="35" width="1" height="1" fill="#520B26" />
<rect x="11" y="35" width="1" height="1" fill="#520B26" />
<rect x="12" y="35" width="1" height="1" fill="#78715B" />
<rect x="13" y="35" width="1" height="1" fill="#ACA686" />
<rect x="14" y="35" width="1" height="1" fill="#78715B" />
<rect x="15" y="35" width="1" height="1" fill="#520B26" />
<rect x="16" y="35" width="1" height="1" fill="#520B26" />
<rect x="17" y="35" width="1" height="1" fill="#78715B" />
<rect x="18" y="35" width="1" height="1" fill="#ACA686" />
<rect x="19" y="35" width="1" height="1" fill="#78715B" />
<rect x="8" y="36" width="1" height="1" fill="#E5B75E" />
<rect x="9" y="36" width="1" height="1" fill="#E5B75E" />
<rect x="10" y="36" width="1" height="1" fill="#520B26" />
<rect x="11" y="36" width="1" height="1" fill="#520B26" />
<rect x="12" y="36" width="1" height="1" fill="#E5B75E" />
<rect x="13" y="36" width="1" height="1" fill="#ACA686" />
<rect x="14" y="36" width="1" height="1" fill="#E5B75E" />
<rect x="15" y="36" width="1" height="1" fill="#520B26" />
<rect x="16" y="36" width="1" height="1" fill="#520B26" />
<rect x="17" y="36" width="1" height="1" fill="#472D1E" />
<rect x="18" y="36" width="1" height="1" fill="#E5B75E" />
<rect x="19" y="36" width="1" height="1" fill="#E5B75E" />
<rect x="10" y="37" width="1" height="1" fill="#1D120C" />
<rect x="11" y="37" width="1" height="1" fill="#1D120C" />
<rect x="12" y="37" width="1" height="1" fill="#1D120C" />
<rect x="13" y="37" width="1" height="1" fill="#E5B75E" />
<rect x="16" y="37" width="1" height="1" fill="#1D120C" />
<rect x="17" y="37" width="1" height="1" fill="#1D120C" />
</svg>