<?xml version="1.0" encoding="UTF-8" ?>
<svg version="1.1" width="30" height="45" xmlns="http://www.w3.org/2000/svg" shape-rendering="crispEdges">
<rect x="10" y="18" width="1" height="1" fill="#393831" />
<rect x="9" y="19" width="1" height="1" fill="#393831" />
<rect x="10" y="19" width="1" height="1" fill="#78715B" />
<rect x="11" y="19" width="1" height="1" fill="#B1A583" />
<rect x="8" y="20" width="1" height="1" fill="#393831" />
<rect x="9" y="20" width="1" height="1" fill="#393831" />
<rect x="10" y="20" width="1" height="1" fill="#B1A583" />
<rect x="11" y="20" width="1" height="1" fill="#B1A583" />
<rect x="12" y="20" width="1" height="1" fill="#78715B" />
<rect x="8" y="21" width="1" height="1" fill="#393831" />
<rect x="9" y="21" width="1" height="1" fill="#78715B" />
<rect x="10" y="21" width="1" height="1" fill="#393831" />
<rect x="11" y="21" width="1" height="1" fill="#B1A583" />
<rect x="12" y="21" width="1" height="1" fill="#78715B" />
<rect x="13" y="21" width="1" height="1" fill="#222222" />
<rect x="8" y="22" width="1" height="1" fill="#393831" />
<rect x="9" y="22" width="1" height="1" fill="#78715B" />
<rect x="10" y="22" width="1" height="1" fill="#78715B" />
<rect x="11" y="22" width="1" height="1" fill="#393831" />
<rect x="12" y="22" width="1" height="1" fill="#222222" />
<rect x="13" y="22" width="1" height="1" fill="#222222" />
<rect x="8" y="23" width="1" height="1" fill="#393831" />
<rect x="9" y="23" width="1" height="1" fill="#B1A583" />
<rect x="10" y="23" width="1" height="1" fill="#B1A583" />
<rect x="11" y="23" width="1" height="1" fill="#78715B" />
<rect x="12" y="23" width="1" height="1" fill="#78715B" />
<rect x="13" y="23" width="1" height="1" fill="#222222" />
<rect x="9" y="24" width="1" height="1" fill="#23231C" />
<rect x="10" y="24" width="1" height="1" fill="#222222" />
<rect x="11" y="24" width="1" height="1" fill="#222222" />
<rect x="12" y="24" width="1" height="1" fill="#222222" />
<rect x="13" y="24" width="1" height="1" fill="#222222" />
<rect x="10" y="25" width="1" height="1" fill="#23231C" />
<rect x="11" y="25" width="1" height="1" fill="#656048" />
<rect x="12" y="25" width="1" height="1" fill="#656048" />
<rect x="13" y="25" width="1" height="1" fill="#520B26" />
<rect x="9" y="26" width="1" height="1" fill="#23231C" />
<rect x="10" y="26" width="1" height="1" fill="#656048" />
<rect x="11" y="26" width="1" height="1" fill="#656048" />
<rect x="12" y="26" width="1" height="1" fill="#656048" />
<rect x="13" y="26" width="1" height="1" fill="#520B26" />
<rect x="9" y="27" width="1" height="1" fill="#23231C" />
<rect x="10" y="27" width="1" height="1" fill="#E5B75E" />
<rect x="11" y="27" width="1" height="1" fill="#23231C" />
<rect x="12" y="27" width="1" height="1" fill="#E5B75E" />
<rect x="8" y="28" width="1" height="1" fill="#23231C" />
<rect x="9" y="28" width="1" height="1" fill="#656048" />
<rect x="10" y="28" width="1" height="1" fill="#656048" />
<rect x="11" y="28" width="1" height="1" fill="#656048" />
<rect x="12" y="28" width="1" height="1" fill="#520B26" />
</svg>