<?xml version="1.0" encoding="UTF-8" ?>
<svg version="1.1" width="30" height="45" xmlns="http://www.w3.org/2000/svg" shape-rendering="crispEdges">
<rect x="8" y="38" width="1" height="1" fill="#6C520D" />
<rect x="9" y="38" width="1" height="1" fill="#FCD95D" />
<rect x="10" y="38" width="1" height="1" fill="#FCD95D" />
<rect x="11" y="38" width="1" height="1" fill="#FCD95D" />
<rect x="12" y="38" width="1" height="1" fill="#FCD95D" />
<rect x="13" y="38" width="1" height="1" fill="#F3AE35" />
<rect x="14" y="38" width="1" height="1" fill="#F3AE35" />
<rect x="15" y="38" width="1" height="1" fill="#FCD95D" />
<rect x="8" y="39" width="1" height="1" fill="#6C520D" />
<rect x="9" y="39" width="1" height="1" fill="#FCD95D" />
<rect x="10" y="39" width="1" height="1" fill="#FCD95D" />
<rect x="11" y="39" width="1" height="1" fill="#FCD95D" />
<rect x="12" y="39" width="1" height="1" fill="#FCD95D" />
<rect x="13" y="39" width="1" height="1" fill="#F3AE35" />
<rect x="14" y="39" width="1" height="1" fill="#F3AE35" />
<rect x="15" y="39" width="1" height="1" fill="#FCD95D" />
<rect x="8" y="40" width="1" height="1" fill="#6C520D" />
<rect x="9" y="40" width="1" height="1" fill="#FCD95D" />
<rect x="10" y="40" width="1" height="1" fill="#FCD95D" />
<rect x="11" y="40" width="1" height="1" fill="#F3AE35" />
<rect x="12" y="40" width="1" height="1" fill="#FCD95D" />
<rect x="13" y="40" width="1" height="1" fill="#FCD95D" />
<rect x="14" y="40" width="1" height="1" fill="#F3AE35" />
<rect x="15" y="40" width="1" height="1" fill="#FCD95D" />
<rect x="8" y="41" width="1" height="1" fill="#6C520D" />
<rect x="9" y="41" width="1" height="1" fill="#FCD95D" />
<rect x="10" y="41" width="1" height="1" fill="#FCD95D" />
<rect x="11" y="41" width="1" height="1" fill="#F3AE35" />
<rect x="12" y="41" width="1" height="1" fill="#FCD95D" />
<rect x="13" y="41" width="1" height="1" fill="#FCD95D" />
<rect x="14" y="41" width="1" height="1" fill="#C78B1B" />
<rect x="15" y="41" width="1" height="1" fill="#FCD95D" />
<rect x="8" y="42" width="1" height="1" fill="#6C520D" />
<rect x="9" y="42" width="1" height="1" fill="#F3AE35" />
<rect x="10" y="42" width="1" height="1" fill="#58D9AD" />
<rect x="11" y="42" width="1" height="1" fill="#C78B1B" />
<rect x="12" y="42" width="1" height="1" fill="#FCD95D" />
<rect x="13" y="42" width="1" height="1" fill="#58D9AD" />
<rect x="14" y="42" width="1" height="1" fill="#C78B1B" />
<rect x="15" y="42" width="1" height="1" fill="#FCD95D" />
</svg>