<?xml version="1.0" encoding="UTF-8" ?>
<svg version="1.1" width="30" height="45" xmlns="http://www.w3.org/2000/svg" shape-rendering="crispEdges">
<rect x="11" y="21" width="1" height="1" fill="#8D4BA2" />
<rect x="10" y="22" width="1" height="1" fill="#B970AE" />
<rect x="11" y="22" width="1" height="1" fill="#B970AE" />
<rect x="9" y="23" width="1" height="1" fill="#B970AE" />
<rect x="10" y="23" width="1" height="1" fill="#E9A9C6" />
<rect x="11" y="23" width="1" height="1" fill="#E9A9C6" />
<rect x="12" y="23" width="1" height="1" fill="#B970AE" />
<rect x="9" y="24" width="1" height="1" fill="#B970AE" />
<rect x="10" y="24" width="1" height="1" fill="#E9A9C6" />
<rect x="11" y="24" width="1" height="1" fill="#E9A9C6" />
<rect x="12" y="24" width="1" height="1" fill="#8D4BA2" />
<rect x="9" y="25" width="1" height="1" fill="#B970AE" />
<rect x="10" y="25" width="1" height="1" fill="#E9A9C6" />
<rect x="11" y="25" width="1" height="1" fill="#E9A9C6" />
<rect x="12" y="25" width="1" height="1" fill="#8D4BA2" />
<rect x="9" y="26" width="1" height="1" fill="#B970AE" />
<rect x="10" y="26" width="1" height="1" fill="#E9A9C6" />
<rect x="11" y="26" width="1" height="1" fill="#E9A9C6" />
<rect x="12" y="26" width="1" height="1" fill="#8D4BA2" />
<rect x="8" y="27" width="1" height="1" fill="#B970AE" />
<rect x="9" y="27" width="1" height="1" fill="#E9A9C6" />
<rect x="10" y="27" width="1" height="1" fill="#E9A9C6" />
<rect x="11" y="27" width="1" height="1" fill="#E9A9C6" />
<rect x="12" y="27" width="1" height="1" fill="#8D4BA2" />
<rect x="8" y="28" width="1" height="1" fill="#B970AE" />
<rect x="9" y="28" width="1" height="1" fill="#F7DDDB" />
<rect x="10" y="28" width="1" height="1" fill="#F7DDDB" />
<rect x="11" y="28" width="1" height="1" fill="#8D4BA2" />
<rect x="11" y="29" width="1" height="1" fill="#8D4BA2" />
</svg>