<?xml version="1.0" encoding="UTF-8" ?>
<svg version="1.1" width="30" height="45" xmlns="http://www.w3.org/2000/svg" shape-rendering="crispEdges">
<rect x="16" y="38" width="1" height="1" fill="#FCD95D" />
<rect x="17" y="38" width="1" height="1" fill="#F3AE35" />
<rect x="18" y="38" width="1" height="1" fill="#FCD95D" />
<rect x="19" y="38" width="1" height="1" fill="#FCD95D" />
<rect x="20" y="38" width="1" height="1" fill="#F3AE35" />
<rect x="21" y="38" width="1" height="1" fill="#FCD95D" />
<rect x="22" y="38" width="1" height="1" fill="#FCD95D" />
<rect x="23" y="38" width="1" height="1" fill="#6C520D" />
<rect x="16" y="39" width="1" height="1" fill="#FCD95D" />
<rect x="17" y="39" width="1" height="1" fill="#F3AE35" />
<rect x="18" y="39" width="1" height="1" fill="#FCD95D" />
<rect x="19" y="39" width="1" height="1" fill="#FCD95D" />
<rect x="20" y="39" width="1" height="1" fill="#F3AE35" />
<rect x="21" y="39" width="1" height="1" fill="#FCD95D" />
<rect x="22" y="39" width="1" height="1" fill="#FCD95D" />
<rect x="23" y="39" width="1" height="1" fill="#6C520D" />
<rect x="16" y="40" width="1" height="1" fill="#FCD95D" />
<rect x="17" y="40" width="1" height="1" fill="#F3AE35" />
<rect x="18" y="40" width="1" height="1" fill="#F3AE35" />
<rect x="19" y="40" width="1" height="1" fill="#FCD95D" />
<rect x="20" y="40" width="1" height="1" fill="#FCD95D" />
<rect x="21" y="40" width="1" height="1" fill="#F3AE35" />
<rect x="22" y="40" width="1" height="1" fill="#FCD95D" />
<rect x="23" y="40" width="1" height="1" fill="#CB9507" />
<rect x="24" y="40" width="1" height="1" fill="#6C520D" />
<rect x="16" y="41" width="1" height="1" fill="#FCD95D" />
<rect x="17" y="41" width="1" height="1" fill="#FCD95D" />
<rect x="18" y="41" width="1" height="1" fill="#F3AE35" />
<rect x="19" y="41" width="1" height="1" fill="#FCD95D" />
<rect x="20" y="41" width="1" height="1" fill="#FCD95D" />
<rect x="21" y="41" width="1" height="1" fill="#F3AE35" />
<rect x="22" y="41" width="1" height="1" fill="#FCD95D" />
<rect x="23" y="41" width="1" height="1" fill="#FCD95D" />
<rect x="24" y="41" width="1" height="1" fill="#6C520D" />
<rect x="16" y="42" width="1" height="1" fill="#58D9AD" />
<rect x="17" y="42" width="1" height="1" fill="#FCD95D" />
<rect x="18" y="42" width="1" height="1" fill="#C78B1B" />
<rect x="19" y="42" width="1" height="1" fill="#58D9AD" />
<rect x="20" y="42" width="1" height="1" fill="#FCD95D" />
<rect x="21" y="42" width="1" height="1" fill="#F3AE35" />
<rect x="22" y="42" width="1" height="1" fill="#58D9AD" />
<rect x="23" y="42" width="1" height="1" fill="#FCD95D" />
<rect x="24" y="42" width="1" height="1" fill="#6C520D" />
</svg>