<?xml version="1.0" encoding="UTF-8" ?>
<svg version="1.1" width="30" height="45" xmlns="http://www.w3.org/2000/svg" shape-rendering="crispEdges">
<rect x="18" y="29" width="1" height="1" fill="#CB9507" />
<rect x="19" y="29" width="1" height="1" fill="#6C520D" />
<rect x="15" y="30" width="1" height="1" fill="#F3AE35" />
<rect x="16" y="30" width="1" height="1" fill="#FCD95D" />
<rect x="17" y="30" width="1" height="1" fill="#FCD95D" />
<rect x="18" y="30" width="1" height="1" fill="#CB9507" />
<rect x="19" y="30" width="1" height="1" fill="#CB9507" />
<rect x="20" y="30" width="1" height="1" fill="#6C520D" />
<rect x="15" y="31" width="1" height="1" fill="#F3AE35" />
<rect x="16" y="31" width="1" height="1" fill="#F3AE35" />
<rect x="17" y="31" width="1" height="1" fill="#FCD95D" />
<rect x="18" y="31" width="1" height="1" fill="#FCD95D" />
<rect x="19" y="31" width="1" height="1" fill="#CB9507" />
<rect x="20" y="31" width="1" height="1" fill="#6C520D" />
<rect x="15" y="32" width="1" height="1" fill="#FCD95D" />
<rect x="16" y="32" width="1" height="1" fill="#F3AE35" />
<rect x="17" y="32" width="1" height="1" fill="#FCD95D" />
<rect x="18" y="32" width="1" height="1" fill="#FCD95D" />
<rect x="19" y="32" width="1" height="1" fill="#FCD95D" />
<rect x="20" y="32" width="1" height="1" fill="#CB9507" />
<rect x="21" y="32" width="1" height="1" fill="#6C520D" />
<rect x="15" y="33" width="1" height="1" fill="#FCD95D" />
<rect x="16" y="33" width="1" height="1" fill="#F3AE35" />
<rect x="17" y="33" width="1" height="1" fill="#FCD95D" />
<rect x="18" y="33" width="1" height="1" fill="#FCD95D" />
<rect x="19" y="33" width="1" height="1" fill="#FCD95D" />
<rect x="20" y="33" width="1" height="1" fill="#CB9507" />
<rect x="21" y="33" width="1" height="1" fill="#6C520D" />
<rect x="15" y="34" width="1" height="1" fill="#FCD95D" />
<rect x="16" y="34" width="1" height="1" fill="#FCD95D" />
<rect x="17" y="34" width="1" height="1" fill="#FCD95D" />
<rect x="18" y="34" width="1" height="1" fill="#FCD95D" />
<rect x="19" y="34" width="1" height="1" fill="#FCD95D" />
<rect x="20" y="34" width="1" height="1" fill="#FCD95D" />
<rect x="21" y="34" width="1" height="1" fill="#CB9507" />
<rect x="22" y="34" width="1" height="1" fill="#6C520D" />
<rect x="15" y="35" width="1" height="1" fill="#FCD95D" />
<rect x="16" y="35" width="1" height="1" fill="#FCD95D" />
<rect x="17" y="35" width="1" height="1" fill="#F3AE35" />
<rect x="18" y="35" width="1" height="1" fill="#FCD95D" />
<rect x="19" y="35" width="1" height="1" fill="#FCD95D" />
<rect x="20" y="35" width="1" height="1" fill="#FCD95D" />
<rect x="21" y="35" width="1" height="1" fill="#FCD95D" />
<rect x="22" y="35" width="1" height="1" fill="#6C520D" />
<rect x="15" y="36" width="1" height="1" fill="#FCD95D" />
<rect x="16" y="36" width="1" height="1" fill="#FCD95D" />
<rect x="17" y="36" width="1" height="1" fill="#F3AE35" />
<rect x="18" y="36" width="1" height="1" fill="#FCD95D" />
<rect x="19" y="36" width="1" height="1" fill="#FCD95D" />
<rect x="20" y="36" width="1" height="1" fill="#FCD95D" />
<rect x="21" y="36" width="1" height="1" fill="#FCD95D" />
<rect x="22" y="36" width="1" height="1" fill="#6C520D" />
<rect x="15" y="37" width="1" height="1" fill="#FCD95D" />
<rect x="16" y="37" width="1" height="1" fill="#FCD95D" />
<rect x="17" y="37" width="1" height="1" fill="#F3AE35" />
<rect x="18" y="37" width="1" height="1" fill="#FCD95D" />
<rect x="19" y="37" width="1" height="1" fill="#FCD95D" />
<rect x="20" y="37" width="1" height="1" fill="#F3AE35" />
<rect x="21" y="37" width="1" height="1" fill="#FCD95D" />
<rect x="22" y="37" width="1" height="1" fill="#CB9507" />
<rect x="23" y="37" width="1" height="1" fill="#6C520D" />
</svg>