<?xml version="1.0" encoding="UTF-8" ?>
<svg version="1.1" width="30" height="45" xmlns="http://www.w3.org/2000/svg" shape-rendering="crispEdges">
<rect x="16" y="43" width="1" height="1" fill="#FCD95D" />
<rect x="17" y="43" width="1" height="1" fill="#FCD95D" />
<rect x="18" y="43" width="1" height="1" fill="#C78B1B" />
<rect x="19" y="43" width="1" height="1" fill="#FCD95D" />
<rect x="20" y="43" width="1" height="1" fill="#FCD95D" />
<rect x="21" y="43" width="1" height="1" fill="#C78B1B" />
<rect x="22" y="43" width="1" height="1" fill="#FCD95D" />
<rect x="23" y="43" width="1" height="1" fill="#6C520D" />
<rect x="24" y="43" width="1" height="1" fill="#6C520D" />
<rect x="16" y="44" width="1" height="1" fill="#C78B1B" />
<rect x="17" y="44" width="1" height="1" fill="#C78B1B" />
<rect x="18" y="44" width="1" height="1" fill="#C78B1B" />
<rect x="19" y="44" width="1" height="1" fill="#C78B1B" />
<rect x="20" y="44" width="1" height="1" fill="#C78B1B" />
<rect x="21" y="44" width="1" height="1" fill="#6C520D" />
<rect x="22" y="44" width="1" height="1" fill="#6C520D" />
<rect x="23" y="44" width="1" height="1" fill="#6C520D" />
</svg>