<svg xmlns="http://www.w3.org/2000/svg" viewBox="0 -0.5 30 45" shape-rendering="crispEdges">
<metadata>Made with Pixels to Svg https://codepen.io/shshaw/pen/XbxvNj</metadata>
<path stroke="#dfd4cf" d="M12 20h1M12 22h1M13 29h1M13 31h1" />
<path stroke="#9a9997" d="M17 20h1M13 30h1M17 30h1" />
<path stroke="#261912" d="M18 20h1M17 29h1M9 30h1M18 30h1M17 31h1" />
<path stroke="#41322b" d="M12 21h1M16 22h1M12 23h1M14 23h1M12 28h1M14 28h1M12 29h1M14 29h1M11 30h1" />
<path stroke="#564a45" d="M13 21h1" />
<path stroke="#352821" d="M14 21h1M17 21h1M12 27h1M14 27h1M10 29h1M16 29h1M10 31h1M16 31h1M11 32h1M13 32h1M15 32h1" />
<path stroke="#d7d2d3" d="M15 21h1M11 31h1M15 31h1" />
<path stroke="#aeaaa8" d="M16 21h1M14 22h1M13 23h1M13 26h1M13 28h1M10 30h1M16 30h1" />
<path stroke="#20395f" d="M18 21h1M17 22h1" />
<path stroke="#4e4541" d="M11 22h1M15 22h1M12 30h1M14 30h2M12 32h1M14 32h1" />
<path stroke="#ffffff" d="M13 22h1M13 27h1M12 31h1M14 31h1" />
<path stroke="#223c65" d="M18 22h1" />
<path stroke="#1c2331" d="M10 23h1" />
<path stroke="#edffff" d="M11 23h1M15 23h2" />
<path stroke="#b6cbe2" d="M17 23h1M16 24h1" />
<path stroke="#233e68" d="M18 23h1" />
<path stroke="#111a29" d="M10 24h1M18 24h1M10 26h1M17 26h1M10 27h1M16 27h1M10 28h1M16 28h1" />
<path stroke="#c9dff2" d="M11 24h2M14 24h2" />
<path stroke="#8395ab" d="M13 24h1M11 25h2M14 25h2" />
<path stroke="#707789" d="M17 24h1M16 25h1" />
<path stroke="#211b22" d="M10 25h1M17 25h2M11 26h1M16 26h1" />
<path stroke="#383841" d="M13 25h1M12 26h1M14 26h2" />
<path stroke="rgba(50,98,171,0.3568627450980392)" d="M11 27h1M15 27h1M11 28h1M15 28h1M11 29h1M15 29h1" />
<path stroke="#132035" d="M13 33h1" />
</svg>