<svg xmlns="http://www.w3.org/2000/svg" viewBox="0 -0.5 30 45" shape-rendering="crispEdges">
<metadata>Made with Pixels to Svg https://codepen.io/shshaw/pen/XbxvNj</metadata>
<path stroke="#111823" d="M9 30h2M9 31h1M9 32h1M12 33h1M12 34h1M11 35h1M10 36h1M9 37h2M7 38h2" />
<path stroke="#20395f" d="M11 30h2M10 31h3M10 32h3M11 33h1" />
<path stroke="#132035" d="M13 30h1M13 31h1M13 32h1M13 33h1M13 34h1M13 35h1M13 36h1M13 37h1" />
<path stroke="#1e375f" d="M9 33h1M9 34h1M9 35h1" />
<path stroke="#233e68" d="M10 33h1" />
<path stroke="#2b3648" d="M8 34h1M7 36h1M7 37h1" />
<path stroke="#23416e" d="M10 34h1" />
<path stroke="#223c65" d="M11 34h1" />
<path stroke="#354459" d="M7 35h1" />
<path stroke="rgba(50,98,171,0.3568627450980392)" d="M8 35h1M8 36h2M8 37h1" />
<path stroke="#2a4a7b" d="M10 35h1" />
<path stroke="#1a283f" d="M12 35h1" />
<path stroke="#676d7d" d="M11 36h1" />
<path stroke="#213657" d="M12 36h1" />
<path stroke="#273e62" d="M11 37h1" />
<path stroke="#78879a" d="M12 37h1" />
</svg>