<svg xmlns="http://www.w3.org/2000/svg" viewBox="0 -0.5 30 45" shape-rendering="crispEdges">
<metadata>Made with Pixels to Svg https://codepen.io/shshaw/pen/XbxvNj</metadata>
<path stroke="#2b3648" d="M16 29h2M14 30h2M18 30h1M13 31h2M19 31h1M20 32h1M20 33h1M21 34h1M21 35h1M23 38h1M22 39h1M23 40h1M24 41h1" />
<path stroke="#20395f" d="M16 30h2M15 31h4M14 32h6M15 33h1M19 33h1M20 34h1" />
<path stroke="#111823" d="M13 32h1M13 33h2M14 34h1M15 35h1M16 36h2M18 37h3M19 38h1M21 38h2M19 39h1M20 40h1M21 41h1M22 42h2" />
<path stroke="#223c65" d="M16 33h1M18 33h1M15 34h1M17 34h1" />
<path stroke="#233e68" d="M17 33h1" />
<path stroke="#23416e" d="M16 34h1M17 35h1" />
<path stroke="#2a4a7b" d="M18 34h2M16 35h1" />
<path stroke="#274574" d="M18 35h1" />
<path stroke="#1e375f" d="M19 35h1M19 36h1" />
<path stroke="rgba(50,98,171,0.3568627450980392)" d="M20 35h1M20 36h2M21 37h2M20 38h1M20 39h2M21 40h2M22 41h2" />
<path stroke="#132035" d="M15 36h1M16 37h1" />
<path stroke="#546a8d" d="M18 36h1" />
<path stroke="#354459" d="M22 36h1M23 37h1M24 40h1" />
<path stroke="#78879a" d="M17 37h1" />
</svg>