<svg xmlns="http://www.w3.org/2000/svg" viewBox="0 -0.5 30 45" shape-rendering="crispEdges">
<metadata>Made with Pixels to Svg https://codepen.io/shshaw/pen/XbxvNj</metadata>
<path stroke="#111823" d="M10 37h1M10 38h1M10 39h1M10 40h1M9 41h1M7 42h3M7 43h1M9 43h1M8 44h1" />
<path stroke="rgba(50,98,171,0.3568627450980392)" d="M9 38h1M9 39h1M8 40h2M7 41h2M8 43h1M7 44h1" />
<path stroke="#132035" d="M11 38h1M14 38h1" />
<path stroke="#273e62" d="M12 38h1M13 39h1" />
<path stroke="#a4b6ca" d="M13 38h1M12 39h1M13 40h1M13 41h1" />
<path stroke="#2b3648" d="M8 39h1M6 42h1" />
<path stroke="#d3e5f9" d="M11 39h1M12 40h1" />
<path stroke="#37373f" d="M14 39h1" />
<path stroke="#354459" d="M7 40h1M6 41h1M6 44h1" />
<path stroke="#676d7d" d="M14 40h1" />
<path stroke="#b4c7d8" d="M12 41h1M12 42h1" />
<path stroke="#78879a" d="M14 41h1M13 42h1" />
<path stroke="#1a283f" d="M14 42h1" />
</svg>