<svg xmlns="http://www.w3.org/2000/svg" viewBox="0 -0.5 30 45" shape-rendering="crispEdges">
<metadata>Made with Pixels to Svg https://codepen.io/shshaw/pen/XbxvNj</metadata>
<path stroke="#261912" d="M18 20h1" />
<path stroke="#20395f" d="M18 21h1" />
<path stroke="#1c2331" d="M19 21h2M21 22h1M22 23h1M22 24h1M23 25h1M23 26h1M24 27h1M24 28h1" />
<path stroke="#223c65" d="M18 22h2" />
<path stroke="#23416e" d="M20 22h1M19 23h1M21 23h1" />
<path stroke="#233e68" d="M18 23h1" />
<path stroke="#2a4a7b" d="M20 23h1M19 24h1M20 25h1M22 25h1M21 26h1M22 27h1" />
<path stroke="#111a29" d="M18 24h1M19 25h1M19 26h1M19 27h1M19 28h1" />
<path stroke="#274574" d="M20 24h2" />
<path stroke="#211b22" d="M18 25h1" />
<path stroke="#7b98bf" d="M21 25h1M20 28h1" />
<path stroke="#546a8d" d="M20 26h1M20 27h1" />
<path stroke="#5f7a9f" d="M22 26h1M22 28h1" />
<path stroke="#99b6dd" d="M21 27h1" />
<path stroke="rgba(50,98,171,0.3568627450980392)" d="M23 27h1M23 28h1" />
<path stroke="#86a3c8" d="M21 28h1" />
</svg>