<svg xmlns="http://www.w3.org/2000/svg" viewBox="0 -0.5 30 45" shape-rendering="crispEdges">
<metadata>Made with Pixels to Svg https://codepen.io/shshaw/pen/XbxvNj</metadata>
<path stroke="#1c2331" d="M8 26h1M12 26h1M8 27h1M11 27h1" />
<path stroke="#2a4a7b" d="M9 26h1M11 26h1M10 27h1" />
<path stroke="#7b98bf" d="M10 26h1M9 27h1" />
<path stroke="#111823" d="M12 27h1M11 28h1M11 29h1M9 30h2M9 31h2M9 32h1M8 33h1" />
<path stroke="#111a29" d="M7 28h1M7 29h1" />
<path stroke="#5f7a9f" d="M8 28h1" />
<path stroke="#99b6dd" d="M9 28h1" />
<path stroke="rgba(50,98,171,0.3568627450980392)" d="M10 28h1M10 29h1" />
<path stroke="#546a8d" d="M8 29h1" />
<path stroke="#86a3c8" d="M9 29h1" />
<path stroke="#211b22" d="M7 30h2M6 31h1M6 32h1M7 33h1" />
<path stroke="#edffff" d="M7 31h1" />
<path stroke="#c9dff2" d="M8 31h1" />
<path stroke="#b6cbe2" d="M7 32h1" />
<path stroke="#8395ab" d="M8 32h1" />
</svg>