<svg xmlns="http://www.w3.org/2000/svg" viewBox="0 -0.5 30 45" shape-rendering="crispEdges">
<metadata>Made with Pixels to Svg https://codepen.io/shshaw/pen/XbxvNj</metadata>
<path stroke="#132035" d="M17 38h1M17 39h1" />
<path stroke="#a4b6ca" d="M18 38h1M19 39h2M19 40h2M20 41h1M20 42h1" />
<path stroke="#273e62" d="M19 38h1M18 39h1" />
<path stroke="#1e375f" d="M20 38h1" />
<path stroke="#676d7d" d="M18 40h1M18 41h1" />
<path stroke="#78879a" d="M19 41h1" />
<path stroke="#1a283f" d="M21 41h1M19 42h1" />
<path stroke="#b4c7d8" d="M21 42h1" />
<path stroke="#111823" d="M22 42h2M22 43h1M23 44h1" />
<path stroke="rgba(50,98,171,0.3568627450980392)" d="M23 43h1M24 44h2" />
<path stroke="#2b3648" d="M24 43h1" />
<path stroke="#354459" d="M25 43h1M26 44h1" />
</svg>