<svg xmlns="http://www.w3.org/2000/svg" viewBox="0 -0.5 30 45" shape-rendering="crispEdges">
<metadata>Made with Pixels to Svg https://codepen.io/shshaw/pen/XbxvNj</metadata>
<path stroke="#1c2331" d="M12 21h2M11 22h1M10 23h1M10 24h1M9 25h1M13 25h1M8 26h1M12 26h1M8 27h1M11 27h2" />
<path stroke="#20395f" d="M12 22h2M13 23h1M12 25h1" />
<path stroke="#274574" d="M11 23h1" />
<path stroke="#23416e" d="M12 23h1M13 24h1" />
<path stroke="#2a4a7b" d="M11 24h2M10 25h1M9 26h1M11 26h1M10 27h1" />
<path stroke="#7b98bf" d="M11 25h1M10 26h1M9 27h1" />
<path stroke="rgba(50,98,171,0.3568627450980392)" d="M10 28h1" />
<path stroke="#111823" d="M11 28h1" />
</svg>