<svg xmlns="http://www.w3.org/2000/svg" viewBox="0 -0.5 30 45" shape-rendering="crispEdges">
<metadata>Made with Pixels to Svg https://codepen.io/shshaw/pen/XbxvNj</metadata>
<path stroke="#111a29" d="M19 28h1" />
<path stroke="#7b98bf" d="M20 28h1M21 29h1" />
<path stroke="#86a3c8" d="M21 28h1" />
<path stroke="#5f7a9f" d="M22 28h1M22 29h1" />
<path stroke="rgba(50,98,171,0.3568627450980392)" d="M23 28h1M23 29h1" />
<path stroke="#1c2331" d="M24 28h1M24 29h1M23 30h1M19 32h1M19 33h1" />
<path stroke="#211b22" d="M19 29h2M19 30h1M21 30h1M18 31h1M22 31h1M18 32h1M22 32h1M21 33h1M19 34h2" />
<path stroke="#edffff" d="M20 30h1" />
<path stroke="#546a8d" d="M22 30h1" />
<path stroke="#8395ab" d="M19 31h1M21 32h1" />
<path stroke="#c9dff2" d="M20 31h1M20 32h1" />
<path stroke="#b6cbe2" d="M21 31h1" />
<path stroke="#1e375f" d="M18 33h1M18 34h1" />
<path stroke="#707789" d="M20 33h1" />
</svg>