<?xml version="1.0" encoding="UTF-8" ?>
<svg version="1.1" width="30" height="45" xmlns="http://www.w3.org/2000/svg" shape-rendering="crispEdges">
<rect x="19" y="28" width="1" height="1" fill="#050C14" />
<rect x="20" y="28" width="1" height="1" fill="#A7A8AA" />
<rect x="21" y="28" width="1" height="1" fill="#FFFCF7" />
<rect x="22" y="28" width="1" height="1" fill="#050C14" />
<rect x="19" y="29" width="1" height="1" fill="#050C14" />
<rect x="20" y="29" width="1" height="1" fill="#0E1A29" />
<rect x="21" y="29" width="1" height="1" fill="#202E3C" />
<rect x="22" y="29" width="1" height="1" fill="#202E3C" />
<rect x="19" y="30" width="1" height="1" fill="#0C090D" />
<rect x="20" y="30" width="1" height="1" fill="#704D43" />
<rect x="21" y="30" width="1" height="1" fill="#704D43" />
<rect x="22" y="30" width="1" height="1" fill="#0C090D" />
<rect x="18" y="31" width="1" height="1" fill="#0C090D" />
<rect x="19" y="31" width="1" height="1" fill="#463035" />
<rect x="20" y="31" width="1" height="1" fill="#704D43" />
<rect x="21" y="31" width="1" height="1" fill="#704D43" />
<rect x="22" y="31" width="1" height="1" fill="#0C090D" />
<rect x="18" y="32" width="1" height="1" fill="#0C090D" />
<rect x="19" y="32" width="1" height="1" fill="#342B2E" />
<rect x="20" y="32" width="1" height="1" fill="#463035" />
<rect x="21" y="32" width="1" height="1" fill="#463035" />
<rect x="22" y="32" width="1" height="1" fill="#0C090D" />
<rect x="19" y="33" width="1" height="1" fill="#0C090D" />
<rect x="20" y="33" width="1" height="1" fill="#342B2E" />
<rect x="21" y="33" width="1" height="1" fill="#0C090D" />
<rect x="19" y="34" width="1" height="1" fill="#0C090D" />
<rect x="20" y="34" width="1" height="1" fill="#0C090D" />
</svg>