<?xml version="1.0" encoding="UTF-8" ?>
<svg version="1.1" width="30" height="45" xmlns="http://www.w3.org/2000/svg" shape-rendering="crispEdges">
<rect x="17" y="38" width="1" height="1" fill="#050C14" />
<rect x="18" y="38" width="1" height="1" fill="#0C090D" />
<rect x="19" y="38" width="1" height="1" fill="#0C090D" />
<rect x="20" y="38" width="1" height="1" fill="#0C090D" />
<rect x="17" y="39" width="1" height="1" fill="#1D0907" />
<rect x="18" y="39" width="1" height="1" fill="#252021" />
<rect x="19" y="39" width="1" height="1" fill="#523D38" />
<rect x="20" y="39" width="1" height="1" fill="#0C090D" />
<rect x="17" y="40" width="1" height="1" fill="#0C090D" />
<rect x="18" y="40" width="1" height="1" fill="#1D0907" />
<rect x="19" y="40" width="1" height="1" fill="#252021" />
<rect x="20" y="40" width="1" height="1" fill="#1D0907" />
<rect x="18" y="41" width="1" height="1" fill="#1D0907" />
<rect x="19" y="41" width="1" height="1" fill="#1A1A1C" />
<rect x="20" y="41" width="1" height="1" fill="#523D38" />
<rect x="21" y="41" width="1" height="1" fill="#1D0907" />
<rect x="19" y="42" width="1" height="1" fill="#1D0907" />
<rect x="20" y="42" width="1" height="1" fill="#252021" />
<rect x="21" y="42" width="1" height="1" fill="#1D0907" />
</svg>