<?xml version="1.0" encoding="UTF-8" ?>
<svg version="1.1" width="30" height="45" xmlns="http://www.w3.org/2000/svg" shape-rendering="crispEdges">
<rect x="18" y="20" width="1" height="1" fill="#FFFCF7" />
<rect x="19" y="20" width="1" height="1" fill="#0C090D" />
<rect x="20" y="20" width="1" height="1" fill="#0C090D" />
<rect x="17" y="21" width="1" height="1" fill="#FFFCF7" />
<rect x="18" y="21" width="1" height="1" fill="#463035" />
<rect x="19" y="21" width="1" height="1" fill="#704D43" />
<rect x="20" y="21" width="1" height="1" fill="#704D43" />
<rect x="21" y="21" width="1" height="1" fill="#0C090D" />
<rect x="17" y="22" width="1" height="1" fill="#A7A8AA" />
<rect x="18" y="22" width="1" height="1" fill="#0C090D" />
<rect x="19" y="22" width="1" height="1" fill="#704D43" />
<rect x="20" y="22" width="1" height="1" fill="#463035" />
<rect x="21" y="22" width="1" height="1" fill="#704D43" />
<rect x="22" y="22" width="1" height="1" fill="#0C090D" />
<rect x="17" y="23" width="1" height="1" fill="#A7A8AA" />
<rect x="18" y="23" width="1" height="1" fill="#0C090D" />
<rect x="19" y="23" width="1" height="1" fill="#463035" />
<rect x="20" y="23" width="1" height="1" fill="#704D43" />
<rect x="21" y="23" width="1" height="1" fill="#704D43" />
<rect x="22" y="23" width="1" height="1" fill="#0C090D" />
<rect x="18" y="24" width="1" height="1" fill="#A7A8AA" />
<rect x="19" y="24" width="1" height="1" fill="#0C090D" />
<rect x="20" y="24" width="1" height="1" fill="#0C090D" />
<rect x="21" y="24" width="1" height="1" fill="#0C090D" />
<rect x="22" y="24" width="1" height="1" fill="#0C090D" />
<rect x="18" y="25" width="1" height="1" fill="#1D0907" />
<rect x="19" y="25" width="1" height="1" fill="#A7A8AA" />
<rect x="20" y="25" width="1" height="1" fill="#A7A8AA" />
<rect x="21" y="25" width="1" height="1" fill="#FFFCF7" />
<rect x="22" y="25" width="1" height="1" fill="#FFFCF7" />
<rect x="19" y="26" width="1" height="1" fill="#050C14" />
<rect x="20" y="26" width="1" height="1" fill="#0E1A29" />
<rect x="21" y="26" width="1" height="1" fill="#202E3C" />
<rect x="22" y="26" width="1" height="1" fill="#0C1F2A" />
<rect x="19" y="27" width="1" height="1" fill="#050C14" />
<rect x="20" y="27" width="1" height="1" fill="#0E1A29" />
<rect x="21" y="27" width="1" height="1" fill="#202E3C" />
<rect x="22" y="27" width="1" height="1" fill="#0C1F2A" />
</svg>