<?xml version="1.0" encoding="UTF-8" ?>
<svg version="1.1" width="30" height="45" xmlns="http://www.w3.org/2000/svg" shape-rendering="crispEdges">
<rect x="12" y="20" width="1" height="1" fill="#120E0F" />
<rect x="17" y="20" width="1" height="1" fill="#120E0F" />
<rect x="12" y="21" width="1" height="1" fill="#120E0F" />
<rect x="15" y="21" width="1" height="1" fill="#120E0F" />
<rect x="16" y="21" width="1" height="1" fill="#120E0F" />
<rect x="17" y="21" width="1" height="1" fill="#62565B" />
<rect x="12" y="22" width="1" height="1" fill="#120E0F" />
<rect x="14" y="22" width="1" height="1" fill="#120E0F" />
<rect x="15" y="22" width="1" height="1" fill="#62565B" />
<rect x="16" y="22" width="1" height="1" fill="#62565B" />
<rect x="17" y="22" width="1" height="1" fill="#3B3335" />
<rect x="11" y="23" width="1" height="1" fill="#351745" />
<rect x="12" y="23" width="1" height="1" fill="#62565B" />
<rect x="13" y="23" width="1" height="1" fill="#120E0F" />
<rect x="14" y="23" width="1" height="1" fill="#62565B" />
<rect x="15" y="23" width="1" height="1" fill="#351745" />
<rect x="16" y="23" width="1" height="1" fill="#351745" />
<rect x="17" y="23" width="1" height="1" fill="#120E0F" />
<rect x="10" y="24" width="1" height="1" fill="#351745" />
<rect x="11" y="24" width="1" height="1" fill="#523163" />
<rect x="12" y="24" width="1" height="1" fill="#1C0827" />
<rect x="13" y="24" width="1" height="1" fill="#62565B" />
<rect x="14" y="24" width="1" height="1" fill="#1C0827" />
<rect x="15" y="24" width="1" height="1" fill="#523163" />
<rect x="16" y="24" width="1" height="1" fill="#523163" />
<rect x="17" y="24" width="1" height="1" fill="#351745" />
<rect x="10" y="25" width="1" height="1" fill="#1C0827" />
<rect x="11" y="25" width="1" height="1" fill="#351745" />
<rect x="12" y="25" width="1" height="1" fill="#523163" />
<rect x="13" y="25" width="1" height="1" fill="#1C0827" />
<rect x="14" y="25" width="1" height="1" fill="#523163" />
<rect x="15" y="25" width="1" height="1" fill="#523163" />
<rect x="16" y="25" width="1" height="1" fill="#351745" />
<rect x="17" y="25" width="1" height="1" fill="#351745" />
<rect x="18" y="25" width="1" height="1" fill="#1C0827" />
<rect x="11" y="26" width="1" height="1" fill="#1C0827" />
<rect x="12" y="26" width="1" height="1" fill="#351745" />
<rect x="13" y="26" width="1" height="1" fill="#C86F0A" />
<rect x="14" y="26" width="1" height="1" fill="#351745" />
<rect x="15" y="26" width="1" height="1" fill="#351745" />
<rect x="16" y="26" width="1" height="1" fill="#351745" />
<rect x="17" y="26" width="1" height="1" fill="#1C0827" />
<rect x="11" y="27" width="1" height="1" fill="#1C0827" />
<rect x="12" y="27" width="1" height="1" fill="#523163" />
<rect x="13" y="27" width="1" height="1" fill="#1C0827" />
<rect x="14" y="27" width="1" height="1" fill="#523163" />
<rect x="15" y="27" width="1" height="1" fill="#351745" />
<rect x="16" y="27" width="1" height="1" fill="#1C0827" />
<rect x="11" y="28" width="1" height="1" fill="#1C0827" />
<rect x="12" y="28" width="1" height="1" fill="#523163" />
<rect x="13" y="28" width="1" height="1" fill="#C86F0A" />
<rect x="14" y="28" width="1" height="1" fill="#523163" />
<rect x="15" y="28" width="1" height="1" fill="#351745" />
<rect x="16" y="28" width="1" height="1" fill="#1C0827" />
<rect x="10" y="29" width="1" height="1" fill="#1C0827" />
<rect x="11" y="29" width="1" height="1" fill="#1C0827" />
<rect x="12" y="29" width="1" height="1" fill="#523163" />
<rect x="13" y="29" width="1" height="1" fill="#1C0827" />
<rect x="14" y="29" width="1" height="1" fill="#523163" />
<rect x="15" y="29" width="1" height="1" fill="#351745" />
<rect x="16" y="29" width="1" height="1" fill="#1C0827" />
<rect x="17" y="29" width="1" height="1" fill="#1C0827" />
<rect x="9" y="30" width="1" height="1" fill="#090101" />
<rect x="10" y="30" width="1" height="1" fill="#1C0827" />
<rect x="11" y="30" width="1" height="1" fill="#523163" />
<rect x="12" y="30" width="1" height="1" fill="#523163" />
<rect x="13" y="30" width="1" height="1" fill="#1C0827" />
<rect x="14" y="30" width="1" height="1" fill="#523163" />
<rect x="15" y="30" width="1" height="1" fill="#523163" />
<rect x="16" y="30" width="1" height="1" fill="#351745" />
<rect x="17" y="30" width="1" height="1" fill="#1C0827" />
<rect x="18" y="30" width="1" height="1" fill="#090101" />
<rect x="9" y="31" width="1" height="1" fill="#090101" />
<rect x="10" y="31" width="1" height="1" fill="#2D1A15" />
<rect x="11" y="31" width="1" height="1" fill="#1C0827" />
<rect x="12" y="31" width="1" height="1" fill="#090101" />
<rect x="13" y="31" width="1" height="1" fill="#726972" />
<rect x="14" y="31" width="1" height="1" fill="#090101" />
<rect x="15" y="31" width="1" height="1" fill="#1C0827" />
<rect x="16" y="31" width="1" height="1" fill="#1C0827" />
<rect x="17" y="31" width="1" height="1" fill="#2D1A15" />
<rect x="18" y="31" width="1" height="1" fill="#090101" />
<rect x="9" y="32" width="1" height="1" fill="#090101" />
<rect x="10" y="32" width="1" height="1" fill="#2D1A15" />
<rect x="11" y="32" width="1" height="1" fill="#543428" />
<rect x="12" y="32" width="1" height="1" fill="#726972" />
<rect x="13" y="32" width="1" height="1" fill="#A8A1A8" />
<rect x="14" y="32" width="1" height="1" fill="#726972" />
<rect x="15" y="32" width="1" height="1" fill="#543428" />
<rect x="16" y="32" width="1" height="1" fill="#2D1A15" />
<rect x="17" y="32" width="1" height="1" fill="#090101" />
<rect x="18" y="32" width="1" height="1" fill="#170909" />
<rect x="9" y="33" width="1" height="1" fill="#120E0F" />
<rect x="10" y="33" width="1" height="1" fill="#090101" />
<rect x="11" y="33" width="1" height="1" fill="#090101" />
<rect x="12" y="33" width="1" height="1" fill="#090101" />
<rect x="13" y="33" width="1" height="1" fill="#726972" />
<rect x="14" y="33" width="1" height="1" fill="#090101" />
<rect x="15" y="33" width="1" height="1" fill="#090101" />
<rect x="16" y="33" width="1" height="1" fill="#090101" />
<rect x="17" y="33" width="1" height="1" fill="#58302C" />
<rect x="9" y="34" width="1" height="1" fill="#120E0F" />
<rect x="10" y="34" width="1" height="1" fill="#62565B" />
<rect x="11" y="34" width="1" height="1" fill="#62565B" />
<rect x="12" y="34" width="1" height="1" fill="#3B3335" />
<rect x="13" y="34" width="1" height="1" fill="#090707" />
<rect x="9" y="35" width="1" height="1" fill="#120E0F" />
<rect x="10" y="35" width="1" height="1" fill="#62565B" />
<rect x="11" y="35" width="1" height="1" fill="#62565B" />
<rect x="12" y="35" width="1" height="1" fill="#3B3335" />
<rect x="13" y="35" width="1" height="1" fill="#090707" />
<rect x="8" y="36" width="1" height="1" fill="#120E0F" />
<rect x="9" y="36" width="1" height="1" fill="#62565B" />
<rect x="10" y="36" width="1" height="1" fill="#62565B" />
<rect x="11" y="36" width="1" height="1" fill="#3B3335" />
<rect x="12" y="36" width="1" height="1" fill="#090707" />
<rect x="8" y="37" width="1" height="1" fill="#120E0F" />
<rect x="9" y="37" width="1" height="1" fill="#62565B" />
<rect x="10" y="37" width="1" height="1" fill="#62565B" />
<rect x="11" y="37" width="1" height="1" fill="#3B3335" />
<rect x="12" y="37" width="1" height="1" fill="#090707" />
<rect x="8" y="38" width="1" height="1" fill="#120E0F" />
<rect x="9" y="38" width="1" height="1" fill="#62565B" />
<rect x="10" y="38" width="1" height="1" fill="#3B3335" />
<rect x="11" y="38" width="1" height="1" fill="#090707" />
<rect x="8" y="39" width="1" height="1" fill="#120E0F" />
<rect x="9" y="39" width="1" height="1" fill="#62565B" />
<rect x="10" y="39" width="1" height="1" fill="#3B3335" />
<rect x="11" y="39" width="1" height="1" fill="#090707" />
<rect x="8" y="40" width="1" height="1" fill="#120E0F" />
<rect x="9" y="40" width="1" height="1" fill="#3B3335" />
<rect x="10" y="40" width="1" height="1" fill="#3B3335" />
<rect x="11" y="40" width="1" height="1" fill="#090707" />
<rect x="8" y="41" width="1" height="1" fill="#120E0F" />
<rect x="9" y="41" width="1" height="1" fill="#3B3335" />
<rect x="10" y="41" width="1" height="1" fill="#090707" />
<rect x="7" y="42" width="1" height="1" fill="#090707" />
<rect x="8" y="42" width="1" height="1" fill="#3B3335" />
<rect x="9" y="42" width="1" height="1" fill="#3B3335" />
<rect x="10" y="42" width="1" height="1" fill="#090707" />
<rect x="7" y="43" width="1" height="1" fill="#090707" />
<rect x="8" y="43" width="1" height="1" fill="#3B3335" />
<rect x="9" y="43" width="1" height="1" fill="#3B3335" />
<rect x="10" y="43" width="1" height="1" fill="#090707" />
<rect x="6" y="44" width="1" height="1" fill="#090707" />
<rect x="7" y="44" width="1" height="1" fill="#090707" />
<rect x="8" y="44" width="1" height="1" fill="#090707" />
<rect x="9" y="44" width="1" height="1" fill="#090707" />
</svg>