<?xml version="1.0" encoding="UTF-8" ?>
<svg version="1.1" width="30" height="45" xmlns="http://www.w3.org/2000/svg" shape-rendering="crispEdges">
<rect x="9" y="30" width="1" height="1" fill="#090707" />
<rect x="10" y="30" width="1" height="1" fill="#090707" />
<rect x="11" y="30" width="1" height="1" fill="#090707" />
<rect x="12" y="30" width="1" height="1" fill="#090707" />
<rect x="13" y="30" width="1" height="1" fill="#090707" />
<rect x="14" y="30" width="1" height="1" fill="#090707" />
<rect x="15" y="30" width="1" height="1" fill="#090707" />
<rect x="16" y="30" width="1" height="1" fill="#090707" />
<rect x="17" y="30" width="1" height="1" fill="#090707" />
<rect x="18" y="30" width="1" height="1" fill="#090707" />
<rect x="9" y="31" width="1" height="1" fill="#090707" />
<rect x="10" y="31" width="1" height="1" fill="#201C1D" />
<rect x="11" y="31" width="1" height="1" fill="#201C1D" />
<rect x="12" y="31" width="1" height="1" fill="#201C1D" />
<rect x="13" y="31" width="1" height="1" fill="#201C1D" />
<rect x="14" y="31" width="1" height="1" fill="#201C1D" />
<rect x="15" y="31" width="1" height="1" fill="#201C1D" />
<rect x="16" y="31" width="1" height="1" fill="#201C1D" />
<rect x="17" y="31" width="1" height="1" fill="#201C1D" />
<rect x="18" y="31" width="1" height="1" fill="#090707" />
<rect x="9" y="32" width="1" height="1" fill="#090707" />
<rect x="10" y="32" width="1" height="1" fill="#201C1D" />
<rect x="11" y="32" width="1" height="1" fill="#201C1D" />
<rect x="12" y="32" width="1" height="1" fill="#201C1D" />
<rect x="13" y="32" width="1" height="1" fill="#201C1D" />
<rect x="14" y="32" width="1" height="1" fill="#201C1D" />
<rect x="15" y="32" width="1" height="1" fill="#201C1D" />
<rect x="16" y="32" width="1" height="1" fill="#201C1D" />
<rect x="17" y="32" width="1" height="1" fill="#201C1D" />
<rect x="18" y="32" width="1" height="1" fill="#090707" />
<rect x="9" y="33" width="1" height="1" fill="#090707" />
<rect x="10" y="33" width="1" height="1" fill="#201C1D" />
<rect x="11" y="33" width="1" height="1" fill="#201C1D" />
<rect x="12" y="33" width="1" height="1" fill="#201C1D" />
<rect x="13" y="33" width="1" height="1" fill="#201C1D" />
<rect x="14" y="33" width="1" height="1" fill="#201C1D" />
<rect x="15" y="33" width="1" height="1" fill="#201C1D" />
<rect x="16" y="33" width="1" height="1" fill="#201C1D" />
<rect x="17" y="33" width="1" height="1" fill="#201C1D" />
<rect x="18" y="33" width="1" height="1" fill="#090707" />
<rect x="9" y="34" width="1" height="1" fill="#090707" />
<rect x="10" y="34" width="1" height="1" fill="#201C1D" />
<rect x="11" y="34" width="1" height="1" fill="#201C1D" />
<rect x="12" y="34" width="1" height="1" fill="#201C1D" />
<rect x="13" y="34" width="1" height="1" fill="#201C1D" />
<rect x="14" y="34" width="1" height="1" fill="#201C1D" />
<rect x="15" y="34" width="1" height="1" fill="#201C1D" />
<rect x="16" y="34" width="1" height="1" fill="#201C1D" />
<rect x="17" y="34" width="1" height="1" fill="#201C1D" />
<rect x="18" y="34" width="1" height="1" fill="#090707" />
<rect x="9" y="35" width="1" height="1" fill="#090707" />
<rect x="10" y="35" width="1" height="1" fill="#201C1D" />
<rect x="11" y="35" width="1" height="1" fill="#201C1D" />
<rect x="12" y="35" width="1" height="1" fill="#201C1D" />
<rect x="13" y="35" width="1" height="1" fill="#201C1D" />
<rect x="14" y="35" width="1" height="1" fill="#201C1D" />
<rect x="15" y="35" width="1" height="1" fill="#201C1D" />
<rect x="16" y="35" width="1" height="1" fill="#201C1D" />
<rect x="17" y="35" width="1" height="1" fill="#201C1D" />
<rect x="18" y="35" width="1" height="1" fill="#090707" />
<rect x="8" y="36" width="1" height="1" fill="#090707" />
<rect x="9" y="36" width="1" height="1" fill="#201C1D" />
<rect x="10" y="36" width="1" height="1" fill="#201C1D" />
<rect x="11" y="36" width="1" height="1" fill="#201C1D" />
<rect x="12" y="36" width="1" height="1" fill="#201C1D" />
<rect x="13" y="36" width="1" height="1" fill="#201C1D" />
<rect x="14" y="36" width="1" height="1" fill="#201C1D" />
<rect x="15" y="36" width="1" height="1" fill="#201C1D" />
<rect x="16" y="36" width="1" height="1" fill="#201C1D" />
<rect x="17" y="36" width="1" height="1" fill="#201C1D" />
<rect x="18" y="36" width="1" height="1" fill="#201C1D" />
<rect x="19" y="36" width="1" height="1" fill="#090707" />
<rect x="8" y="37" width="1" height="1" fill="#090707" />
<rect x="9" y="37" width="1" height="1" fill="#201C1D" />
<rect x="10" y="37" width="1" height="1" fill="#201C1D" />
<rect x="11" y="37" width="1" height="1" fill="#201C1D" />
<rect x="12" y="37" width="1" height="1" fill="#201C1D" />
<rect x="13" y="37" width="1" height="1" fill="#201C1D" />
<rect x="14" y="37" width="1" height="1" fill="#201C1D" />
<rect x="15" y="37" width="1" height="1" fill="#201C1D" />
<rect x="16" y="37" width="1" height="1" fill="#201C1D" />
<rect x="17" y="37" width="1" height="1" fill="#201C1D" />
<rect x="18" y="37" width="1" height="1" fill="#201C1D" />
<rect x="19" y="37" width="1" height="1" fill="#090707" />
<rect x="8" y="38" width="1" height="1" fill="#090707" />
<rect x="9" y="38" width="1" height="1" fill="#201C1D" />
<rect x="10" y="38" width="1" height="1" fill="#201C1D" />
<rect x="11" y="38" width="1" height="1" fill="#201C1D" />
<rect x="12" y="38" width="1" height="1" fill="#201C1D" />
<rect x="13" y="38" width="1" height="1" fill="#201C1D" />
<rect x="14" y="38" width="1" height="1" fill="#201C1D" />
<rect x="15" y="38" width="1" height="1" fill="#201C1D" />
<rect x="16" y="38" width="1" height="1" fill="#201C1D" />
<rect x="17" y="38" width="1" height="1" fill="#201C1D" />
<rect x="18" y="38" width="1" height="1" fill="#201C1D" />
<rect x="19" y="38" width="1" height="1" fill="#090707" />
<rect x="8" y="39" width="1" height="1" fill="#090707" />
<rect x="9" y="39" width="1" height="1" fill="#201C1D" />
<rect x="10" y="39" width="1" height="1" fill="#201C1D" />
<rect x="11" y="39" width="1" height="1" fill="#201C1D" />
<rect x="12" y="39" width="1" height="1" fill="#201C1D" />
<rect x="13" y="39" width="1" height="1" fill="#201C1D" />
<rect x="14" y="39" width="1" height="1" fill="#201C1D" />
<rect x="15" y="39" width="1" height="1" fill="#201C1D" />
<rect x="16" y="39" width="1" height="1" fill="#201C1D" />
<rect x="17" y="39" width="1" height="1" fill="#201C1D" />
<rect x="18" y="39" width="1" height="1" fill="#201C1D" />
<rect x="19" y="39" width="1" height="1" fill="#090707" />
<rect x="8" y="40" width="1" height="1" fill="#090707" />
<rect x="9" y="40" width="1" height="1" fill="#201C1D" />
<rect x="10" y="40" width="1" height="1" fill="#201C1D" />
<rect x="11" y="40" width="1" height="1" fill="#201C1D" />
<rect x="12" y="40" width="1" height="1" fill="#201C1D" />
<rect x="13" y="40" width="1" height="1" fill="#201C1D" />
<rect x="14" y="40" width="1" height="1" fill="#201C1D" />
<rect x="15" y="40" width="1" height="1" fill="#201C1D" />
<rect x="16" y="40" width="1" height="1" fill="#201C1D" />
<rect x="17" y="40" width="1" height="1" fill="#201C1D" />
<rect x="18" y="40" width="1" height="1" fill="#201C1D" />
<rect x="19" y="40" width="1" height="1" fill="#201C1D" />
<rect x="20" y="40" width="1" height="1" fill="#090707" />
<rect x="8" y="41" width="1" height="1" fill="#090707" />
<rect x="9" y="41" width="1" height="1" fill="#201C1D" />
<rect x="10" y="41" width="1" height="1" fill="#201C1D" />
<rect x="11" y="41" width="1" height="1" fill="#201C1D" />
<rect x="12" y="41" width="1" height="1" fill="#201C1D" />
<rect x="13" y="41" width="1" height="1" fill="#201C1D" />
<rect x="14" y="41" width="1" height="1" fill="#201C1D" />
<rect x="15" y="41" width="1" height="1" fill="#201C1D" />
<rect x="16" y="41" width="1" height="1" fill="#201C1D" />
<rect x="17" y="41" width="1" height="1" fill="#201C1D" />
<rect x="18" y="41" width="1" height="1" fill="#201C1D" />
<rect x="19" y="41" width="1" height="1" fill="#201C1D" />
<rect x="20" y="41" width="1" height="1" fill="#090707" />
<rect x="7" y="42" width="1" height="1" fill="#090707" />
<rect x="8" y="42" width="1" height="1" fill="#201C1D" />
<rect x="9" y="42" width="1" height="1" fill="#201C1D" />
<rect x="10" y="42" width="1" height="1" fill="#201C1D" />
<rect x="11" y="42" width="1" height="1" fill="#201C1D" />
<rect x="12" y="42" width="1" height="1" fill="#201C1D" />
<rect x="13" y="42" width="1" height="1" fill="#201C1D" />
<rect x="14" y="42" width="1" height="1" fill="#201C1D" />
<rect x="15" y="42" width="1" height="1" fill="#201C1D" />
<rect x="16" y="42" width="1" height="1" fill="#201C1D" />
<rect x="17" y="42" width="1" height="1" fill="#201C1D" />
<rect x="18" y="42" width="1" height="1" fill="#201C1D" />
<rect x="19" y="42" width="1" height="1" fill="#201C1D" />
<rect x="20" y="42" width="1" height="1" fill="#090707" />
<rect x="7" y="43" width="1" height="1" fill="#090707" />
<rect x="8" y="43" width="1" height="1" fill="#201C1D" />
<rect x="9" y="43" width="1" height="1" fill="#201C1D" />
<rect x="10" y="43" width="1" height="1" fill="#201C1D" />
<rect x="11" y="43" width="1" height="1" fill="#201C1D" />
<rect x="12" y="43" width="1" height="1" fill="#201C1D" />
<rect x="13" y="43" width="1" height="1" fill="#201C1D" />
<rect x="14" y="43" width="1" height="1" fill="#201C1D" />
<rect x="15" y="43" width="1" height="1" fill="#201C1D" />
<rect x="16" y="43" width="1" height="1" fill="#201C1D" />
<rect x="17" y="43" width="1" height="1" fill="#201C1D" />
<rect x="18" y="43" width="1" height="1" fill="#201C1D" />
<rect x="19" y="43" width="1" height="1" fill="#201C1D" />
<rect x="20" y="43" width="1" height="1" fill="#201C1D" />
<rect x="21" y="43" width="1" height="1" fill="#090707" />
<rect x="6" y="44" width="1" height="1" fill="#090707" />
<rect x="7" y="44" width="1" height="1" fill="#090707" />
<rect x="8" y="44" width="1" height="1" fill="#090707" />
<rect x="9" y="44" width="1" height="1" fill="#090707" />
<rect x="10" y="44" width="1" height="1" fill="#201C1D" />
<rect x="11" y="44" width="1" height="1" fill="#201C1D" />
<rect x="12" y="44" width="1" height="1" fill="#201C1D" />
<rect x="13" y="44" width="1" height="1" fill="#201C1D" />
<rect x="14" y="44" width="1" height="1" fill="#201C1D" />
<rect x="15" y="44" width="1" height="1" fill="#201C1D" />
<rect x="16" y="44" width="1" height="1" fill="#201C1D" />
<rect x="17" y="44" width="1" height="1" fill="#201C1D" />
<rect x="18" y="44" width="1" height="1" fill="#201C1D" />
<rect x="19" y="44" width="1" height="1" fill="#201C1D" />
<rect x="20" y="44" width="1" height="1" fill="#201C1D" />
<rect x="21" y="44" width="1" height="1" fill="#090707" />
<rect x="22" y="44" width="1" height="1" fill="#090707" />
</svg>