<?xml version="1.0" encoding="UTF-8" ?>
<svg version="1.1" width="30" height="45" xmlns="http://www.w3.org/2000/svg" shape-rendering="crispEdges">
<rect x="18" y="20" width="1" height="1" fill="#120E0F" />
<rect x="18" y="21" width="1" height="1" fill="#62565B" />
<rect x="19" y="21" width="1" height="1" fill="#120E0F" />
<rect x="18" y="22" width="1" height="1" fill="#3B3335" />
<rect x="19" y="22" width="1" height="1" fill="#62565B" />
<rect x="20" y="22" width="1" height="1" fill="#120E0F" />
<rect x="18" y="23" width="1" height="1" fill="#3B3335" />
<rect x="19" y="23" width="1" height="1" fill="#3B3335" />
<rect x="20" y="23" width="1" height="1" fill="#62565B" />
<rect x="21" y="23" width="1" height="1" fill="#120E0F" />
<rect x="18" y="24" width="1" height="1" fill="#120E0F" />
<rect x="19" y="24" width="1" height="1" fill="#3B3335" />
<rect x="20" y="24" width="1" height="1" fill="#62565B" />
<rect x="21" y="24" width="1" height="1" fill="#62565B" />
<rect x="22" y="24" width="1" height="1" fill="#120E0F" />
<rect x="19" y="25" width="1" height="1" fill="#120E0F" />
<rect x="20" y="25" width="1" height="1" fill="#3B3335" />
<rect x="21" y="25" width="1" height="1" fill="#62565B" />
<rect x="22" y="25" width="1" height="1" fill="#120E0F" />
<rect x="19" y="26" width="1" height="1" fill="#120E0F" />
<rect x="20" y="26" width="1" height="1" fill="#3B3335" />
<rect x="21" y="26" width="1" height="1" fill="#62565B" />
<rect x="22" y="26" width="1" height="1" fill="#62565B" />
<rect x="23" y="26" width="1" height="1" fill="#120E0F" />
<rect x="19" y="27" width="1" height="1" fill="#120E0F" />
<rect x="20" y="27" width="1" height="1" fill="#3B3335" />
<rect x="21" y="27" width="1" height="1" fill="#62565B" />
<rect x="22" y="27" width="1" height="1" fill="#62565B" />
<rect x="23" y="27" width="1" height="1" fill="#120E0F" />
</svg>