<?xml version="1.0" encoding="UTF-8" ?>
<svg version="1.1" width="30" height="45" xmlns="http://www.w3.org/2000/svg" shape-rendering="crispEdges">
<rect x="8" y="29" width="1" height="1" fill="#120E0F" />
<rect x="9" y="29" width="1" height="1" fill="#120E0F" />
<rect x="10" y="29" width="1" height="1" fill="#120E0F" />
<rect x="11" y="29" width="1" height="1" fill="#170909" />
<rect x="7" y="30" width="1" height="1" fill="#170909" />
<rect x="8" y="30" width="1" height="1" fill="#58352B" />
<rect x="9" y="30" width="1" height="1" fill="#58352B" />
<rect x="10" y="30" width="1" height="1" fill="#38201A" />
<rect x="11" y="30" width="1" height="1" fill="#170909" />
<rect x="6" y="31" width="1" height="1" fill="#170909" />
<rect x="7" y="31" width="1" height="1" fill="#58352B" />
<rect x="8" y="31" width="1" height="1" fill="#38201A" />
<rect x="9" y="31" width="1" height="1" fill="#38201A" />
<rect x="10" y="31" width="1" height="1" fill="#170909" />
<rect x="6" y="32" width="1" height="1" fill="#170909" />
<rect x="7" y="32" width="1" height="1" fill="#38201A" />
<rect x="8" y="32" width="1" height="1" fill="#58352B" />
<rect x="9" y="32" width="1" height="1" fill="#170909" />
<rect x="7" y="33" width="1" height="1" fill="#170909" />
<rect x="8" y="33" width="1" height="1" fill="#170909" />
</svg>