<?xml version="1.0" encoding="UTF-8" ?>
<svg version="1.1" width="30" height="45" xmlns="http://www.w3.org/2000/svg" shape-rendering="crispEdges">
<rect x="19" y="28" width="1" height="1" fill="#120E0F" />
<rect x="20" y="28" width="1" height="1" fill="#3B3335" />
<rect x="21" y="28" width="1" height="1" fill="#3B3335" />
<rect x="22" y="28" width="1" height="1" fill="#62565B" />
<rect x="23" y="28" width="1" height="1" fill="#120E0F" />
<rect x="19" y="29" width="1" height="1" fill="#120E0F" />
<rect x="20" y="29" width="1" height="1" fill="#120E0F" />
<rect x="21" y="29" width="1" height="1" fill="#120E0F" />
<rect x="22" y="29" width="1" height="1" fill="#120E0F" />
<rect x="18" y="30" width="1" height="1" fill="#090101" />
<rect x="19" y="30" width="1" height="1" fill="#170909" />
<rect x="20" y="30" width="1" height="1" fill="#38201A" />
<rect x="21" y="30" width="1" height="1" fill="#38201A" />
<rect x="22" y="30" width="1" height="1" fill="#170909" />
<rect x="18" y="31" width="1" height="1" fill="#170909" />
<rect x="19" y="31" width="1" height="1" fill="#38201A" />
<rect x="20" y="31" width="1" height="1" fill="#38201A" />
<rect x="21" y="31" width="1" height="1" fill="#58352B" />
<rect x="22" y="31" width="1" height="1" fill="#170909" />
<rect x="18" y="32" width="1" height="1" fill="#170909" />
<rect x="19" y="32" width="1" height="1" fill="#170909" />
<rect x="20" y="32" width="1" height="1" fill="#58352B" />
<rect x="21" y="32" width="1" height="1" fill="#58352B" />
<rect x="22" y="32" width="1" height="1" fill="#170909" />
<rect x="19" y="33" width="1" height="1" fill="#170909" />
<rect x="20" y="33" width="1" height="1" fill="#58352B" />
<rect x="21" y="33" width="1" height="1" fill="#170909" />
<rect x="19" y="34" width="1" height="1" fill="#170909" />
<rect x="20" y="34" width="1" height="1" fill="#170909" />
</svg>