<svg xmlns="http://www.w3.org/2000/svg" viewBox="0 -0.5 30 45" shape-rendering="crispEdges">
<metadata>Made with Pixels to Svg https://codepen.io/shshaw/pen/XbxvNj</metadata>
<path stroke="#c5b6a4" d="M10 19h1M12 20h1M9 22h1" />
<path stroke="#a48872" d="M11 19h1M12 21h1" />
<path stroke="#b29271" d="M10 20h1M9 21h1M13 21h1" />
<path stroke="#9e8d7b" d="M11 20h1" />
<path stroke="#6e5546" d="M10 21h1" />
<path stroke="#866750" d="M11 21h1" />
<path stroke="#4a4139" d="M10 22h1" />
<path stroke="#51493e" d="M11 22h1" />
<path stroke="#51473d" d="M12 22h1" />
<path stroke="#715b3f" d="M13 22h1" />
<path stroke="#273938" d="M9 23h1M8 24h1M8 25h1M8 26h1M11 26h1" />
<path stroke="#908270" d="M10 23h1" />
<path stroke="#607b6c" d="M11 23h2" />
<path stroke="#26302d" d="M13 23h1M13 24h1M12 25h1M12 26h1" />
<path stroke="#416463" d="M9 24h1M10 26h1" />
<path stroke="#92a89e" d="M10 24h1" />
<path stroke="#8ab8a9" d="M11 24h1" />
<path stroke="#7aa899" d="M12 24h1" />
<path stroke="#678675" d="M9 25h1" />
<path stroke="#394942" d="M10 25h2" />
<path stroke="#344c4d" d="M9 26h1" />
</svg>