<svg xmlns="http://www.w3.org/2000/svg" viewBox="0 -0.5 30 45" shape-rendering="crispEdges">
<metadata>Made with Pixels to Svg https://codepen.io/shshaw/pen/XbxvNj</metadata>
<path stroke="#1e2f2a" d="M16 29h2M14 30h2M18 30h1M13 31h2M19 31h1M13 32h2M19 32h1M13 33h2M20 33h1M14 34h1M20 34h1M14 35h1M21 35h1M14 36h1M15 37h1M21 37h1M15 38h1M15 39h1M22 39h1M16 40h1M21 40h1M16 41h2M19 41h1" />
<path stroke="#294338" d="M16 30h2M15 31h1M20 37h1" />
<path stroke="#3c594d" d="M16 31h3M15 32h1M17 32h2M15 33h1M18 33h2M15 34h1M19 34h1M15 35h1M15 36h1M18 38h3" />
<path stroke="#749386" d="M16 32h1" />
<path stroke="#92caba" d="M16 33h1" />
<path stroke="#71ab9b" d="M17 33h1M18 34h1" />
<path stroke="#908270" d="M16 34h1" />
<path stroke="#c5b6a4" d="M17 34h1" />
<path stroke="#866750" d="M21 34h1M17 35h1" />
<path stroke="#4a4139" d="M16 35h1M17 36h4" />
<path stroke="#837b72" d="M18 35h1" />
<path stroke="#a48872" d="M19 35h1" />
<path stroke="#6e5546" d="M20 35h1" />
<path stroke="#395549" d="M16 36h1M17 37h1" />
<path stroke="#192623" d="M21 36h1M22 38h1M22 40h1M18 41h1M20 41h1" />
<path stroke="#486d5d" d="M16 37h1M17 38h1" />
<path stroke="#324c41" d="M18 37h2" />
<path stroke="#2b4c4d" d="M16 38h1M16 39h2" />
<path stroke="#233a3b" d="M21 38h1M21 39h1M20 40h1" />
<path stroke="#274243" d="M18 39h3M17 40h3" />
</svg>