<svg xmlns="http://www.w3.org/2000/svg" viewBox="0 -0.5 30 45" shape-rendering="crispEdges">
<metadata>Made with Pixels to Svg https://codepen.io/shshaw/pen/XbxvNj</metadata>
<path stroke="#908270" d="M18 18h1M11 19h1M18 19h1M12 20h1M10 23h1" />
<path stroke="#c5b6a4" d="M10 19h1M11 20h1M18 20h1M12 21h1M16 21h2M9 22h1" />
<path stroke="#b29271" d="M10 20h1M9 21h1" />
<path stroke="#837b72" d="M17 20h1M14 21h1" />
<path stroke="#6e5546" d="M10 21h1" />
<path stroke="#a48872" d="M11 21h1M13 21h1M13 22h1" />
<path stroke="#866750" d="M15 21h1M18 21h1M11 22h2M15 22h2" />
<path stroke="#4a4139" d="M10 22h1M11 23h1" />
<path stroke="#9e8d7b" d="M14 22h1" />
<path stroke="#fff4ae" d="M17 22h1" />
<path stroke="#fcd371" d="M18 22h1M10 31h1M16 31h1M11 32h1M15 32h1" />
<path stroke="#60554a" d="M12 23h1" />
<path stroke="#746051" d="M13 23h1" />
<path stroke="#51493e" d="M14 23h1" />
<path stroke="#3f3831" d="M15 23h1" />
<path stroke="#2e2822" d="M16 23h1" />
<path stroke="#ecbc6e" d="M17 23h1" />
<path stroke="#7b5a32" d="M18 23h1" />
<path stroke="#92a89e" d="M10 24h1M16 24h1" />
<path stroke="#b9d2c7" d="M11 24h2M14 24h2" />
<path stroke="#214745" d="M13 24h1" />
<path stroke="#273938" d="M17 24h1M10 26h1M11 27h1M15 27h2M12 28h2" />
<path stroke="#394942" d="M10 25h1M17 25h1M16 26h1" />
<path stroke="#366a65" d="M11 25h1M13 25h1" />
<path stroke="#92caba" d="M12 25h1M14 25h1" />
<path stroke="#427370" d="M15 25h1" />
<path stroke="#748f84" d="M16 25h1" />
<path stroke="#6da393" d="M11 26h1" />
<path stroke="#577262" d="M12 26h1M14 26h1" />
<path stroke="#30645d" d="M13 26h1" />
<path stroke="#71ab9b" d="M15 26h1" />
<path stroke="#222f2d" d="M17 26h1M10 27h1M17 27h1M14 28h1" />
<path stroke="#485e51" d="M12 27h1M14 27h1" />
<path stroke="#2a5c57" d="M13 27h1" />
<path stroke="#436464" d="M10 29h1M17 29h1M12 30h1M15 30h1" />
<path stroke="#4e7b7b" d="M16 29h1M11 30h1M13 30h2" />
<path stroke="#263d3e" d="M10 30h1M16 30h1M11 31h1M14 31h1" />
<path stroke="#1c2e2f" d="M17 30h1M12 31h2M15 31h1" />
<path stroke="#476253" d="M12 32h1M12 33h1M12 34h1M12 35h1M12 36h1M13 37h1" />
<path stroke="#5b806c" d="M13 32h1M13 34h1M13 36h1" />
<path stroke="#3c5447" d="M14 32h1M14 33h1M12 37h1M14 37h1" />
<path stroke="#283a37" d="M11 33h1M15 33h1M11 34h1M15 34h1M11 35h1M15 35h1M11 36h1M15 36h1M11 37h1M15 37h1M12 38h3" />
<path stroke="#51725f" d="M13 33h1M13 35h1" />
<path stroke="#425e4f" d="M14 34h1M14 35h1M14 36h1" />
</svg>