<svg xmlns="http://www.w3.org/2000/svg" viewBox="0 -0.5 30 45" shape-rendering="crispEdges">
<metadata>Made with Pixels to Svg https://codepen.io/shshaw/pen/XbxvNj</metadata>
<path stroke="#1e2f2a" d="M11 30h3M13 31h1M13 32h1M13 33h1M13 34h1M13 35h1M13 36h1M12 37h1M8 38h1M12 38h1M8 39h1M12 39h1M11 40h1M9 41h3" />
<path stroke="#294338" d="M11 31h2" />
<path stroke="#749386" d="M10 32h1" />
<path stroke="#3c594d" d="M11 32h1M12 35h1M11 36h2M11 37h1M10 38h1" />
<path stroke="#c5b6a4" d="M12 32h1M11 33h1M9 34h1" />
<path stroke="#92caba" d="M10 33h1" />
<path stroke="#866750" d="M12 33h1M10 34h2M9 35h1" />
<path stroke="#4a4139" d="M12 34h1M10 35h2M8 36h2" />
<path stroke="#908270" d="M8 35h1" />
<path stroke="#395549" d="M10 36h1" />
<path stroke="#192623" d="M8 37h1M8 40h1" />
<path stroke="#324c41" d="M9 37h1" />
<path stroke="#486d5d" d="M10 37h1M9 38h1" />
<path stroke="#2b4c4d" d="M11 38h1M10 39h2" />
<path stroke="#274243" d="M9 39h1M9 40h2" />
</svg>