<svg xmlns="http://www.w3.org/2000/svg" viewBox="0 -0.5 30 45" shape-rendering="crispEdges">
<metadata>Made with Pixels to Svg https://codepen.io/shshaw/pen/XbxvNj</metadata>
<path stroke="#908270" d="M18 18h1M18 19h1" />
<path stroke="#c5b6a4" d="M19 18h1M19 19h1M18 20h1M21 20h1M17 21h1" />
<path stroke="#b29271" d="M20 18h1M21 19h1M22 21h1" />
<path stroke="#a48872" d="M20 19h1M21 21h1" />
<path stroke="#837b72" d="M17 20h1" />
<path stroke="#866750" d="M19 20h1M18 21h1M20 21h1" />
<path stroke="#9e8d7b" d="M20 20h1" />
<path stroke="#6e5546" d="M19 21h1" />
<path stroke="#fff4ae" d="M17 22h1" />
<path stroke="#fcd371" d="M18 22h1" />
<path stroke="#2e2822" d="M19 22h1" />
<path stroke="#51493e" d="M20 22h1" />
<path stroke="#51473d" d="M21 22h1" />
<path stroke="#715b3f" d="M22 22h1" />
<path stroke="#ecbc6e" d="M17 23h1" />
<path stroke="#7b5a32" d="M18 23h1" />
<path stroke="#607b6c" d="M19 23h2M21 25h1" />
<path stroke="#394942" d="M21 23h1M22 25h1" />
<path stroke="#26302d" d="M22 23h1M23 26h1" />
<path stroke="#222f2d" d="M18 24h1M18 25h2" />
<path stroke="#92beb0" d="M19 24h1" />
<path stroke="#8ab8a9" d="M20 24h1" />
<path stroke="#7aa899" d="M21 24h1" />
<path stroke="#273938" d="M22 24h1M23 25h1M19 26h1M22 26h1" />
<path stroke="#678675" d="M20 25h1" />
<path stroke="#344c4d" d="M20 26h1" />
<path stroke="#416463" d="M21 26h1" />
</svg>