<svg xmlns="http://www.w3.org/2000/svg" viewBox="0 -0.5 30 45" shape-rendering="crispEdges">
<metadata>Made with Pixels to Svg https://codepen.io/shshaw/pen/XbxvNj</metadata>
<path stroke="#3d5d59" d="M19 28h2M21 31h1M21 32h1" />
<path stroke="#334948" d="M21 28h1M20 29h1M21 30h1" />
<path stroke="#26302d" d="M22 28h1M22 29h1M19 30h2M22 31h1M22 32h1" />
<path stroke="#b79a58" d="M23 28h1M23 30h1" />
<path stroke="#cbb479" d="M25 28h1M19 29h1M21 29h1M24 29h1" />
<path stroke="#bba66d" d="M23 29h1" />
<path stroke="#927c4d" d="M22 30h1" />
<path stroke="#273938" d="M18 31h1M18 32h1M19 33h1M19 34h1" />
<path stroke="#92a89e" d="M19 31h1" />
<path stroke="#607b6c" d="M20 31h1M20 32h1" />
<path stroke="#1e2f2a" d="M19 32h1M21 33h1" />
<path stroke="#3c594d" d="M18 33h1" />
<path stroke="#678675" d="M20 33h1" />
<path stroke="#71ab9b" d="M18 34h1" />
<path stroke="#243933" d="M20 34h1" />
</svg>