<svg xmlns="http://www.w3.org/2000/svg" viewBox="0 -0.5 30 45" shape-rendering="crispEdges">
<metadata>Made with Pixels to Svg https://codepen.io/shshaw/pen/XbxvNj</metadata>
<path stroke="#cbb479" d="M6 28h1M6 29h1M9 29h1" />
<path stroke="#26302d" d="M8 28h1M8 29h1M9 30h1" />
<path stroke="#334948" d="M9 28h1M8 32h1" />
<path stroke="#273938" d="M10 28h1M11 29h1M10 30h1M6 31h1M9 31h1M6 32h1M9 32h1M7 33h2" />
<path stroke="#bba66d" d="M7 29h1" />
<path stroke="#3d5d59" d="M10 29h1M7 32h1" />
<path stroke="#b79a58" d="M7 30h1" />
<path stroke="#927c4d" d="M8 30h1M10 31h1" />
<path stroke="#92a89e" d="M7 31h1" />
<path stroke="#607b6c" d="M8 31h1" />
</svg>